SplineFontDB: 3.0
FontName: post_so
FullName: post_so
FamilyName: post_so
Weight: Bold
Copyright: Created by Andrey V. Panov with FontForge 1.0 (http://fontforge.sf.net)
UComments: "2006-8-31: Created." 
Version: 1
ItalicAngle: -12
UnderlinePosition: -100
UnderlineWidth: 50
Ascent: 800
Descent: 200
LayerCount: 2
Layer: 0 0 "+BBcEMAQ0BD0EOAQ5 +BD8EOwQwBD0A"  1
Layer: 1 0 "+BB8ENQRABDUENAQ9BDgEOQAA +BD8EOwQwBD0A"  0
NeedsXUIDChange: 1
XUID: [1021 305 2130962764 14969888]
OS2Version: 0
OS2_WeightWidthSlopeOnly: 0
OS2_UseTypoMetrics: 0
CreationTime: 1157021478
ModificationTime: 1234670718
OS2TypoAscent: 0
OS2TypoAOffset: 1
OS2TypoDescent: 0
OS2TypoDOffset: 1
OS2TypoLinegap: 0
OS2WinAscent: 0
OS2WinAOffset: 1
OS2WinDescent: 0
OS2WinDOffset: 1
HheadAscent: 0
HheadAOffset: 1
HheadDescent: 0
HheadDOffset: 1
OS2Vendor: 'PfEd'
DEI: 91125
Encoding: UnicodeBmp
UnicodeInterp: none
NameList: Adobe Glyph List
DisplaySize: -48
AntiAlias: 1
FitToEm: 1
WinInfo: 65328 16 14
BeginChars: 65538 59

StartChar: period
Encoding: 46 46 0
Width: 305
Flags: HW
HStem: 0 131<116 221.1>
VStem: 92 149<24 106.992>
LayerCount: 2
Back
SplineSet
122.867 129.639 m 1
 122.867 129.639 l 1
 126.557 130.909 130.69 130.839 134.545 130.889 c 2
 151.818 130.909 l 1
 210.909 130.909 l 1
 218.182 130.905 l 2
 225.455 130.853 234.545 131.537 239.545 125.096 c 0
 242.385 121.509 242.585 117.059 242.175 112.724 c 2
 238.915 95.9091 l 1
 224.091 26.3636 l 2
 222.147 17.075 220.909 5.24136 210.761 1.36363 c 0
 206.95 -1.78814e-06 202.644 0.0786346 198.636 -1.78814e-06 c 2
 181.364 -1.78814e-06 l 1
 121.818 -1.78814e-06 l 1
 115 -1.78814e-06 l 2
 107.58 -1.78814e-06 98.1818 -0.614547 93.3591 6.18454 c 0
 90.7141 9.86318 90.6632 14.3195 91.1368 18.6364 c 2
 94.4609 35.4545 l 1
 109.237 105 l 2
 111.236 114.306 112.521 126.037 122.867 129.639 c 1
EndSplineSet
Fore
SplineSet
92 24 m 2
 109 105 l 2
 114 126 116 131 135 131 c 2
 218 131 l 2
 237 131 245 127 241 107 c 2
 224 26 l 2
 219 3 216 0 199 -0 c 2
 115 -0 l 2
 96 -0 88 4 92 24 c 2
EndSplineSet
EndChar

StartChar: exclam
Encoding: 33 33 1
Width: 367
Flags: HMW
HStem: 0 131<149.5 227 183 211> 207 20 722 -20
VStem: 125 273<36 708>
LayerCount: 2
Back
SplineSet
278.35 720.909 m 1
 278.351 720.909 l 1
 282.169 722.273 286.461 722.204 290.455 722.256 c 2
 308.182 722.273 l 1
 368.636 722.273 l 1
 374.091 722.268 l 2
 382.18 722.196 392.424 722.68 396.664 714.206 c 0
 398.604 710.328 398.141 705.909 397.425 701.818 c 2
 393.636 685.455 l 1
 377.165 616.364 l 1
 311.924 343.182 l 1
 285.65 233.182 l 1
 281.287 215 l 2
 280.084 210.318 278.725 206.152 276.223 202.007 c 1
 272.589 198.534 l 1
 268.502 196.629 l 2
 265.219 195.555 261.599 195.546 258.181 195.455 c 2
 244.545 195.455 l 1
 199.091 195.455 l 2
 191.244 195.455 181.545 195.173 177.205 203.121 c 0
 175.131 206.918 175.396 211.313 175.909 215.455 c 2
 178.991 232.727 l 1
 192.115 303.182 l 1
 243.85 580.909 l 1
 263.416 685.909 l 1
 266.485 702.271 l 2
 268.07 710 270.085 718.021 278.35 720.909 c 1
169.546 130.313 m 2
 169.546 130.313 l 1
 183.182 130.904 l 1
 200 130.909 l 1
 222.727 130.904 l 2
 229.425 130.871 236.279 130.909 242.726 128.868 c 0
 250.166 126.475 256.602 121.659 261.201 115.356 c 2
 265 108.632 l 2
 266.27 105.382 267.273 102.125 267.638 98.6365 c 0
 268.411 89.5302 266.181 80.6656 264.31 71.8184 c 2
 258.802 45.9093 l 2
 256.818 36.8184 255.455 27.362 251.036 19.0911 c 0
 248.963 15.2693 246.065 12.0834 242.887 9.09108 c 0
 240.444 6.81835 237.49 5.20017 234.535 3.63653 c 0
 231.364 2.14926 227.95 1.27835 224.546 0.726535 c 2
 210.909 0.000171259 l 1
 194.091 0.000171259 l 1
 170.909 0.000171259 l 2
 164.378 0.000171259 157.688 -0.0771015 151.364 1.80244 c 0
 143.182 4.21517 136.224 9.45972 131.454 16.4447 c 2
 127.871 23.182 l 2
 126.688 26.5974 125.704 30.0002 125.455 33.6365 c 0
 125 42.4038 127.263 51.0334 129.064 59.5456 c 2
 135.442 89.5456 l 2
 136.949 96.5893 138.18 103.969 141.511 110.433 c 0
 147.111 121.302 157.481 128.595 169.546 130.313 c 2
EndSplineSet
Fore
SplineSet
125 36 m 0
 125 39 125 43 126 48 c 2
 138 98 l 2
 145 128 164 131 183 131 c 2
 227 131 l 2
 259 131 268 109 268 94 c 0
 268 90 267 85 266 80 c 2
 257 38 l 2
 250 4 232 0 211 0 c 2
 170 0 l 2
 129 0 125 27 125 36 c 0
175 210 m 0
 175 216 178 225 179 233 c 2
 266 702 l 2
 270 721 279 722 290 722 c 2
 376 722 l 2
 384 722 398 722 398 708 c 0
 398 702 395 693 394 685 c 2
 281 215 l 2
 276 196 270 196 258 195 c 2
 198 195 l 2
 180 195 175 201 175 210 c 0
EndSplineSet
EndChar

StartChar: quotedbl
Encoding: 34 34 2
Width: 550
Flags: HW
HStem: 378 20 702 20
VStem: 230 171<394 708> 414 171<394 708>
LayerCount: 2
Back
SplineSet
298.545 381.364 m 1
 298.546 381.364 l 1
 289.859 378.507 l 1
 283.546 377.488 277.165 377.727 270.818 377.727 c 2
 250.818 377.727 l 2
 243.839 377.92 235.995 378.412 231.988 385 c 0
 230.024 388.327 229.772 392.203 229.909 395.909 c 2
 231.218 409.091 l 1
 237.182 462.273 l 1
 257.636 643.636 l 1
 263.192 692.273 l 1
 264.788 705.446 l 2
 265.361 709.014 266.188 712.727 268.347 715.721 c 0
 272.908 722.017 280.573 722.129 287.636 722.255 c 2
 297.636 722.273 l 1
 375.364 722.27 l 2
 381.062 722.252 386.485 722.245 391.996 720.699 c 1
 396.263 718.14 l 1
 399.601 713.387 l 1
 400.502 709.05 l 2
 400.804 704.545 399.19 700.096 397.944 695.909 c 2
 391.999 676.818 l 1
 371.145 610 l 1
 325.037 462.273 l 1
 310.364 415.455 l 2
 306.808 403.94 303.545 392.363 298.545 381.364 c 1
460.035 721.002 m 1
 460.035 721.002 l 1
 464 722.382 468.487 722.217 472.637 722.259 c 2
 491.273 722.273 l 1
 554.909 722.273 l 1
 560.364 722.269 l 2
 568.794 722.215 580.183 722.896 583.884 713.36 c 0
 586.273 707.053 583.312 699.703 581.452 693.636 c 2
 568.959 653.636 l 1
 519.441 495 l 1
 492.48 408.636 l 1
 488.622 396.363 l 2
 486.149 388.93 483.337 381.579 475.243 378.942 c 0
 469.202 376.974 462.081 377.727 455.818 377.727 c 2
 439.455 377.727 l 1
 428.091 378.16 l 2
 423.013 378.954 418.373 381.065 415.818 385.809 c 0
 412.435 392.236 414.455 400.875 415.262 407.727 c 2
 420.442 453.636 l 1
 440.36 630 l 1
 447.893 696.818 l 2
 448.626 703.182 449.251 709.199 452.151 714.999 c 1
 455.951 718.99 l 1
 460.035 721.002 l 1
EndSplineSet
Fore
Refer: 3 39 N 1 0 0 1 30 0 2
Refer: 3 39 N 1 0 0 1 214 0 2
EndChar

StartChar: quotesingle
Encoding: 39 39 3
Width: 305
Flags: HMW
HStem: 378 20 722 -20
VStem: 200 171<394 708>
LayerCount: 2
Back
SplineSet
245.506 721.002 m 5
 245.506 721.002 l 5
 249.455 722.387 253.95 722.217 258.091 722.26 c 6
 276.727 722.273 l 5
 340.818 722.273 l 5
 346.273 722.269 l 6
 354.617 722.204 365.767 722.727 369.435 713.369 c 4
 371.893 707.075 368.925 699.699 367.074 693.636 c 6
 354.608 653.636 l 5
 304.909 494.546 l 5
 278.091 408.636 l 5
 274.247 396.364 l 6
 271.727 388.871 268.873 381.565 260.717 378.935 c 4
 254.795 377.025 247.863 377.727 241.727 377.727 c 6
 225.364 377.727 l 5
 214 378.126 l 6
 208.962 378.855 204.273 380.787 201.637 385.428 c 4
 198.091 391.673 200.026 400.086 200.772 406.818 c 6
 205.916 452.273 l 5
 225.976 630 l 5
 233.545 697.273 l 6
 234.315 703.5 234.909 709.323 237.722 714.999 c 5
 241.459 718.99 l 5
 245.506 721.002 l 5
EndSplineSet
Fore
SplineSet
200 394 m 0
 200 398 201 402 201 408 c 2
 234 697 l 2
 236 716 238 722 257 722 c 2
 349 722 l 2
 362 722 371 719 371 708 c 0
 371 703 370 700 368 694 c 2
 275 396 l 2
 270 382 265 378 250 378 c 2
 225 378 l 2
 204 378 200 383 200 394 c 0
EndSplineSet
EndChar

StartChar: parenright
Encoding: 41 41 4
Width: 428
Flags: HMW
HStem: -250 20 750 -20
VStem: 285 127<389.686 549.5>
LayerCount: 2
Back
SplineSet
227.445 748.636 m 1
 227.445 748.637 l 1
 230.411 749.749 233.636 749.859 236.818 749.941 c 2
 249.545 750 l 1
 267.273 749.984 l 2
 271.818 749.922 276.579 749.961 280.909 748.316 c 0
 287.914 745.656 293.343 739.769 298.459 734.521 c 0
 308.069 724.664 316.995 714.091 325.366 703.182 c 0
 372.273 641.916 397.939 566.976 407.398 490.909 c 0
 416.558 417.242 411.728 342.376 398.182 269.546 c 0
 372.727 131.767 315.328 -1.87402 226.704 -110.909 c 0
 194.536 -150.485 158.182 -186.553 118.182 -218.182 c 2
 90.4545 -238.831 l 2
 83.8559 -243.448 77.2259 -248.248 69.0909 -249.545 c 2
 58.1818 -250 l 1
 42.7273 -250 l 2
 36.1236 -250 28.8218 -250.777 22.2727 -249.27 c 0
 15.6836 -247.727 10.09 -242.372 11.6322 -235.037 c 0
 12.3691 -231.531 14.5454 -228.522 16.9327 -225.909 c 2
 28.18 -214.686 l 2
 40.4118 -202.857 52.1259 -190.495 63.375 -177.727 c 0
 98.7859 -137.537 128.948 -93.0213 154.362 -45.9091 c 0
 203.082 44.4082 234.014 143.182 255.842 243.182 c 0
 271.655 315.583 283.629 389.407 285 463.636 c 0
 286.44 539.271 277.194 616.346 244.722 685.455 c 0
 240.195 695.087 235.166 704.472 229.758 713.636 c 0
 226.449 719.243 222.247 724.791 219.93 730.907 c 0
 219.227 732.727 218.281 735.18 218.578 737.214 c 2
 219.253 741.088 l 1
 221.193 744.795 223.384 747.238 227.445 748.636 c 1
EndSplineSet
Fore
SplineSet
11 -237 m 0
 11 -211 174 -134 256 243 c 0
 281 358 285 431 285 478 c 0
 285 658 219 721 219 737 c 0
 219 742 222 750 237 750 c 2
 269 750 l 2
 280 750 290 749 325 703 c 0
 387 622 412 518 412 413 c 0
 412 180 299 -93 90 -239 c 0
 76 -249 71 -250 66 -250 c 2
 32 -250 l 2
 14 -250 11 -243 11 -237 c 0
EndSplineSet
EndChar

StartChar: plus
Encoding: 43 43 5
Width: 855
Flags: HMW
HStem: -116 20 214 72<131.234 436 526 825.196> 616 -20
VStem: 375 211<-79 578>
LayerCount: 2
Back
SplineSet
451.273 286.364 m 1
 451.273 286.363 l 1
 506.158 544.545 l 1
 511.562 570 l 2
 513.445 578.87 514.81 588.182 518.999 596.349 c 0
 521.015 600.265 523.889 603.528 527.021 606.576 c 0
 529.454 608.945 532.401 610.72 535.364 612.273 c 0
 538.318 613.893 541.644 614.805 544.909 615.419 c 0
 548.775 616.146 552.855 616.106 556.727 615.454 c 0
 561.186 614.711 565.568 613.131 569.403 610.72 c 0
 572.279 608.912 575.108 606.762 577.327 604.167 c 0
 579.455 601.618 581.636 598.959 583.06 595.893 c 0
 584.612 592.555 585.899 589.091 586.403 585.455 c 0
 587.633 576.508 585.536 567.727 583.696 559.091 c 2
 578.545 535 l 1
 545.734 380.455 l 1
 525.818 286.364 l 1
 775.818 286.364 l 1
 801.273 286.358 l 2
 809.107 286.32 817.118 286.325 824.451 283.177 c 0
 831.034 280.351 836.271 275.653 840.49 269.935 c 0
 842.636 266.99 844.219 263.49 845.269 260 c 0
 846.546 255.753 846.979 251.232 846.574 246.818 c 0
 846.219 242.935 845.26 238.985 843.545 235.455 c 0
 842.129 232.463 840.364 229.488 838.091 227.022 c 0
 835.537 224.173 832.766 221.364 829.417 219.42 c 0
 826.431 217.646 823.3 216.104 819.909 215.262 c 0
 811.89 213.271 803.545 213.636 795.364 213.636 c 2
 767.182 213.636 l 1
 510.364 213.636 l 1
 509.909 213.182 l 1
 502.059 175 l 1
 489.794 117.273 l 1
 454.716 -47.7272 l 1
 449.308 -73.1818 l 2
 447.483 -81.7027 446.041 -90.545 441.531 -98.1818 c 0
 439.17 -102.12 435.988 -105.345 432.48 -108.307 c 2
 423.996 -113.295 l 2
 421.014 -114.642 417.636 -115.357 414.454 -115.732 c 0
 410.226 -116.223 405.818 -115.909 401.727 -114.79 c 0
 397.73 -113.735 393.818 -112.005 390.455 -109.581 c 0
 387.636 -107.567 384.909 -105.267 382.811 -102.517 c 0
 380.707 -99.7709 378.667 -96.8963 377.431 -93.6363 c 2
 375.001 -84.0909 l 1
 374.213 -75.2809 376.227 -66.8181 378.044 -58.1818 c 2
 383.449 -32.7272 l 1
 435.818 213.636 l 1
 185.364 213.636 l 1
 159.909 213.636 l 2
 152.182 213.636 144.414 213.636 137.182 216.593 c 0
 130.32 219.387 124.858 224.091 120.538 230.097 c 0
 118.403 233.04 116.868 236.53 115.818 240 c 0
 114.565 244.25 114.139 248.769 114.539 253.182 c 0
 114.891 257.067 115.818 261.001 117.521 264.535 c 0
 118.926 267.496 120.602 270.455 122.812 272.907 c 0
 125.231 275.586 127.794 278.182 130.901 280.115 c 0
 134.163 282.109 137.542 283.826 141.273 284.768 c 0
 149.265 286.785 157.636 286.36 165.818 286.364 c 2
 194 286.364 l 1
 451.273 286.364 l 1
451.273 286.364 m 1
 451.273 286.363 l 1
 506.158 544.545 l 1
 511.562 570 l 2
 513.445 578.87 514.81 588.182 518.999 596.349 c 0
 521.015 600.265 523.889 603.528 527.021 606.576 c 0
 529.454 608.945 532.401 610.72 535.364 612.273 c 0
 538.318 613.893 541.644 614.805 544.909 615.419 c 0
 548.775 616.146 552.855 616.106 556.727 615.454 c 0
 561.186 614.711 565.568 613.131 569.403 610.72 c 0
 572.279 608.912 575.108 606.762 577.327 604.167 c 0
 579.455 601.618 581.636 598.959 583.06 595.893 c 0
 584.612 592.555 585.899 589.091 586.403 585.455 c 0
 587.633 576.508 585.536 567.727 583.696 559.091 c 2
 578.545 535 l 1
 545.734 380.455 l 1
 525.818 286.364 l 1
 775.818 286.364 l 1
 801.273 286.358 l 2
 809.107 286.32 817.118 286.325 824.451 283.177 c 0
 831.034 280.351 836.271 275.653 840.49 269.935 c 0
 842.636 266.99 844.219 263.49 845.269 260 c 0
 846.546 255.753 846.979 251.232 846.574 246.818 c 0
 846.219 242.935 845.26 238.985 843.545 235.455 c 0
 842.129 232.463 840.364 229.488 838.091 227.022 c 0
 835.537 224.173 832.766 221.364 829.417 219.42 c 0
 826.431 217.646 823.3 216.104 819.909 215.262 c 0
 811.89 213.271 803.545 213.636 795.364 213.636 c 2
 767.182 213.636 l 1
 510.364 213.636 l 1
 509.909 213.182 l 1
 502.059 175 l 1
 489.794 117.273 l 1
 454.716 -47.7272 l 1
 449.308 -73.1818 l 2
 447.483 -81.7027 446.041 -90.545 441.531 -98.1818 c 0
 439.17 -102.12 435.988 -105.345 432.48 -108.307 c 2
 423.996 -113.295 l 2
 421.014 -114.642 417.636 -115.357 414.454 -115.732 c 0
 410.226 -116.223 405.818 -115.909 401.727 -114.79 c 0
 397.73 -113.735 393.818 -112.005 390.455 -109.581 c 0
 387.636 -107.567 384.909 -105.267 382.811 -102.517 c 0
 380.707 -99.7709 378.667 -96.8963 377.431 -93.6363 c 2
 375.001 -84.0909 l 1
 374.213 -75.2809 376.227 -66.8181 378.044 -58.1818 c 2
 383.449 -32.7272 l 1
 435.818 213.636 l 1
 185.364 213.636 l 1
 159.909 213.636 l 2
 152.182 213.636 144.414 213.636 137.182 216.593 c 0
 130.32 219.387 124.858 224.091 120.538 230.097 c 0
 118.403 233.04 116.868 236.53 115.818 240 c 0
 114.565 244.25 114.139 248.769 114.539 253.182 c 0
 114.891 257.067 115.818 261.001 117.521 264.535 c 0
 118.926 267.496 120.602 270.455 122.812 272.907 c 0
 125.231 275.586 127.794 278.182 130.901 280.115 c 0
 134.163 282.109 137.542 283.826 141.273 284.768 c 0
 149.265 286.785 157.636 286.36 165.818 286.364 c 2
 194 286.364 l 1
 451.273 286.364 l 1
EndSplineSet
Fore
SplineSet
114 250 m 0
 114 284 145 286 166 286 c 2
 451 286 l 1
 512 570 l 2
 517 593 524 616 551 616 c 0
 576 616 586 599 586 578 c 0
 586 572 586 568 584 559 c 2
 526 286 l 1
 806 286 l 2
 840 286 847 262 847 250 c 0
 847 236 841 230 834 223 c 0
 825 214 816 214 795 214 c 2
 510 214 l 1
 449 -73 l 2
 447 -84 442 -116 410 -116 c 0
 382 -116 375 -90 375 -79 c 0
 375 -73 375 -70 378 -58 c 2
 436 214 l 1
 160 214 l 2
 119 214 114 240 114 250 c 0
EndSplineSet
EndChar

StartChar: comma
Encoding: 44 44 6
Width: 305
Flags: HMW
HStem: -105 20 -0 131<115.5 221>
VStem: 91 151<10.5 122.5>
LayerCount: 2
Back
SplineSet
119.727 0 m 1
 119.727 -4.76837e-06 l 1
 111.545 -4.76837e-06 99.9914 -1.67591 93.9232 5.13909 c 0
 88.1073 11.67 91.2478 21.5414 92.8328 29.0909 c 2
 105.1 86.8182 l 1
 110.764 113.178 l 2
 112.444 119.928 114.727 126.509 121.74 129.335 c 0
 127.734 131.776 135.182 130.905 141.545 130.909 c 2
 177.909 130.909 l 1
 219.727 130.898 l 2
 226.091 130.833 233.659 131.113 238.451 126.112 c 0
 243.364 120.909 242.198 113.635 241.019 107.273 c 2
 232.273 65.9091 l 1
 224.643 30 l 2
 223.132 22.9141 222.13 15.2795 219.125 8.63636 c 0
 215.964 1.64999 210.598 -4.15682 205.748 -10 c 2
 184.507 -35.4546 l 1
 148.794 -78.1818 l 1
 137.787 -91.3636 l 1
 128.784 -100.644 l 1
 122.909 -105.125 116.349 -105.37 109.273 -105.455 c 2
 96.0909 -105.455 l 2
 90.7627 -105.455 85.0109 -105.909 79.7273 -104.753 c 0
 74.0641 -103.463 69.0627 -99.7477 68.3636 -93.6364 c 0
 67.7177 -87.2727 71.93 -81.1086 74.9209 -75.9091 c 2
 93.9336 -43.6364 l 1
 119.727 0 l 1
EndSplineSet
Fore
SplineSet
120 -0 m 1
 105.085 0 91 -1.29157 91 14 c 0
 91 18 91 20 93 29 c 2
 107 95 l 2
 113 127 116 131 133 131 c 2
 221 131 l 2
 232 131 242 129 242 116 c 0
 242 112 224 18 219 9 c 0
 214 -2 204 -12 138 -91 c 0
 126 -105 121 -105 109 -105 c 2
 89 -105 l 2
 72 -105 68 -98 68 -92 c 0
 68 -82 80 -69 120 -0 c 1
EndSplineSet
EndChar

StartChar: one
Encoding: 49 49 7
Width: 550
Flags: HMW
HStem: -0 73<104 235 373 477> 716 -20
VStem: 235 265<73 680>
LayerCount: 2
Back
SplineSet
344 586.364 m 1
 344 586.364 l 1
 319.165 579.996 293.686 576.326 268.091 574.919 c 2
 252.636 574.296 l 2
 246.091 574.091 239.428 574.091 233.091 575.996 c 0
 229.443 577.08 225.818 578.636 222.732 580.909 c 0
 219.351 583.38 216.197 586.214 213.794 589.668 c 0
 206.727 599.734 205.246 612.149 209.557 623.634 c 0
 211.022 627.535 213.383 631.16 216.142 634.263 c 0
 220.907 639.622 227.06 643.548 234 645.387 c 0
 241.273 647.273 249.226 646.994 256.727 647.273 c 2
 285.364 649.41 l 2
 324.173 653.873 362.497 665.355 395.818 686.052 c 0
 403.089 690.568 409.909 695.592 416.727 700.853 c 0
 423.389 706.047 429.908 711.659 438.091 714.282 c 0
 444.119 716.214 450.063 715.999 456.273 715.454 c 2
 462.604 716.199 468.736 716.344 474.909 714.417 c 0
 489.207 709.955 499.592 696.785 500.364 681.818 c 0
 500.716 675.378 499.298 668.993 497.999 662.727 c 2
 493.366 640.909 l 1
 477.619 566.818 l 1
 410.763 252.273 l 1
 372.636 72.7273 l 1
 428.091 72.7273 l 2
 439 72.725 450.779 73.6364 460.802 68.4068 c 0
 476.727 60 484.437 41.0814 478.243 24.0909 c 0
 476.629 19.6659 474.084 15.7041 470.96 12.1968 c 0
 467.888 8.74772 464 5.90909 459.896 3.92454 c 0
 449.571 -1.11637 437.426 -2.44379e-06 426.273 -2.44379e-06 c 2
 368.091 -2.44379e-06 l 1
 199 -2.44379e-06 l 1
 151.727 -2.44379e-06 l 2
 141.94 -2.44379e-06 131.442 -0.825002 122.182 2.96591 c 0
 118.03 4.67 114.099 7.14318 110.818 10.2932 c 0
 106.867 14.2168 103.689 18.8182 101.727 24.0909 c 0
 95.3636 41.3382 104 60.9091 120.364 68.8977 c 0
 127.364 72.2727 135.014 72.6286 142.636 72.7109 c 2
 159.909 72.7273 l 1
 234.909 72.7273 l 1
 235.364 73.1818 l 1
 246.648 127.727 l 1
 264.909 213.636 l 1
 317.952 463.182 l 1
 344 586.364 l 1
EndSplineSet
Fore
SplineSet
100 36 m 0
 100 50 108 73 143 73 c 2
 235 73 l 1
 344 586 l 1
 317 580 276 574 251 574 c 0
 212 574 207 599 207 611 c 0
 207 631 224 643 234 645 c 0
 258 652 336 639 417 701 c 0
 430 711 436 716 449 716 c 2
 464 716 l 2
 486 716 500 698 500 680 c 0
 500 674 499 668 498 663 c 2
 373 73 l 1
 437 73 l 2
 477 73 480 45 480 36 c 0
 480 22 472 -0 437 -0 c 2
 143 -0 l 2
 104 0 100 27 100 36 c 0
EndSplineSet
EndChar

StartChar: two
Encoding: 50 50 8
Width: 550
Flags: HW
HStem: -0 108<208 483.371> 616 100<262.9 465.7>
VStem: 462 140<361.5 574.7>
LayerCount: 2
Back
SplineSet
70.6364 76.3636 m 1
 70.6363 76.3636 l 1
 102.909 105 l 1
 146.091 142.553 l 1
 269.273 249.336 l 2
 314.05 287.637 359.635 325.909 397.455 371.364 c 0
 426.759 406.541 450.97 447.199 459.273 492.727 c 0
 463.364 515 463.751 538.624 456.822 560.454 c 0
 453.692 570.318 449.006 579.682 442.417 587.7 c 0
 437 594.243 430.626 599.95 423.363 604.321 c 0
 412.762 610.702 400.601 613.961 388.364 615.19 c 0
 368.153 617.22 347.095 614.091 328.364 606.254 c 0
 321.545 603.407 315.028 599.957 308.818 596.002 c 0
 291.978 585.276 277.572 570.725 265.386 555 c 0
 254.616 541.103 245.514 525.909 237.309 510.455 c 2
 230.182 496.941 l 2
 228.331 493.636 225.95 490.381 222.455 488.625 c 2
 219.16 487.493 l 1
 214.389 487.727 l 1
 210.182 489.795 l 1
 206.521 493.085 203.818 496.69 201.258 500.909 c 2
 174.352 547.273 l 2
 170.853 553.394 167.3 559.207 166.78 566.364 c 0
 166.545 568.636 167.454 571.104 168.319 573.182 c 0
 171.091 580.455 176.335 587.22 180.755 593.636 c 0
 189.634 606.525 199.273 618.892 209.846 630.454 c 0
 230.624 653.182 255.1 672.727 282.454 687.067 c 0
 297.099 694.716 312.454 700.904 328.364 705.455 c 0
 342.318 709.545 356.671 712.41 371.091 714.174 c 0
 431.536 721.571 498.001 711.926 545.176 670.626 c 0
 552.773 663.975 559.702 656.607 565.899 648.636 c 0
 573.536 638.813 580.045 628.12 585.182 616.818 c 0
 594.091 597.628 599.235 576.906 601.251 555.909 c 0
 602.909 537.878 602.369 519.76 599.965 501.818 c 0
 597.909 486.664 594.608 471.749 589.665 457.273 c 0
 574.417 412.616 544.188 374.693 510.181 342.696 c 0
 466.284 301.364 416.091 267.591 367.909 231.66 c 2
 295.636 175.455 l 1
 207.909 106.364 l 1
 272.455 106.818 l 1
 296.545 107.247 l 1
 341.091 107.273 l 1
 373.818 107.721 l 1
 437.909 108.054 l 1
 462.909 108.178 l 2
 471.76 108.143 480.722 108.132 488.796 103.994 c 0
 492 102.273 495.182 100.156 497.818 97.5109 c 0
 500.284 94.9659 502.674 92.2309 504.273 89.0527 c 0
 506.37 85 507.893 80.8777 508.441 76.3636 c 0
 509.727 65.4545 506.204 54.2009 503.956 43.6364 c 0
 501.996 34.4214 500.425 24.9873 495.323 16.8182 c 0
 492.909 13.1505 489.727 10.1923 486.402 7.42818 c 2
 478.813 3.11228 l 2
 468.364 -1.26272 456.21 2.74181e-06 445.182 2.74181e-06 c 2
 386.091 2.74181e-06 l 1
 177 2.74181e-06 l 1
 114.727 2.74181e-06 l 2
 102.455 2.74181e-06 89.5977 -0.894543 78.8182 6.17364 c 0
 76.1959 7.94909 73.5132 10.0864 71.4605 12.5909 c 0
 69.1205 15.4455 66.8836 18.3891 65.4459 21.8182 c 0
 63.9873 25.3132 62.8823 28.9395 62.5727 32.7273 c 0
 61.855 41.5005 64.0705 50.1159 65.8718 58.6364 c 0
 67.6241 66.9241 69.35 75.1282 72 83.1818 c 1
 70.6364 76.3636 l 1
70.6363 75.909 m 1
 70.1818 75.4545 l 1
 70.6363 75.909 l 1
EndSplineSet
Fore
SplineSet
62 36 m 0
 62 44 67 68 70 72 c 0
 74 78 85 89 108 108 c 2
 269 249 l 2
 316 290 462 399 462 524 c 0
 462 563 445 616 376 616 c 0
 289 616 246 528 230 497 c 0
 225 488 222 488 217 488 c 0
 212 488 208 490 202 499 c 2
 172 552 l 2
 168 559 167 562 167 568 c 0
 167 579 243 716 408 716 c 0
 527 716 602 644 602 535 c 0
 602 391 492 324 368 232 c 2
 208 106 l 1
 463 108 l 18
 502 108 509 86 509 72 c 0
 509 61 501 26 495 17 c 0
 484 0 467 -0 459 -0 c 2
 107 -0 l 2
 67 0 62 26 62 36 c 0
EndSplineSet
EndChar

StartChar: three
Encoding: 51 51 9
Width: 550
Flags: HMW
HStem: -22 95<116 390.3> 339 74<326 339> 627 89<320.6 446.7>
VStem: 412 139<225.558 322.4> 456 136<510.5 624.9>
LayerCount: 2
Back
SplineSet
445.909 375.909 m 1
 445.909 375.909 l 1
 465.652 370.24 484.643 362.265 501.363 350.164 c 0
 509.296 344.422 516.667 337.928 522.972 330.416 c 0
 527.566 324.941 531.606 318.987 535 312.727 c 0
 557.667 271.627 552.392 222.503 540.333 179.091 c 2
 532.622 154.545 l 2
 528.281 142.272 523.182 130.271 517.446 118.636 c 0
 510.382 104.464 502.132 90.8861 492.675 78.1815 c 0
 482.727 64.892 471.564 52.6202 459.091 41.7061 c 0
 431.799 17.8252 398.844 1.03973 364.091 -8.94481 c 0
 336.818 -16.8184 308.636 -20.5698 280.455 -21.8307 c 0
 261.664 -22.6703 242.727 -22.4634 224.091 -20.2903 c 0
 193.045 -16.6821 162.479 -7.98436 134.545 6.10655 c 0
 113.636 16.647 94.0909 30.2443 77.2727 46.5093 c 2
 67.0214 57.2725 l 2
 64.2086 60.7806 61.6927 64.522 61.1532 69.0906 c 0
 60.4546 74.9934 63.1818 80.9884 65.3073 86.3634 c 2
 76.2982 114.545 l 1
 84.8836 136.342 l 2
 86.8177 140.761 89.0036 145.591 93.3005 148.182 c 1
 96.5459 149.545 l 1
 101.349 149.722 l 1
 105.312 148.182 l 2
 108.991 145.87 111.97 143.038 115 139.912 c 2
 132.727 122.51 l 2
 142.727 113.636 153.786 106.048 165.455 99.5452 c 0
 175.765 93.8202 186.572 89.0534 197.727 85.2175 c 0
 206.651 82.1493 215.758 79.6265 225 77.7165 c 0
 233.552 75.9088 242.215 74.7147 250.909 73.9079 c 0
 281.555 71.0647 314.212 73.3784 340.909 90.172 c 0
 346.073 93.4202 350.909 97.1465 355.385 101.294 c 0
 383.902 127.727 395 165.909 403.16 202.727 c 0
 407.218 221.136 411.04 239.783 412.191 258.636 c 0
 413.506 280.163 410.662 303.606 394.66 319.512 c 0
 391.27 322.881 387.273 325.71 383.179 328.067 c 0
 365.994 337.839 345.621 338.612 326.364 338.635 c 2
 288.182 338.636 l 2
 281.05 338.636 273.919 338.275 266.972 340 c 1
 262.617 342.473 l 2
 260.771 343.636 259.944 345.741 258.896 347.522 c 1
 257.872 352.272 l 2
 257.466 357.412 259.049 362.727 260.085 367.727 c 2
 265.127 391.362 l 2
 266.895 399.091 268.991 406.73 276.984 410 c 1
 285.909 411.818 l 1
 297.727 412.825 l 2
 311.458 413.858 325.455 414.091 339.091 416.512 c 0
 373.171 422.468 401.135 446.795 420.291 474.545 c 0
 439.091 501.798 450.124 533.636 454.426 566.363 c 0
 456.331 580.853 457.079 597.696 447.488 609.83 c 0
 438.296 621.461 423.609 624.891 409.546 626.156 c 0
 380.195 628.796 350.081 622.273 323.182 610.743 c 0
 301.447 601.363 281.26 588.359 263.636 572.569 c 2
 245.857 555 l 2
 242.06 551.157 238.064 546.363 232.664 544.705 c 2
 229.091 544.091 l 1
 224.411 545.231 l 1
 220.601 547.873 l 1
 217.646 551.188 215.546 554.709 213.505 558.636 c 2
 197.628 590.909 l 2
 194.79 596.713 192.1 602.238 191.027 608.636 c 1
 191.497 613.182 l 2
 191.924 615.81 193.852 618.371 195.397 620.44 c 0
 200.674 627.506 207.898 633.423 214.546 639.091 c 0
 227.813 650.578 241.966 660.909 256.818 670.228 c 0
 293.636 693.182 335.455 708.944 378.636 714.346 c 0
 399.546 716.966 420.788 716.782 441.818 715.454 c 0
 472.961 713.521 505.2 707.87 532.727 692.47 c 0
 542.875 686.794 552.41 679.846 560.575 671.547 c 0
 564.77 667.273 568.579 662.652 571.971 657.726 c 0
 591.818 628.906 594.763 591.99 590.414 558.182 c 2
 586.507 536.364 l 2
 584.237 526.612 581.244 517.018 577.51 507.727 c 0
 573.342 497.358 568.305 487.273 562.526 477.727 c 0
 554.998 465.27 546.2 453.579 536.506 442.727 c 0
 511.179 414.381 479.646 392.977 445.909 375.909 c 1
EndSplineSet
Fore
SplineSet
61 71 m 0xf0
 61 73 62 78 65 86 c 2
 85 136 l 2
 88 144 91 150 99 150 c 0
 117 150 152 73 272 73 c 0
 363 73 389 137 403 203 c 0
 406 218 412 244 412 268 c 0xf0
 412 334 364 339 326 339 c 2
 288 339 l 2
 269 339 258 339 258 354 c 0
 258 359 259 367 265 391 c 0
 272 421 291 408 339 417 c 0
 415 430 456 527 456 582 c 0
 456 615 435 627 396 627 c 0
 338 627 288 595 261 570 c 0
 246 555 238 544 229 544 c 0
 226 544 220 547 217 553 c 2
 195 596 l 2
 192 603 191 607 191 609 c 0
 191 620 205 633 243 661 c 0
 283 691 340 716 414 716 c 0
 543 716 592 664 592 584 c 0xe8
 592 501 544 426 446 376 c 1
 523 354 551 305 551 247 c 0
 551 189 522 97 459 42 c 0
 438 23 380 -22 261 -22 c 0
 137 -22 61 52 61 71 c 0xf0
EndSplineSet
EndChar

StartChar: four
Encoding: 52 52 10
Width: 550
Flags: HMW
HStem: -0 21G<358 394> 153 95<187 337 480 536.074> 694 -20
VStem: 313 254<34 665>
LayerCount: 2
Back
SplineSet
336.818 152.727 m 1
 336.818 152.727 l 1
 149.545 152.727 l 1
 120.454 152.727 l 2
 111.922 152.727 103.182 152.273 94.9998 155 c 0
 91.2266 156.223 87.9621 158.292 84.7412 160.546 c 2
 78.5134 166.619 l 1
 74.0357 173.636 l 2
 72.4662 177.273 71.1862 180.999 70.7775 185 c 0
 69.8271 194.308 72.3662 203.636 74.3766 212.727 c 2
 78.8207 230.455 l 2
 80.3339 236.48 81.6003 242.561 84.348 248.182 c 0
 88.6207 256.923 95.2089 264.545 101.047 272.273 c 2
 128.182 308.182 l 1
 316.818 557.727 l 1
 377.273 637.727 l 1
 396.216 662.727 l 2
 400.909 668.965 405.557 675.455 411.243 680.902 c 0
 416.938 686.328 423.723 690.455 431.363 692.466 c 0
 440.995 694.99 451.5 694.091 461.363 694.091 c 2
 521.363 694.091 l 2
 530.184 694.09 539.091 694.545 547.72 692.152 c 1
 555.689 688.035 l 1
 560.339 683.636 l 1
 563.816 678.58 l 1
 566.364 670.908 l 1
 567.613 662.543 565.909 654.539 564.252 646.364 c 2
 548.182 570.909 l 1
 479.545 247.727 l 1
 515.909 247.725 l 2
 526.094 247.702 536.364 247.727 545.412 242.353 c 0
 548.308 240.617 551.165 238.482 553.403 235.909 c 0
 555.624 233.407 557.727 230.768 559.26 227.708 c 0
 560.991 224.09 562.355 220.366 562.865 216.364 c 0
 563.96 207.727 561.818 199.254 560 190.909 c 0
 558.94 185.704 557.887 180.358 555.734 175.455 c 0
 552.62 168.376 547.466 162.273 540.87 158.27 c 0
 531.101 152.241 519.677 152.727 508.636 152.727 c 2
 460 152.727 l 1
 440 58.1818 l 1
 435.79 38.1818 l 2
 433.812 29.0909 431.623 20.2146 425.406 13.0182 c 2
 418.969 7.11092 l 2
 415.706 4.98501 412.407 3.0641 408.635 1.96773 c 0
 399.828 -0.593174 390.438 7.62939e-06 381.364 7.62939e-06 c 2
 357.727 7.62939e-06 l 2
 350 7.62939e-06 342.202 0.131371 335 3.27001 c 0
 328.493 6.11092 323.32 10.7327 319.181 16.4446 c 0
 317.138 19.2641 315.665 22.595 314.646 25.9091 c 0
 312.006 34.4986 313.432 43.1818 315.168 51.8182 c 2
 318.818 69.0909 l 1
 336.818 152.727 l 1
436.363 591.818 m 1
 425.444 572.056 412.727 553.477 399.834 535 c 2
 359.727 479.091 l 2
 324.091 430.298 288.008 381.818 251.632 333.636 c 2
 212.884 282.273 l 1
 187.273 247.727 l 1
 363.182 247.727 l 1
 400.165 421.818 l 1
 436.363 591.818 l 1
EndSplineSet
Fore
SplineSet
71 189 m 0
 71 201 82 243 84 248 c 0
 89 257 95 265 101 272 c 2
 396 663 l 2
 412 683 420 694 449 694 c 2
 525 694 l 2
 549 694 567 689 567 665 c 0
 567 659 566 653 564 646 c 2
 480 248 l 1
 516 248 l 2
 541 248 563 241 563 211 c 0
 563 201 562 200 560 191 c 0
 553 154 532 153 513 153 c 2
 460 153 l 1
 435 32 438 -0 394 -0 c 2
 358 -0 l 2
 317 0 313 27 313 34 c 0
 313 49 322 77 337 153 c 1
 113 153 l 2
 81 153 71 174 71 189 c 0
187 248 m 1
 363 248 l 1
 436 592 l 1
 400 526 210 280 187 248 c 1
EndSplineSet
EndChar

StartChar: five
Encoding: 53 53 11
Width: 550
Flags: HW
HStem: -22 95<174.1 405.5> 378 73<335.592 392> 594 100<336 573.9>
VStem: 414 136<279.288 384.1>
LayerCount: 2
Back
SplineSet
165.091 106.818 m 1
 165.091 106.818 l 1
 181.909 93.8343 l 2
 189.542 88.6361 197.818 84.4543 206.455 81.2102 c 0
 225.707 73.962 246.455 71.9184 266.909 73.1816 c 0
 292.117 74.8275 317.768 80.9088 338.269 96.3634 c 0
 347.085 103.039 354.732 111.123 361.257 120 c 0
 384.182 151.203 391.659 190.643 399.512 227.727 c 0
 403.408 246.128 407.226 264.545 410.035 283.182 c 0
 412.116 296.965 413.805 311.036 413.593 325 c 0
 413.469 333.182 412.818 341.757 410.091 349.545 c 0
 408.687 353.556 406.757 357.442 404.147 360.814 c 0
 401.763 363.897 399.055 366.818 395.896 369.091 c 2
 387.362 374.226 l 1
 376.909 378.568 366.185 378.789 355.091 377.468 c 0
 346.777 376.478 338.55 374.703 330.546 372.252 c 0
 305.869 364.693 283.907 350.153 265.546 332.151 c 2
 251.427 316.818 l 2
 244.51 308.823 237.711 300.718 227.363 297.209 c 0
 219.943 294.694 211.904 295.132 204.182 295 c 0
 195.689 294.982 187.02 294.545 178.727 296.707 c 0
 175.091 297.627 171.909 299.334 168.812 301.244 c 0
 165.709 303.145 163.152 305.775 160.738 308.457 c 0
 158.551 310.887 156.823 313.862 155.479 316.818 c 0
 150.92 326.818 152.538 337.273 154.637 347.727 c 2
 158.425 365.454 l 1
 180.17 467.727 l 1
 213.604 625 l 1
 219.493 652.727 l 2
 220.838 658.975 221.909 665.454 224.531 671.358 c 0
 227.261 677.59 231.455 682.983 237.03 686.98 c 0
 247.131 694.292 259.095 694.078 271 694.09 c 2
 316.909 694.091 l 1
 503.727 694.091 l 1
 547.818 694.09 l 2
 559.017 694.076 570.291 694.291 580 687.823 c 0
 582.814 685.909 585.546 683.636 587.699 681.032 c 0
 589.87 678.329 591.909 675.454 593.273 672.261 c 0
 594.848 668.464 595.993 664.545 596.259 660.454 c 0
 596.824 651.722 594.463 643.018 592.65 634.545 c 0
 591.377 628.597 590.287 622.439 587.818 616.818 c 0
 584.483 608.911 578.586 602.247 570.984 598.151 c 0
 563.505 594.091 555.212 593.727 546.909 593.636 c 2
 531 593.636 l 1
 452.818 593.636 l 1
 336.909 593.636 l 1
 336.455 593.182 l 1
 323.508 530.909 l 1
 304.182 440.454 l 1
 315.825 444.044 327.574 447.054 339.636 448.87 c 0
 354.182 451.07 368.968 451.563 383.727 451.31 c 0
 407.481 450.902 431.536 447.895 454.182 440.455 c 0
 467.813 436.06 480.973 430 492.818 421.897 c 0
 500.384 416.71 507.364 410.759 513.643 404.003 c 0
 518.162 399.09 522.244 393.772 525.891 388.182 c 0
 551 349.65 552.478 301.058 546.909 256.818 c 2
 543.197 232.273 l 1
 535.934 199.091 l 2
 531.909 183.519 527.094 168.148 521.208 153.182 c 0
 511.377 128.182 498.657 104.245 482.535 82.7273 c 0
 472.513 69.3518 461.267 56.9095 448.726 45.8514 c 0
 438.519 36.8182 427.546 28.6364 416 21.5059 c 0
 367.818 -8.53274 311.207 -20.1623 255.091 -22.0555 c 0
 236.847 -22.6705 218.566 -22.1477 200.545 -19.0909 c 0
 157.01 -11.5532 116.079 9.27999 86.7755 42.7273 c 0
 78.9109 51.7091 71.9091 61.4873 65.9718 71.8182 c 0
 63.0005 76.9555 59.7386 82.4214 58.145 88.1818 c 0
 57.565 90.2791 56.9064 92.8086 57.3309 95 c 2
 58.4505 99.5455 l 1
 61 104.545 64.1818 108.812 67.7964 113.182 c 2
 104.002 156.802 l 1
 107.05 160.373 l 2
 111.909 165.64 118.136 172.959 126.244 170.295 c 0
 135.284 167.273 136.836 155.413 139.717 147.727 c 0
 142.818 139.441 146.825 131.451 151.748 124.091 c 2
 165.091 106.818 l 1
EndSplineSet
Fore
SplineSet
57 95 m 0
 57 98 60 104 65 110 c 2
 106 160 l 2
 112 167 120 171 123 171 c 0
 138 171 136 145 152 124 c 0
 167 105 193 73 256 73 c 0
 371 73 386 164 400 228 c 0
 411 284 414 304 414 323 c 0
 414 370 386 378 366 378 c 0
 348 378 299 372 251 317 c 0
 233 295 223 295 212 295 c 2
 197 295 l 2
 186 295 153 297 153 331 c 0
 153 337 154 342 155 348 c 2
 219 653 l 2
 227 689 240 694 269 694 c 2
 550 694 l 2
 590 694 596 672 596 658 c 0
 596 650 591 624 588 617 c 0
 579 596 562 594 547 594 c 2
 336 594 l 1
 304 440 l 1
 318 445 341 451 377 451 c 0
 491 451 550 397 550 297 c 0
 550 264 542 224 536 199 c 0
 493 29 369 -22 242 -22 c 0
 114 -22 57 74 57 95 c 0
EndSplineSet
EndChar

StartChar: six
Encoding: 54 54 12
Width: 550
Flags: HW
HStem: -22 95<230.9 342.6> 407 73<332.6 432.8> 627 89<403.7 531.1>
VStem: 96 130<89.5 239> 431 134<298.36 389.2>
LayerCount: 2
Back
SplineSet
274.182 420.909 m 2
 274.182 420.909 l 1
 297.364 440.454 l 2
 311.875 451.454 327.716 460.758 344.636 467.496 c 0
 359.312 473.34 374.812 477.273 390.545 478.894 c 0
 399.904 479.825 409.336 479.729 418.727 479.513 c 0
 453.727 478.636 490.074 471.243 516.881 447.21 c 0
 525.185 439.765 532.344 431.163 538.413 421.818 c 0
 547.979 407.089 555.091 390.609 559.594 373.636 c 0
 570.675 331.512 563.727 287.836 555.359 245.909 c 0
 547.72 207.973 539.182 169.545 523.273 134.091 c 0
 502.587 87.9257 468.535 47.8153 426.909 19.0812 c 0
 411.909 8.73755 395.769 0.175276 378.727 -6.24972 c 0
 352.587 -16.1052 324.636 -20.3661 296.909 -21.7161 c 0
 279.354 -22.5688 261.649 -22.7275 244.182 -20.5697 c 0
 206.111 -15.7584 168.494 -0.549725 141.855 27.8098 c 0
 119.507 51.6025 108.009 82.5121 101.797 114.091 c 0
 89.3599 177.273 98.2608 242.863 110.091 305.454 c 0
 126.548 392.466 147.818 481.112 195.716 556.818 c 0
 204.28 570.363 213.554 583.457 223.644 595.909 c 0
 240.527 616.744 259.496 635.788 281 651.818 c 0
 335.655 692.706 403.182 713.568 471 716.134 c 0
 498.62 717.18 526.244 715 551.909 704.022 c 2
 567.253 696.359 l 2
 571.111 693.926 574.729 690.909 576.444 686.612 c 0
 578.522 681.327 577.078 675.345 576 670 c 2
 569.952 641.363 l 1
 565.955 622.727 l 2
 564.945 618.441 563.98 613.779 561.25 610.196 c 2
 558.391 607.273 l 1
 553.153 605.107 l 1
 548.71 605.237 l 1
 542.363 607.143 536.843 610.454 531 613.602 c 2
 524.182 616.818 l 2
 510.906 622.727 496.802 625.454 482.364 626.364 c 0
 464.095 627.531 445.545 625.787 427.818 621.296 c 0
 413.921 617.727 400.47 612.612 387.818 605.868 c 0
 379.359 601.359 371.268 596.164 363.727 590.241 c 0
 343.273 574.197 327.77 553.465 315.184 530.909 c 0
 296 496.544 284.293 458.75 274.182 420.909 c 2
361.454 406.363 m 2
 361.454 406.363 l 2
 327.801 403.636 300.545 380 281.63 353.636 c 0
 256.354 318.365 243.035 276.333 235.231 234.091 c 0
 231.758 215.293 229.143 196.319 227.493 177.273 c 0
 225.277 151.695 223.047 122.813 237.068 99.9999 c 0
 239.324 96.3376 242.078 92.9835 245.065 89.8894 c 0
 248.273 86.5335 252.033 83.6208 256 81.1885 c 0
 260.921 78.1808 266.312 76.0267 271.909 74.6858 c 0
 280.822 72.5503 290.089 72.6017 299.182 73.1817 c 0
 311.261 73.9649 323.37 75.8258 334.636 80.423 c 0
 358.961 90.3499 375.69 111.609 386.256 135 c 0
 393.435 150.891 398.484 167.691 402.818 184.545 c 2
 416 243.182 l 2
 420.091 262.508 424.182 281.818 427.295 301.363 c 2
 429.636 318.182 l 2
 430.783 327.543 431.449 336.934 431.428 346.363 c 0
 431.396 360.454 429.617 374.21 421.74 386.288 c 0
 419.72 389.385 417.091 391.99 414.38 394.469 c 0
 411.788 396.818 408.664 398.724 405.538 400.292 c 0
 400.091 402.997 394.182 404.545 388.273 405.454 c 0
 379.493 406.951 370.314 407.167 361.454 406.363 c 2
EndSplineSet
Fore
SplineSet
96 180 m 0
 96 222 102 264 110 305 c 0
 129.487 409.216 184.6 716 483 716 c 0
 520 716 578 704 578 681 c 0
 578 678 571 642 566 623 c 0
 565 619 563 605 551 605 c 0
 536 605 526 627 472 627 c 0
 340 627 298 510 274 421 c 1
 315 455 350 480 408 480 c 0
 534 480 565 397 565 326 c 0
 565 283 547 187 523 134 c 0
 497 76 445 19 379 -6 c 0
 360 -13 327 -22 275 -22 c 0
 184 -22 96 20 96 180 c 0
226 148 m 0
 226 103 245 73 292 73 c 0
 381 73 395 145 416 243 c 0
 423 276 431 317 431 345 c 0
 431 379 419 407 373 407 c 0
 255 407 226 218 226 148 c 0
EndSplineSet
EndChar

StartChar: seven
Encoding: 55 55 13
Width: 550
Flags: HMW
HStem: -11 20 587 107<207.455 477>
LayerCount: 2
Back
SplineSet
476.727 587.273 m 1
 476.727 587.273 l 1
 418.091 587.251 l 1
 396.727 586.818 l 1
 341.727 586.799 l 1
 319.909 586.364 l 1
 263.545 586.338 l 1
 244 585.909 l 1
 223.091 585.909 l 2
 214.181 585.909 205.241 586.131 197.182 590.454 c 0
 194.1 592.17 191.034 594.3 188.545 596.818 c 0
 185.94 599.758 183.407 602.727 181.721 606.363 c 0
 179.909 610.128 178.658 614.035 178.242 618.182 c 0
 177.13 629.272 180.665 640.608 182.953 651.363 c 0
 184.404 658.182 185.514 665.353 188.25 671.814 c 0
 192.052 680.791 199 688.093 208.091 691.818 c 0
 218.752 696.364 231.273 695 242.636 695 c 2
 303.545 694.999 l 1
 333.545 694.545 l 1
 501.273 694.532 l 1
 523.091 694.091 l 1
 588.545 694.091 l 2
 600.963 694.09 614.301 695.271 625.298 688.39 c 0
 628.091 686.604 630.965 684.423 633.091 681.818 c 0
 635.364 679.185 637.626 676.364 639 673.164 c 0
 640.729 669.387 641.991 665.454 642.361 661.364 c 0
 643.091 652.727 640.818 644.256 639.123 635.909 c 2
 633.091 611.364 l 1
 633.091 614.091 l 1
 627.3 605.853 l 1
 609 587.168 l 1
 587.182 565 l 2
 561.808 538.607 537.532 511.208 514.455 482.727 c 0
 440.905 391.625 380.031 289.501 337.044 180.455 c 0
 319.65 136.33 305.212 91.0773 293.965 45 c 2
 289.455 25.9091 l 2
 288.016 19.5064 286.533 13.0146 283.091 7.27274 c 0
 280.336 2.72729 276.727 -0.83044 272.519 -4.09089 c 1
 264.451 -8.31635 l 2
 257.906 -10.7754 250.897 -10.9091 244 -10.9091 c 2
 222.636 -10.9091 l 1
 195.818 -10.9091 l 2
 185.143 -10.9091 174.602 -10.6923 165.364 -4.4568 c 0
 162.754 -2.63453 160.077 -0.454532 158.043 2.09274 c 0
 155.818 4.82683 153.712 7.64274 152.376 10.9091 c 0
 151.002 14.2805 149.909 17.7241 149.576 21.3636 c 0
 148.749 30.3082 150.992 39.0709 152.97 47.7273 c 0
 161.562 85.3359 172.636 122.387 185.818 158.636 c 0
 227.844 274.038 291.273 381.279 369.909 475.455 c 0
 387.585 496.549 405.909 517.092 425.046 536.818 c 0
 441.823 554.091 459.249 570.7 476.727 587.273 c 1
632.636 610.454 m 1
 633.091 610 l 1
 632.636 610.454 l 1
EndSplineSet
Fore
SplineSet
149 25 m 0
 149 47 175 128 186 159 c 0
 258 357 373 489 477 587 c 1
 223 586 l 18
 183 586 178 610 178 623 c 0
 178 632 186 667 188 672 c 0
 197 693 215 694 230 694 c 2
 593 694 l 2
 608 694 622 692 628 686 c 0
 638 677 643 669 643 658 c 0
 643 599.368 607.561 598.576 514 483 c 0
 319 240 295 28 283 7 c 0
 275 -6 263 -11 244 -11 c 2
 196 -11 l 2
 156 -11 149 11 149 25 c 0
EndSplineSet
EndChar

StartChar: less
Encoding: 60 60 14
Width: 855
Flags: HW
LayerCount: 2
Back
SplineSet
259.091 245.909 m 1
 259.091 245.909 l 1
 282.963 232.815 306.125 218.344 329.546 204.461 c 2
 458.636 127.861 l 1
 591.818 48.8272 l 1
 690.455 -9.71011 l 1
 718.636 -26.4337 l 2
 725.894 -30.7547 733.529 -35.0001 739.281 -41.2551 c 0
 749.343 -52.2992 751.818 -69.001 744.545 -82.2728 c 0
 741.783 -87.3769 737.814 -91.6301 733.09 -95.036 c 0
 729.545 -97.5515 725.455 -99.3219 721.364 -100.36 c 0
 717.075 -101.43 712.561 -101.666 708.182 -101.079 c 0
 700 -100 692.904 -95.9092 685.909 -91.8306 c 2
 663.636 -78.6428 l 1
 579.091 -28.4678 l 1
 280.909 148.472 l 1
 177.273 209.981 l 2
 170.553 213.979 163.409 217.727 157.63 223.104 c 0
 149.374 230.732 144.625 241.364 145.455 252.727 c 2
 147.265 261.362 l 2
 148.794 265.372 150.684 269.178 153.465 272.489 c 0
 162.214 282.907 175.747 287.722 187.727 293.397 c 2
 316.364 354.354 l 1
 699.091 535.718 l 1
 800.909 583.971 l 1
 822.273 594.079 l 2
 831.241 598.182 840.324 602.229 850.454 601.217 c 0
 863.327 599.931 874.828 591.364 880 579.539 c 0
 883.339 571.951 883.775 562.911 881.344 555 c 0
 878.874 546.964 873.52 540.343 866.74 535.455 c 0
 859.334 530.18 850.455 526.731 842.273 522.847 c 2
 801.818 503.636 l 1
 675 443.588 l 1
 507.727 364.306 l 1
 347.273 288.278 l 1
 294.545 263.301 l 1
 259.091 246.818 l 1
 259.091 245.909 l 1
EndSplineSet
Fore
SplineSet
145 250 m 0
 145 278 175 287 188 293 c 2
 822 594 l 2
 830 598 838 601 847 601 c 0
 865 601 883 587 883 565 c 0
 883 540 860 531 842 523 c 2
 258 246 l 1
 262 244 262 244 330 204 c 2
 719 -26 l 2
 730 -33 749 -42 749 -66 c 0
 749 -86 731 -101 713 -101 c 0
 702 -101 694 -97 686 -92 c 2
 177 210 l 2
 164 218 145 228 145 250 c 0
EndSplineSet
EndChar

StartChar: equal
Encoding: 61 61 15
Width: 855
Flags: HW
HStem: 99 72<102.615 814> 329 72<133.6 862>
LayerCount: 2
Back
SplineSet
170.364 400.769 m 1
 170.364 400.769 l 1
 178.091 401.818 186.187 401.364 194 401.364 c 2
 233.091 401.364 l 1
 354.455 401.364 l 1
 726.727 401.364 l 1
 805.818 401.364 l 1
 826.727 401.353 l 2
 833.639 401.298 840.639 401.189 847.18 398.636 c 0
 865.986 391.364 875.904 369.532 867.749 350.909 c 0
 865.747 346.343 862.722 342.22 859.087 338.813 c 0
 853.976 334.023 847.636 330.879 840.818 329.545 c 0
 835.449 328.529 829.897 328.636 824.455 328.636 c 2
 808.091 328.636 l 1
 692.182 328.636 l 1
 322.182 328.636 l 1
 214.455 328.636 l 1
 185.364 328.636 l 2
 177.428 328.636 169.253 328.466 161.727 331.364 c 0
 157.177 333.154 152.955 335.825 149.455 339.251 c 0
 146.057 342.596 143.216 346.517 141.273 350.909 c 0
 134.436 366.944 140.511 385.63 154.909 395.157 c 0
 159.621 398.182 164.881 399.992 170.364 400.769 c 1
121.273 170.739 m 1
 121.273 170.739 l 1
 129 171.818 137.099 171.363 144.909 171.364 c 2
 184 171.364 l 1
 305.364 171.364 l 1
 678.091 171.364 l 1
 757.182 171.364 l 1
 777.636 171.353 l 2
 784.704 171.3 791.862 171.194 798.542 168.588 c 0
 813.642 162.698 823.042 147.441 821.603 131.364 c 0
 821.251 127.429 820.113 123.595 818.481 120 c 0
 816.576 115.827 813.718 112.035 810.364 108.891 c 0
 805.303 104.091 799 100.909 792.182 99.5455 c 0
 786.815 98.5491 781.263 98.6364 775.818 98.6364 c 2
 759.454 98.6364 l 1
 643.545 98.6364 l 1
 273.545 98.6364 l 1
 165.818 98.6364 l 1
 136.273 98.6364 l 2
 128.493 98.6364 120.478 98.4796 113.091 101.306 c 0
 108.674 102.997 104.59 105.548 101.15 108.802 c 0
 97.3709 112.377 94.2841 116.577 92.1818 121.364 c 0
 90.8182 124.495 89.9091 127.962 89.6623 131.364 c 0
 89.2964 135.909 89.5873 140.544 90.9286 145 c 0
 95.0614 158.729 107.182 168.636 121.273 170.739 c 1
EndSplineSet
Fore
SplineSet
89 135 m 0
 89 156 107 171 121 171 c 2
 778 171 l 2
 818 171 822 144 822 135 c 0
 822 121 814 99 778 99 c 2
 134 99 l 2
 94 99 89 124 89 135 c 0
138 365 m 0
 138 378 145 401 183 401 c 2
 827 401 l 2
 867 401 871 374 871 365 c 0
 871 351 862 329 827 329 c 2
 183 329 l 2
 143 329 138 355 138 365 c 0
EndSplineSet
EndChar

StartChar: greater
Encoding: 62 62 16
Width: 855
Flags: HW
LayerCount: 2
Back
SplineSet
701.545 254.091 m 1
 701.546 254.091 l 1
 672 271.211 l 1
 630.636 295.757 l 1
 502 372.095 l 1
 368.818 451.127 l 1
 270.636 509.381 l 1
 242 526.364 l 2
 234.727 530.725 227.09 534.941 221.313 541.251 c 0
 211.043 552.471 208.615 569.337 216.225 582.701 c 0
 219.038 587.641 222.909 591.737 227.536 595 c 0
 231.029 597.568 235.104 599.353 239.273 600.389 c 0
 243.565 601.455 248.076 601.659 252.455 601.057 c 0
 260.773 599.913 268.046 595.686 275.182 591.525 c 2
 297 578.586 l 1
 382 528.147 l 1
 679.727 351.469 l 1
 783.364 289.966 l 2
 794.399 283.407 805.346 277.149 811.545 265.446 c 0
 813.177 262.475 814.003 259.181 814.674 255.909 c 2
 815.067 247.273 l 1
 813.288 238.636 l 2
 811.94 235.13 810.364 231.696 807.988 228.744 c 0
 799.022 217.605 785.482 212.607 772.909 206.651 c 2
 643.818 145.455 l 1
 262 -35.4591 l 1
 160.182 -83.7082 l 1
 138.364 -94.0909 l 2
 129.408 -98.2177 120.304 -102.204 110.182 -101.233 c 0
 89.4477 -99.2459 73.9777 -78.6364 78.3636 -58.1818 c 0
 80.3841 -48.8 86.0909 -40.9823 93.8182 -35.4545 c 0
 101.295 -30.1359 110.164 -26.6841 118.364 -22.7991 c 2
 158.818 -3.63636 l 1
 285.636 56.4595 l 1
 452.909 135.718 l 1
 613.818 211.985 l 1
 665.636 236.531 l 1
 701.545 253.182 l 1
 701.545 254.091 l 1
EndSplineSet
Fore
SplineSet
78 -65 m 0
 78 -40 101 -31 118 -23 c 2
 702 254 l 1
 242 526 l 2
 234 531 212 542 212 566 c 0
 212 586 230 601 248 601 c 0
 259 601 267 596 275 592 c 2
 783 290 l 2
 808 275 815 265 815 249 c 0
 815 224 789 214 773 207 c 2
 138 -94 l 2
 130 -98 122 -101 113 -101 c 0
 94 -101 78 -84 78 -65 c 0
EndSplineSet
EndChar

StartChar: question
Encoding: 63 63 17
Width: 519
Flags: HMW
HStem: 0 131<210.5 288 244 272> 660 73<280.4 455>
LayerCount: 2
Back
SplineSet
384.182 732.93 m 1
 384.182 732.93 l 1
 397.953 733.493 411.778 733.182 425.545 732.716 c 0
 464.569 731.26 506.085 726.018 539.182 703.579 c 0
 547.115 698.182 554.416 691.818 560.545 684.525 c 0
 585.091 655.174 586.909 613.767 580.341 577.727 c 2
 575.921 558.636 l 2
 573.52 549.986 570.625 541.463 567.153 533.182 c 0
 563.207 523.771 558.567 514.546 553.219 505.909 c 0
 543.383 489.919 531 475.449 516.454 463.583 c 2
 493.273 447.273 l 1
 472.818 432.7 l 2
 446.73 412.826 422.916 389.654 402.912 363.636 c 0
 380.091 334.041 362.177 300.344 352.782 264.091 c 2
 343.119 220 l 2
 341.635 213.113 340.658 204.546 335.028 199.641 c 0
 328.827 194.233 319.079 195.455 311.455 195.455 c 2
 271.455 195.455 l 1
 258.273 195.455 l 1
 249.182 195.995 l 1
 243.625 197.727 l 1
 241.909 198.963 239.89 200 238.909 201.964 c 2
 236.909 206.47 l 1
 236.095 214.01 238.148 221.283 239.636 228.636 c 2
 249.442 272.727 l 2
 253.537 288.386 258.727 303.636 264.98 318.636 c 0
 290.987 381.185 333.724 435.309 381.455 482.714 c 2
 400.545 500.909 l 2
 408.225 508.087 415.985 515.104 422.132 523.636 c 0
 436.173 543.136 441.548 567.273 446 590.455 c 0
 447.818 599.735 449.538 609.091 449.819 618.636 c 0
 449.995 624.54 449.636 630.745 447.697 636.357 c 2
 444.617 642.613 l 1
 442.364 645.455 440.221 648.276 437.213 650.363 c 0
 425.545 658.41 411.097 659.643 397.364 660.226 c 0
 351.226 662.185 306.11 646.576 269.182 619.208 c 2
 251 604.176 l 1
 238.727 592.609 l 2
 234.168 588.636 228.525 584.426 222.181 586.575 c 0
 213.727 589.433 212.713 599.796 211.455 607.273 c 2
 204.505 653.636 l 2
 203.727 658.636 203.159 663.49 203.629 668.58 c 1
 205.297 673.314 l 1
 209.3 678.182 l 2
 213.676 682.273 219.423 685 224.636 687.841 c 2
 253.273 701.806 l 2
 294.59 719.929 339.035 731.084 384.182 732.93 c 1
230.545 130.313 m 2
 230.546 130.313 l 1
 244.182 130.904 l 1
 261 130.909 l 1
 283.727 130.904 l 2
 290.425 130.871 297.279 130.909 303.726 128.868 c 0
 311.166 126.475 317.602 121.659 322.201 115.355 c 2
 326 108.632 l 2
 327.27 105.382 328.273 102.125 328.638 98.6363 c 0
 329.411 89.5299 327.181 80.6654 325.31 71.8181 c 2
 319.802 45.909 l 2
 317.818 36.8181 316.455 27.3617 312.036 19.0908 c 0
 309.963 15.269 307.065 12.0831 303.887 9.09084 c 0
 301.444 6.81811 298.49 5.19993 295.535 3.63629 c 0
 292.364 2.14902 288.95 1.27811 285.545 0.726291 c 2
 271.909 -7.28816e-05 l 1
 255.091 -7.28816e-05 l 1
 231.909 -7.28816e-05 l 2
 225.378 -7.28816e-05 218.688 -0.0773456 212.364 1.8022 c 0
 204.182 4.21493 197.224 9.45947 192.454 16.4445 c 2
 188.871 23.1817 l 2
 187.688 26.5972 186.704 29.9999 186.454 33.6363 c 0
 186 42.4036 188.263 51.0331 190.064 59.5454 c 2
 196.442 89.5454 l 2
 197.949 96.589 199.18 103.969 202.51 110.433 c 0
 208.111 121.302 218.48 128.594 230.545 130.313 c 2
EndSplineSet
Fore
SplineSet
186 36 m 0
 186 39 186 43 187 48 c 2
 199 98 l 2
 206 128 225 131 244 131 c 2
 288 131 l 2
 320 131 329 109 329 94 c 0
 329 90 328 85 327 80 c 2
 318 38 l 2
 311 4 293 0 272 0 c 2
 231 0 l 2
 190 0 186 27 186 36 c 0
203 667 m 0
 203 673 212 682 220 686 c 0
 249 701 308 733 400 733 c 0
 469 733 584 726 584 612 c 0
 584 560 562 501 516 464 c 0
 504 454 385 388 353 264 c 0
 340 214 346 195 319 195 c 2
 258 195 l 2
 246 195 237 198 237 209 c 0
 237 211 245 271 265 319 c 0
 312 433 402 496 422 524 c 0
 440 548 450 594 450 620 c 0
 450 644 440 660 390 660 c 0
 299 660 240 594 239 593 c 0
 234 589 231 586 224 586 c 0
 217 586 213 595 212 605 c 2
 205 649 l 2
 204 656 203 664 203 667 c 0
EndSplineSet
EndChar

StartChar: C
Encoding: 67 67 18
Width: 703
Flags: HW
HStem: -22 100<326.3 542.5> 616 100<372 707.4>
VStem: 121 143<70.8 304.934>
LayerCount: 2
Back
SplineSet
557.818 716.137 m 1
 557.818 716.137 l 1
 611.311 717.831 665.307 713.636 716.909 698.936 c 2
 751.455 687.681 l 2
 757.52 685.454 764.483 683.518 769.634 679.492 c 2
 773.273 675.775 l 1
 775.531 670.374 l 1
 775.874 663.268 773.078 656.988 770.545 650.455 c 2
 742.452 578.182 l 1
 734.935 560.141 l 2
 733.044 556.732 730.43 553.453 726.666 552.043 c 0
 718.507 548.985 711.428 556.36 706 561.357 c 0
 692.578 573.714 678.954 585.292 662.818 594.012 c 0
 637.566 607.659 609.444 613.478 581 615.234 c 0
 562.045 616.364 543.054 615.878 524.182 613.755 c 0
 499.002 610.909 474.081 605 450.545 595.598 c 0
 434.262 589.056 418.65 580.826 404.182 570.882 c 0
 394.016 563.895 384.483 556.013 375.545 547.487 c 0
 313.986 488.549 286.834 404.062 272.02 322.273 c 0
 265.199 284.545 260.979 245.387 266.592 207.273 c 0
 269.93 184.545 276.862 162.101 289.345 142.727 c 0
 293.613 136.103 298.549 129.934 304.055 124.297 c 0
 338.144 89.405 389.436 79.0909 436.454 78.1818 c 2
 460.545 78.455 l 1
 493.273 80.3863 l 2
 514.343 82.4154 535.091 86.4704 555.091 93.5009 c 0
 582.596 103.171 608.034 117.628 632.818 132.727 c 2
 637.364 135.594 l 2
 644.505 139.88 654.509 146.772 662.189 139.545 c 0
 666.537 135.57 666.63 129.545 666.248 124.09 c 2
 662.447 92.2727 l 1
 658.369 59.0909 l 2
 657.581 52.7272 657.349 45.4545 653.727 39.9836 c 0
 650.928 35.5609 646.395 32.895 641.886 30.4245 c 2
 626.455 22.7272 l 2
 603.56 11.7036 580.286 1.34041 556 -6.26732 c 0
 516.41 -18.6696 475.035 -22.181 433.727 -22.2728 c 2
 394.182 -21.5896 l 1
 361 -19.091 l 2
 294.599 -11.9587 225.258 8.88313 178.843 59.5454 c 0
 168.833 70.4545 160.086 82.6045 152.705 95.4545 c 0
 127.903 138.634 120.755 188.636 121 237.727 c 0
 121.216 277.59 127.364 317.517 135.993 356.364 c 0
 151.259 425.199 176.146 492.889 216.861 550.909 c 0
 232.768 573.577 250.95 594.668 271.455 613.3 c 0
 287.645 628.012 305.174 641.205 323.727 652.727 c 0
 393.727 696.521 476.186 713.552 557.818 716.137 c 1
EndSplineSet
Fore
SplineSet
121 235 m 0
 121 306 145 448 217 551 c 0
 295 664 420 716 580 716 c 0
 678 716 776 688 776 670 c 0
 776 668 775 662 772 655 c 2
 738 567 l 2
 734 556 727 551 723 551 c 0
 703 551 681 616 562 616 c 0
 330 616 286 401 272 322 c 0
 267 297 264 271 264 245 c 0
 264 111 353 78 442 78 c 0
 591 78 624 142 656 142 c 0
 664 142 667 135 666 127 c 2
 658 59 l 2
 656 44 657 39 642 30 c 0
 562 -10 517 -22 432 -22 c 0
 262 -22 121 30 121 235 c 0
EndSplineSet
EndChar

StartChar: D
Encoding: 68 68 19
Width: 794
Flags: HW
HStem: -0 86<250 484.1> 608 86<361 579>
VStem: 680 139<395.488 648>
LayerCount: 2
Back
SplineSet
263.091 693.466 m 1
 263.091 693.466 l 1
 269.455 694.412 276.16 694.089 282.636 694.091 c 2
 312.182 694.091 l 1
 404.909 694.091 l 1
 488.545 694.091 l 2
 517.157 694.091 545.818 694.817 574.455 693.266 c 0
 619 690.845 664.304 683.047 704.909 663.769 c 0
 716.353 658.336 727.368 651.933 737.636 644.507 c 0
 747.636 637.273 756.97 629.085 765.305 619.975 c 0
 771.898 612.727 777.9 605 783.216 596.818 c 0
 818.091 543.006 822.341 475.809 816.229 413.636 c 2
 812.337 382.727 l 2
 809.661 365 806.235 347.446 802.182 330 c 0
 783.545 248.059 749.715 167.369 689.854 106.818 c 0
 679.455 96.3286 668.423 86.485 656.727 77.4491 c 0
 636.506 61.8182 614.455 48.7454 591.273 38.055 c 0
 555.765 21.6913 517.615 11.4504 479 5.76816 c 0
 456.121 2.40135 433.021 0.685891 409.909 0.117255 c 2
 349.455 -1.81794e-05 l 1
 198.091 -1.81794e-05 l 1
 153.091 -1.81794e-05 l 2
 141.727 -1.81794e-05 129.909 -0.909109 119.455 4.09089 c 0
 115.543 5.98862 112.296 8.76998 109.207 11.7763 c 0
 106.932 13.9909 105.068 16.7904 103.545 19.5454 c 0
 95.5823 34.2473 101.273 51.1632 104.455 66.3636 c 2
 124.897 162.273 l 1
 207.03 548.636 l 1
 229.445 654.091 l 2
 230.799 660.368 231.965 666.899 234.791 672.72 c 0
 240.254 683.975 250.745 691.65 263.091 693.466 c 1
249.909 86.3636 m 1
 249.909 86.3637 l 1
 349.909 86.3637 l 2
 375.364 86.3637 400.818 86.0514 426.273 88.5573 c 0
 474.353 93.3005 522.081 107.242 560.818 137.043 c 0
 569.682 143.861 577.91 151.457 585.617 159.546 c 0
 631.708 207.979 650.815 273.971 664.455 337.727 c 0
 671.273 369.348 677.561 401.301 679.567 433.636 c 0
 682.171 475.607 677.182 521.051 649.309 554.531 c 0
 644.195 560.663 638.444 566.22 632.178 571.166 c 0
 615.805 584.091 596.273 592.467 576.273 597.91 c 0
 543.181 606.905 508.971 607.727 474.909 607.727 c 2
 360.818 607.727 l 1
 332.746 475.909 l 1
 249.909 86.3636 l 1
EndSplineSet
Fore
SplineSet
99 37 m 0
 99 47 102 57 104 66 c 2
 229 654 l 2
 235 681 244 694 275 694 c 2
 530 694 l 2
 683 694 819 652 819 459 c 0
 819 366 786 204 690 107 c 0
 592 7 461 -0 384 -0 c 2
 144 -0 l 2
 105 0 99 24 99 37 c 0
250 86 m 1
 350 86 l 2
 494 86 614 101 664 338 c 0
 670 365 680 410 680 453 c 0
 680 603 555 608 475 608 c 2
 361 608 l 1
 250 86 l 1
EndSplineSet
EndChar

StartChar: E
Encoding: 69 69 20
Width: 642
Flags: HMW
HStem: 0 111<280.898 584.688> 310 95<321 598.287> 587 104<359 694.459>
VStem: 100 259<36 590>
LayerCount: 2
Back
SplineSet
257.182 106.818 m 1
 257.182 106.818 l 1
 289.455 107.273 l 1
 360.818 108.182 l 1
 471.273 109.545 l 1
 500.818 110 l 1
 524.909 110.415 l 1
 556.273 110.757 l 2
 568.876 111.08 582.467 111.963 593.472 104.703 c 0
 596.273 102.829 599.094 100.554 601.236 97.8909 c 0
 603.529 95 605.682 92.0514 607.059 88.6295 c 0
 608.526 84.9814 609.579 81.215 609.836 77.2727 c 0
 610.444 67.9309 607.768 58.6073 605.818 49.5454 c 0
 604.18 41.695 602.961 33.4995 600.298 25.9091 c 0
 599 22.2727 597.391 18.6363 595.056 15.575 c 0
 592.983 12.8323 590.686 10.1368 587.898 8.08589 c 0
 584.451 5.55089 580.818 3.39453 576.726 2.11044 c 0
 566.879 -0.909108 556.002 -1.7345e-05 545.818 -1.7345e-05 c 2
 503.546 -1.7345e-05 l 1
 209.909 -1.7345e-05 l 1
 151.727 -1.7345e-05 l 2
 142.956 -1.7345e-05 133.903 -0.549563 125.364 1.80226 c 0
 121.614 2.83544 118.245 4.66589 115.005 6.76998 c 0
 111.922 8.77135 109.412 11.4995 107.049 14.2713 c 0
 104.909 16.7445 103.306 19.7473 102.055 22.7273 c 0
 97.6365 33.4295 99.9092 44.5454 102.182 55.4545 c 2
 110.599 95 l 1
 147.513 268.636 l 1
 211.562 570 l 1
 227.32 644.091 l 2
 230.293 658.076 232.301 672.727 243.863 682.523 c 0
 248.24 686.23 253.424 688.795 259 690.106 c 0
 266.653 691.905 274.835 691.361 282.636 691.364 c 2
 350.364 691.364 l 1
 598.091 691.364 l 1
 663.546 691.364 l 2
 675.491 691.363 688.546 692.648 699.433 686.605 c 0
 702.544 684.869 705.6 682.67 708.007 680 c 0
 710.535 677.247 712.955 674.323 714.57 670.897 c 0
 716.065 667.725 717.305 664.408 717.777 660.909 c 0
 719.245 650 716.205 639.215 713.944 628.636 c 0
 712.577 622.245 711.47 615.566 708.825 609.545 c 0
 705.711 602.467 700.556 596.364 693.96 592.36 c 0
 683.754 586.062 671.443 586.695 659.909 586.818 c 2
 607.182 587.6 l 1
 576.273 587.727 l 1
 514.455 588.625 l 1
 359.909 590 l 1
 359.455 589.546 l 1
 349.909 543.636 l 1
 331.273 455.909 l 1
 320.818 405.455 l 1
 549 405.455 l 1
 576.727 405.454 l 2
 585.897 405.449 595.255 405.907 603.995 402.682 c 0
 607.925 401.232 611.273 398.878 614.573 396.263 c 0
 617.182 394.091 619.35 391.333 621.273 388.546 c 0
 623.091 385.991 624.445 382.965 625.364 379.998 c 0
 628.33 370.909 626.688 361.797 624.826 352.727 c 0
 623.417 345.869 622.182 338.636 619.207 332.273 c 0
 614.213 321.642 604.624 313.865 593.091 311.483 c 0
 588.023 310.436 582.786 310.455 577.636 310.455 c 2
 558.545 310.455 l 1
 496.273 310.455 l 1
 300.364 310.455 l 1
 257.182 106.818 l 1
EndSplineSet
Fore
SplineSet
100 36 m 0
 100 43 101 49 102 55 c 2
 227 644 l 2
 233 670 237 691 274 691 c 2
 669 691 l 2
 690 691 718 687 718 655 c 0
 718 644 711 614 709 610 c 0
 700 589 682 587 667 587 c 2
 359 590 l 1
 321 405 l 1
 577 405 l 6
 586 405 595 406 604 403 c 4
 623 395 627 380 627 368 c 4
 627 363 624 336 613 323 c 4
 604 313 593 310 578 310 c 6
 300 310 l 1
 257 107 l 1
 358 108 559 111 567 111 c 0
 601 111 610 89 610 76 c 0
 610 67 603 26 595 16 c 0
 587 4 576 -0 558 -0 c 2
 143 -0 l 2
 104 0 100 25 100 36 c 0
EndSplineSet
EndChar

StartChar: F
Encoding: 70 70 21
Width: 611
Flags: HMW
HStem: -0 21G<144 198> 298 95<318 566.125> 587 104<286.485 681.211>
VStem: 99 260<37 590>
LayerCount: 2
Back
SplineSet
297.636 298.182 m 1
 297.636 298.182 l 1
 283.394 230.454 l 1
 256.824 105.454 l 1
 244.909 49.5452 l 2
 242.636 38.8202 241.366 26.7406 235.335 17.2725 c 0
 230.314 9.50109 222.563 3.78336 213.545 1.45927 c 0
 208.504 0.160182 203.264 0.0797277 198.091 -0.000272304 c 2
 182.636 -0.000272304 l 1
 150.364 -0.000272304 l 2
 141.054 -0.000272304 131.529 -0.454818 122.636 2.71745 c 0
 118.843 4.09064 115.607 6.32655 112.422 8.74745 c 2
 106.388 15.132 l 1
 102.446 21.8179 l 2
 100.988 25.4543 99.8326 29.1961 99.5308 33.1815 c 0
 98.7454 43.5484 101.893 54.0356 104 64.0906 c 2
 126.158 168.182 l 1
 205.769 542.727 l 1
 225.964 637.727 l 2
 229.233 653.052 230.682 670.715 243.043 681.809 c 0
 247.948 686.212 253.912 689.091 260.364 690.392 c 0
 266.273 691.572 272.509 691.35 278.545 691.362 c 2
 301.273 691.363 l 1
 440.818 691.363 l 1
 629.454 691.363 l 1
 653.091 691.363 l 2
 663.771 691.355 674.245 691.661 683.978 686.604 c 0
 687.385 684.834 690.211 682.271 692.939 679.622 c 2
 698.395 672.25 l 2
 704.901 660.739 702.589 648.164 700.029 635.909 c 0
 697.999 626.194 696.613 615.759 692.074 606.818 c 0
 690.171 603.089 687.474 599.945 684.54 596.984 c 0
 682.021 594.444 678.933 592.547 675.806 590.868 c 0
 672.735 589.218 669.231 588.265 665.818 587.655 c 2
 651.273 586.818 l 1
 627.182 587.26 l 1
 553.545 588.054 l 1
 484 588.636 l 1
 359.909 590 l 1
 359.455 589.545 l 1
 346.273 526.364 l 1
 318.091 393.182 l 1
 521.727 393.182 l 1
 548.545 393.176 l 2
 556.213 393.141 564 393.176 571.269 390.254 c 0
 577.636 387.665 582.743 383.385 587.026 378.041 c 0
 589 375.538 590.55 372.521 591.703 369.542 c 0
 595.364 359.975 593.782 350.183 591.727 340.455 c 0
 590.344 333.604 589.157 326.364 586.156 320 c 0
 581.211 309.502 571.727 301.713 560.364 299.277 c 0
 555.446 298.182 550.364 298.182 545.364 298.182 c 2
 528.545 298.182 l 1
 473.545 298.182 l 1
 297.636 298.182 l 1
EndSplineSet
Fore
SplineSet
99 37 m 0
 99 46 102 55 104 64 c 2
 226 638 l 2
 231 662 232 691 274 691 c 2
 658 691 l 2
 696 691 703 670 703 655 c 0
 703 647 697 617 692 607 c 0
 682 589 669 587 647 587 c 0
 619 587 590 588 359 590 c 1
 318 393 l 1
 549 393 l 2
 588 393 594 371 594 356 c 0
 594 343 587 318 582 312 c 0
 572 301 562 298 545 298 c 2
 298 298 l 1
 245 50 l 2
 239 21 234 0 198 -0 c 2
 144 -0 l 2
 104 0 99 26 99 37 c 0
EndSplineSet
EndChar

StartChar: G
Encoding: 71 71 22
Width: 733
Flags: HW
HStem: -22 100<257.1 507.039> 228 95<494.225 571> 616 100<390.7 662.4>
VStem: 121 143<131.9 302.599>
LayerCount: 2
Back
SplineSet
571 228.182 m 1
 571 228.182 l 1
 511.455 228.182 l 1
 496.455 228.284 l 2
 492.587 228.463 488.493 228.856 485.091 231.002 c 0
 478.085 235.455 478.665 243.636 479.95 250.909 c 2
 483.727 269.091 l 1
 490.329 300 l 2
 491.909 307.273 493.166 316.09 500.091 320.403 c 0
 505.255 323.617 511.987 323.144 517.818 323.177 c 2
 549.636 323.182 l 1
 673.273 323.182 l 1
 696 323.181 l 1
 709.621 322.908 l 2
 715.78 322.207 721.436 319.738 723.539 313.441 c 0
 725.078 308.832 723.945 303.713 723.071 299.091 c 2
 718.369 276.818 l 1
 700.012 190.455 l 1
 675.958 77.2728 l 1
 669.864 48.6364 l 2
 668.517 42.4855 667.363 35.7937 662.951 31.0023 c 0
 659.498 27.2655 654.636 25.2605 650.084 23.3119 c 2
 632.363 16.3637 l 2
 607.287 7.02231 581.616 -0.803596 555.545 -6.85451 c 0
 505.091 -18.5568 453.639 -23.7209 401.909 -21.8877 c 0
 377.364 -21.0186 352.818 -18.8486 328.727 -14.5454 c 0
 283.496 -6.3636 238.829 9.17049 202.364 37.8741 c 0
 191.436 46.4759 181.419 56.1091 172.54 66.8182 c 0
 165.681 75.0928 159.489 83.9332 154.016 93.1819 c 0
 118.104 153.871 116.454 228.743 125.399 296.818 c 2
 131.409 334.091 l 2
 134.636 351.344 138.567 368.481 143.079 385.455 c 0
 164.853 467.356 202.293 547.218 264.182 606.553 c 0
 283.155 624.719 304.069 640.779 326.454 654.489 c 0
 400.361 699.751 488.45 716.277 574.182 716.363 c 0
 596.454 716.364 618.828 715.64 641 712.985 c 0
 669.182 709.545 697.025 703.182 723.727 693.441 c 0
 739.105 687.727 754.134 681.159 768.726 673.715 c 0
 775.028 670.454 783.097 667.134 786.564 660.539 c 0
 788.96 655.909 788.098 651.072 786.699 646.363 c 2
 780.735 630.454 l 1
 755.811 566.364 l 1
 749.343 550 l 2
 747.616 546.154 745.632 542.064 742.084 539.522 c 2
 738.931 537.842 l 1
 733.273 537.372 l 1
 728.978 538.974 l 1
 723.546 542.871 719.471 547.727 715.031 552.727 c 0
 704.636 564.358 693.273 575.129 680.545 584.091 c 0
 668.009 592.894 654.141 599.791 639.636 604.68 c 0
 618.109 611.936 595.435 614.755 572.818 615.647 c 0
 516.388 617.874 457.979 605.455 410.091 574.814 c 0
 399.792 568.182 390.086 560.728 381 552.537 c 0
 373.185 545.455 365.851 537.93 358.932 530 c 0
 314.636 479.313 291.682 414.355 277.499 349.545 c 0
 271.859 323.77 267.265 297.688 265.195 271.364 c 2
 264.182 245.455 l 2
 264.13 207.021 270.753 166.285 294.745 135 c 0
 298.607 129.969 302.818 125.257 307.493 120.897 c 0
 330.474 99.0909 361.131 87.5514 391.909 82.2727 c 0
 429.095 75.9091 467.364 77.5736 504.636 82.9482 c 2
 541.455 89.5455 l 1
 541.909 90 l 1
 552.9 143.182 l 1
 571 228.182 l 1
EndSplineSet
Fore
SplineSet
121 232 m 0
 121 335 159 506 264 607 c 0
 334 673 433 716 574 716 c 0
 642 716 700 709 769 674 c 1
 773 671 788 666 788 654 c 0
 788 647 750 551 749 550 c 2
 745 540 741 536 737 536 c 0
 718 536 693 616 560 616 c 0
 334 616 290 405 277 350 c 0
 273 329 264 287 264 245 c 0
 264 158 300 78 443 78 c 0
 492 78 522 86 542 90 c 1
 571 228 l 1
 510 228 l 2
 492 228 479 228 479 243 c 0
 479 247 480 251 481 256 c 2
 490 300 l 2
 495 323 501 323 516 323 c 2
 696 323 l 2
 712 323 724 324 724 308 c 0
 724 306 724 303 723 299 c 2
 670 49 l 2
 667 34 666 30 650 23 c 0
 566 -11 491 -22 422 -22 c 0
 272 -22 121 29 121 232 c 0
EndSplineSet
EndChar

StartChar: H
Encoding: 72 72 23
Width: 794
Flags: HMW
HStem: -0 21G<143 199 610 668> 314 95<321 625> 674 20G<276 330 741 797>
VStem: 99 274<37 658> 567 274<37 657>
LayerCount: 2
Back
SplineSet
300.818 313.636 m 1
 300.818 313.636 l 1
 285.322 239.545 l 1
 257.182 107.273 l 1
 244.84 49.0909 l 2
 242.484 37.9932 241.132 25.4546 234.454 16.0114 c 2
 228.25 9.09094 l 2
 224.714 6.32003 221.033 3.88867 216.725 2.41685 c 0
 206.513 -1.07179 195.082 3.24994e-05 184.454 3.24994e-05 c 2
 160.363 3.24994e-05 l 1
 143.091 3.24994e-05 l 2
 136.953 3.24994e-05 130.818 0.179123 124.909 1.93821 c 0
 120.632 3.18185 116.826 5.40594 113.27 8.05821 c 0
 110.181 10.3619 107.636 13.3478 105.454 16.4446 c 0
 103.319 19.3905 101.727 22.8873 100.784 26.3637 c 0
 99.5325 30.6455 99.2175 35.11 99.4543 39.5455 c 0
 99.9089 46.5891 101.727 53.5696 103.257 60.4546 c 2
 109.909 91.8182 l 1
 130.791 190 l 1
 195.722 495.455 l 1
 222.388 620.909 l 1
 229.348 653.636 l 2
 231.213 662.273 232.899 671.221 238.251 678.537 c 2
 244.245 685 l 2
 247.42 687.526 250.643 689.82 254.454 691.247 c 0
 263.743 694.719 273.799 694.089 283.545 694.091 c 2
 319.454 694.091 l 2
 330.134 694.09 341.727 695.138 351.715 690.555 c 0
 362.182 685.715 370.138 675.909 372.353 664.546 c 0
 374.353 654.252 371.22 643.636 369.096 633.636 c 2
 358.753 585 l 1
 321.273 408.636 l 1
 644.909 408.636 l 1
 645.363 409.091 l 1
 659.193 475.455 l 1
 685.281 598.182 l 1
 696.011 648.636 l 2
 698.259 659.22 699.811 670.618 706.632 679.408 c 2
 713.248 686.093 l 2
 716.588 688.511 720.032 690.66 724 691.903 c 0
 734.151 695.083 745.316 694.091 755.818 694.091 c 2
 780.818 694.091 l 1
 797.182 694.078 l 2
 803.32 694.025 809.439 693.897 815.362 692.111 c 0
 819.627 690.826 823.418 688.599 826.956 685.909 c 0
 830.005 683.636 832.457 680.692 834.672 677.621 c 0
 836.727 674.68 838.3 671.192 839.317 667.726 c 0
 840.574 663.443 840.907 658.985 840.609 654.545 c 0
 840.125 647.353 838.217 640.214 836.727 633.182 c 2
 829.764 600.455 l 1
 808.504 500.455 l 1
 742.813 191.364 l 1
 716.92 69.5454 l 1
 710.636 40 l 2
 708.641 30.7386 706.701 21.3636 700.561 13.8564 c 2
 694.288 7.72726 l 2
 690.922 5.41772 687.5 3.31635 683.545 2.11044 c 0
 674.455 -0.655465 664.737 -1.03116e-05 655.364 -1.03116e-05 c 2
 618.545 -1.03116e-05 l 2
 610.441 -1.03116e-05 601.904 -0.580465 594 1.54999 c 0
 580.364 5.2259 569.656 16.9 567.524 30.9091 c 0
 565.818 41.9159 569.455 53.405 571.727 64.0909 c 2
 583.642 120 l 1
 608.187 235.455 l 1
 624.909 313.636 l 1
 300.818 313.636 l 1
EndSplineSet
Fore
SplineSet
99 37 m 0
 99 45 102 53 103 60 c 2
 229 654 l 2
 236 686 249 694 276 694 c 2
 330 694 l 2
 368 694 373 668 373 658 c 0
 373 655 369 635 363 606 c 2
 321 409 l 1
 645 409 l 1
 693 636 l 2
 700 666 702 694 741 694 c 2
 797 694 l 2
 836 694 841 668 841 657 c 0
 841 649 838 641 837 633 c 2
 711 40 l 2
 707 25 702 -0 668 -0 c 2
 610 -0 l 2
 573 0 567 25 567 37 c 0
 567 46 570 55 572 64 c 2
 625 314 l 1
 301 314 l 1
 245 49 l 2
 240 27 238 -0 199 -0 c 2
 143 -0 l 2
 104 0 99 26 99 37 c 0
EndSplineSet
EndChar

StartChar: J
Encoding: 74 74 24
Width: 519
Flags: HMW
HStem: -22 100<125.1 264.9> 674 20G<473 522>
VStem: 312 254<130 658>
LayerCount: 2
Back
SplineSet
458.818 693.466 m 1
 458.818 693.466 l 1
 472.909 694.086 l 1
 490.636 694.091 l 1
 519.727 694.088 l 2
 527.455 694.062 535.533 694.22 542.905 691.319 c 0
 549.968 688.539 555.505 683.636 559.945 677.621 c 0
 561.896 674.953 563.301 671.766 564.273 668.635 c 0
 567.455 658.82 565.296 648.879 563.25 639.091 c 2
 556.2 605.909 l 1
 526.436 465.909 l 1
 479.485 245 l 1
 463.929 171.818 l 1
 456.546 138.182 l 2
 452.769 123.587 447.691 109.091 441.257 95.4546 c 0
 435.576 83.4082 428.584 71.9869 420.555 61.3637 c 0
 413.747 52.3559 406.178 43.9496 397.896 36.2732 c 0
 359.856 1.01594 309.091 -17.2727 257.909 -21.3636 c 0
 240.182 -22.7195 222.418 -22.5154 204.727 -21.2522 c 0
 169.195 -18.7145 133.931 -11.2754 100.636 1.45685 c 0
 89.2728 5.77594 78.1342 10.59 67.4546 16.3137 c 0
 62.1687 19.0909 56.091 22.4169 53.9514 28.4109 c 0
 51.6578 34.655 54.7273 41.4564 56.926 47.2728 c 2
 71.0532 83.6364 l 1
 85.7364 121.361 l 2
 88.1001 127.263 90.5246 134.545 96.5401 137.727 c 0
 102.572 140.909 108.364 137.913 112.455 133.162 c 2
 123.531 116.818 l 2
 130.731 107.431 139.634 99.2964 149.727 93.1114 c 0
 159.489 87.1296 170.364 82.9414 181.546 80.5332 c 0
 193.929 77.8655 206.663 77.3723 219.273 78.1819 c 0
 250.636 80.36 282.902 90.2914 303.083 115.909 c 0
 306.405 120.137 309.244 124.715 311.546 129.546 c 0
 315.868 138.385 317.701 147.721 319.609 157.273 c 2
 324.396 180 l 1
 343.364 269.546 l 1
 404.589 557.273 l 1
 419.727 628.636 l 1
 424.687 651.818 l 1
 428.688 668.181 l 2
 433.364 681.643 444.634 691.364 458.818 693.466 c 1
EndSplineSet
Fore
SplineSet
53 33 m 0
 53 35 55 41 58 50 c 2
 85 118 l 2
 92 136 95 139 102 139 c 0
 119 139 127 78 209 78 c 0
 252 78 295 94 312 130 c 0
 318 142 320 157 343 270 c 2
 425 652 l 2
 437 702 459 694 473 694 c 2
 522 694 l 2
 561 694 566 669 566 658 c 0
 566 652 565 645 563 639 c 2
 457 138 l 2
 429 32 340 -22 233 -22 c 0
 150 -22 53 11 53 33 c 0
EndSplineSet
EndChar

StartChar: K
Encoding: 75 75 25
Width: 764
Flags: HMW
HStem: -0 21G<141 184 610 670> 674 20G<276 316 750 816>
VStem: 99 257<37 657>
LayerCount: 2
Back
SplineSet
262.636 214.545 m 1
 262.636 214.545 l 1
 232.98 74.5453 l 1
 225.733 40.4544 l 2
 223.63 30.6653 221.599 20.8185 214.86 13.018 c 2
 208.423 7.11077 l 2
 205.025 4.89714 201.579 2.92304 197.635 1.81804 c 0
 188.4 -0.726501 178.488 -0.000137568 169 -0.000137568 c 2
 144.455 -0.000137568 l 2
 136.935 -0.000137568 129.275 -0.000137568 122.182 2.89441 c 0
 115.62 5.54214 110.355 9.9985 106.069 15.5671 c 0
 103.921 18.3571 102.331 21.679 101.208 24.9999 c 0
 99.7741 29.2417 99.2695 33.7217 99.4291 38.1817 c 0
 99.6927 45.5326 101.644 52.8344 103.091 59.9999 c 2
 110.02 92.2726 l 1
 131.727 194.545 l 1
 199.675 514.091 l 1
 224.606 631.363 l 1
 229.542 654.545 l 2
 231.825 665.098 234.285 675.261 242.182 683.148 c 2
 249.455 688.818 l 2
 252.524 690.454 255.61 691.923 259 692.687 c 0
 267.603 694.623 276.602 694.09 285.364 694.091 c 2
 310.364 694.085 l 2
 317.864 694.051 325.539 694.091 332.631 691.318 c 0
 338.662 688.945 343.529 685 347.759 680.199 c 0
 349.903 677.727 351.541 674.772 352.855 671.808 c 0
 354.561 667.96 355.458 663.738 355.68 659.545 c 0
 355.98 653.872 354.849 648.258 353.734 642.727 c 2
 349.988 625 l 1
 337.182 565 l 1
 295.364 367.727 l 1
 366.727 423.721 l 1
 510.364 536.225 l 1
 628.545 628.793 l 1
 683.091 671.494 l 2
 693.82 679.746 704.909 687.092 718.091 690.909 c 0
 729.685 694.288 741.589 694.088 753.545 694.091 c 2
 793.091 694.091 l 1
 816.273 694.043 l 2
 823.28 693.839 830.518 693.015 835.177 687.112 c 1
 837.503 683.044 l 1
 838.622 677.263 l 1
 837.916 671.818 l 1
 835.93 666.508 833.215 662.385 829.147 658.381 c 0
 822.333 651.673 814.244 646.084 806.727 640.198 c 2
 768.091 609.941 l 1
 596.727 475.713 l 1
 543.091 433.636 l 1
 504.909 404.091 l 1
 659.909 119.091 l 1
 696.727 51.3636 l 2
 702.326 41.1386 709.606 30.0863 704.553 18.1818 c 0
 700.818 9.46043 692.757 2.98543 683.545 0.909063 c 0
 679.239 -2.81334e-05 674.749 -2.81334e-05 670.364 -2.81334e-05 c 2
 653.545 -2.81334e-05 l 1
 614.455 -2.81334e-05 l 2
 606.378 -2.81334e-05 598.249 -0.255483 590.364 1.75997 c 0
 586.965 2.62861 583.911 4.1977 580.818 5.90452 c 2
 574.137 11.3618 l 2
 569.455 16.0941 566.273 21.9695 563.091 27.7272 c 2
 552.72 46.8182 l 1
 516.142 114.091 l 1
 443.71 247.273 l 1
 419.739 291.364 l 1
 402.636 323.636 l 1
 311.727 252.49 l 1
 262.636 214.545 l 1
EndSplineSet
Fore
SplineSet
99 37 m 0
 99 45 102 55 103 60 c 2
 230 655 l 2
 235 682 245 694 276 694 c 2
 316 694 l 2
 338 694 356 679 356 657 c 0
 356 650 355 647 354 643 c 2
 295 368 l 1
 683 671 l 2
 706 689 720 694 750 694 c 2
 816 694 l 2
 837 694 838 682 838 678 c 0
 838 664 826 655 807 640 c 2
 505 404 l 1
 697 51 l 2
 701 44 706 35 706 26 c 0
 706 17 700 -0 670 -0 c 2
 610 -0 l 2
 586 0 577 3 563 28 c 2
 403 324 l 1
 263 215 l 1
 226 38 l 2
 220 12 207 0 184 -0 c 2
 141 -0 l 2
 109 0 99 22 99 37 c 0
EndSplineSet
EndChar

StartChar: L
Encoding: 76 76 26
Width: 580
Flags: HMW
HStem: 0 105<194.522 518.436> 674 20G<276 325>
VStem: 99 274<37 657>
LayerCount: 2
Back
SplineSet
256.273 101.818 m 1
 256.273 101.818 l 1
 386.727 103.602 l 1
 481.727 104.97 l 1
 500.364 105.112 l 2
 509.455 105.294 518.714 105.561 527.171 101.489 c 0
 530.476 99.8968 533.705 97.8132 536.273 95.2186 c 0
 538.866 92.6913 541.273 89.9672 543.058 86.7827 c 0
 544.909 83.3454 546.457 79.7841 547.126 75.9091 c 0
 549 64.6277 545.736 53.1818 543.394 42.2727 c 0
 542.031 35.8836 540.927 29.2309 538.364 23.1818 c 0
 535.022 15.3031 529.255 8.63633 521.703 4.54542 c 0
 511.273 -1.01958 499 -3.40343e-05 487.636 -3.40343e-05 c 2
 428.546 -3.40343e-05 l 1
 204.909 -3.40343e-05 l 1
 150.364 -3.40343e-05 l 2
 141.865 -3.40343e-05 133.091 -0.448216 124.909 1.93815 c 0
 121.133 3.03088 117.833 4.95315 114.567 7.08042 c 2
 108.46 12.5909 l 1
 103.545 19.5454 l 2
 101.727 23.3545 100.261 27.16 99.7318 31.3636 c 0
 98.3909 42.0222 101.64 52.8363 103.835 63.1818 c 2
 126.727 170.909 l 1
 202.581 527.727 l 1
 224.124 629.091 l 1
 229.738 655.455 l 2
 231.461 663.363 233.091 671.364 237.937 678.098 c 2
 243.827 684.676 l 2
 246.983 687.22 250.19 689.545 254 691.065 c 0
 263.41 694.732 273.633 694.089 283.545 694.091 c 2
 318.091 694.091 l 2
 328.684 694.091 340.336 695.245 350.358 691.139 c 0
 360.192 687.11 368.04 678.759 371.273 668.635 c 0
 374.291 659.425 372.533 650.128 370.631 640.909 c 2
 365.364 616.364 l 1
 341.727 505 l 1
 308.518 348.636 l 1
 275.279 192.273 l 1
 263.684 137.727 l 1
 256.273 101.818 l 1
EndSplineSet
Fore
SplineSet
99 37 m 0
 99 46 102 55 104 63 c 2
 230 655 l 2
 235 681 244 694 276 694 c 2
 325 694 l 2
 351 694 373 687 373 657 c 0
 373 650 372 646 371 641 c 2
 256 102 l 1
 451 105 476 105 500 105 c 0
 519 105 521 104 527 101 c 0
 545 93 548 77 548 69 c 0
 548 57 540 28 538 23 c 0
 530 2 513 -0 497 -0 c 2
 143 -0 l 2
 104 0 99 26 99 37 c 0
EndSplineSet
EndChar

StartChar: M
Encoding: 77 77 27
Width: 978
Flags: HMW
HStem: -0 21G<144 174 815 845> 674 20G<276 367 905 982>
VStem: 99 254<36 564> 770 254<36 658>
LayerCount: 2
Back
SplineSet
334.455 564.091 m 1
 334.454 564.091 l 1
 325.583 520.909 l 1
 310.804 451.364 l 1
 265.818 240 l 1
 236.024 99.5455 l 1
 226.26 53.6364 l 1
 220.363 27.7274 l 2
 219.19 23.7714 217.605 19.8628 215.211 16.4505 c 0
 213.245 13.6364 211.002 10.8942 208.288 8.77372 c 0
 205.29 6.36372 202.137 4.26462 198.541 2.92781 c 0
 190.593 7.86185e-05 182.366 7.86185e-05 174 7.86185e-05 c 2
 154.909 7.86185e-05 l 2
 145.141 7.86185e-05 134.875 -0.817194 125.363 1.80235 c 0
 121.449 2.88053 117.903 4.81053 114.567 7.08053 c 0
 111.368 9.2569 108.791 12.1424 106.388 15.1324 c 0
 104.274 17.7274 102.636 20.9092 101.525 24.091 c 0
 97.9848 33.6364 99.7312 43.4955 101.723 53.1819 c 2
 106.255 74.5455 l 1
 128.765 180.455 l 1
 204.413 536.364 l 1
 225.188 634.091 l 1
 229.836 655.909 l 2
 231.727 664.624 233.788 673.182 239.588 680.268 c 0
 244.909 686.754 252.151 691.238 260.363 692.996 c 0
 265.363 694.08 270.665 694.047 275.818 694.082 c 2
 354.909 694.091 l 2
 370.071 694.091 386.273 695.455 399.896 687.493 c 0
 408.213 682.622 414.738 675.232 418.503 666.363 c 0
 421.963 658.182 423.188 649.091 424.907 640.455 c 2
 442.541 550.909 l 1
 489.306 309.091 l 1
 505.03 223.636 l 2
 509.454 198.425 514 173.182 516.727 147.727 c 1
 523.223 161.516 531.027 174.545 538.77 187.727 c 2
 568.455 237.273 l 1
 660.677 387.727 l 1
 765.227 556.364 l 1
 814.994 636.364 l 2
 821.206 646.321 826.997 656.818 834.454 665.88 c 0
 842.503 675.455 852.51 683.345 864 688.285 c 0
 870.223 690.909 876.818 692.71 883.545 693.491 c 2
 904.909 694.091 l 1
 941.273 694.091 l 1
 974.454 694.091 l 2
 981.974 694.086 989.838 694.537 997.181 692.625 c 0
 1010.8 689.078 1021.55 677.554 1023.88 663.636 c 0
 1025.36 654.791 1023.04 645.89 1021.23 637.273 c 2
 1013.5 600.909 l 1
 985.769 470.454 l 1
 923.545 177.727 l 1
 902.968 80.909 l 1
 896.107 48.6363 l 1
 891.602 28.6363 l 2
 890.364 24.5295 888.839 20.4545 886.414 16.8181 c 0
 884.454 14.0668 882.292 11.2845 879.614 9.09086 c 0
 876.636 6.73041 873.499 4.50495 869.904 3.11222 c 0
 861.826 -4.8399e-05 853.448 -4.8399e-05 844.909 -4.8399e-05 c 2
 824.909 -4.8399e-05 l 2
 815.705 -4.8399e-05 806.195 -0.630048 797.182 1.54995 c 0
 793.633 2.40813 790.352 4.02359 787.182 5.88768 c 0
 783.775 7.96132 780.94 10.8381 778.3 13.8454 c 0
 776.145 16.3013 774.455 19.2959 773.091 22.2727 c 0
 768.768 32.2727 770.502 42.8222 772.632 53.1818 c 2
 776.873 73.1818 l 1
 799.867 181.364 l 1
 831.947 332.273 l 1
 863.63 481.364 l 1
 874.165 530.909 l 1
 880.818 564.545 l 1
 870.164 541.943 856.727 520.556 844 499.091 c 2
 784.417 400.454 l 2
 726.19 305.149 667.269 210.264 608.239 115.454 c 2
 583.347 75.4545 l 2
 578.091 67.1504 573.253 58.5167 567.027 50.909 c 0
 558.091 40.1313 546.718 31.4586 533.545 26.6372 c 0
 518.8 21.2395 503.067 22.2704 487.636 22.2727 c 0
 475.058 22.2727 462.01 21.5908 450.364 27.1977 c 0
 440.364 31.9813 432.603 40.2663 428.401 50.4545 c 0
 425.2 58.1817 424 66.8095 422.364 74.9999 c 2
 405.463 160.909 l 1
 364.784 373.636 l 2
 355.255 425.448 345.487 477.273 338.38 529.545 c 2
 334.455 564.091 l 1
881.727 565.455 m 1
 881.273 565 l 1
 881.727 565.455 l 1
EndSplineSet
Fore
SplineSet
99 36 m 0
 99 42 101 49 106 72 c 2
 230 656 l 2
 238 693 257 694 276 694 c 2
 367 694 l 2
 417 694 420 667 425 640 c 2
 489 309 l 2
 507 213 513 180 517 148 c 1
 535 188 811 630 815 636 c 0
 842 681 857 694 905 694 c 2
 982 694 l 2
 1019 694 1024 668 1024 658 c 0
 1024 651 1023 644 1021 637 c 2
 896 49 l 2
 889 20 890 -0 845 -0 c 2
 815 -0 l 2
 775 0 770 25 770 36 c 0
 770 42 772 49 774 59 c 2
 881 565 l 1
 865 530 823 466 784 400 c 2
 583 75 l 2
 559 38 546 22 500 22 c 2
 480 22 l 2
 432 22 428 47 422 75 c 2
 365 374 l 2
 333 544 340 526 334 564 c 1
 226 54 l 2
 218 16 217 -0 174 -0 c 2
 144 -0 l 2
 104 0 99 26 99 36 c 0
EndSplineSet
EndChar

StartChar: N
Encoding: 78 78 28
Width: 794
Flags: HMW
HStem: 0 21G<144 176 562 664> 674 20G<276 376 764 795>
VStem: 100 237<36 575> 603 238<120 658>
LayerCount: 2
Back
SplineSet
336.727 574.545 m 1
 336.727 574.545 l 1
 327.182 528.636 l 1
 312.733 460.454 l 1
 264.716 234.545 l 1
 235.443 96.8181 l 1
 225.97 52.2726 l 2
 224.173 43.8222 222.859 34.9999 220.143 26.8181 c 0
 218.89 23.0285 217.285 19.2499 214.909 16.0113 c 0
 210.566 10.0895 204.909 5.42491 198.088 2.72718 c 0
 191.126 -9.22978e-05 183.628 -9.22978e-05 176.273 -9.22978e-05 c 2
 152.182 -9.22978e-05 l 2
 143.399 -9.22978e-05 134.399 -0.454638 125.818 1.67264 c 0
 122.182 2.58718 119 4.30764 115.818 6.17354 c 2
 109.207 11.7763 l 1
 104 18.6363 l 2
 102.412 21.8181 100.894 25.0785 100.212 28.6363 c 0
 98.4631 37.7272 100.329 46.5204 102.182 55.4545 c 2
 106.352 74.9999 l 1
 139.302 230 l 1
 208.187 554.091 l 1
 226.449 640 l 1
 229.909 656.364 l 2
 231.991 665.719 234.372 674.707 241.044 681.942 c 2
 247.636 687.689 l 2
 250.818 689.545 254 691.364 257.636 692.273 c 0
 266.07 694.545 274.898 694.089 283.545 694.091 c 2
 360.364 694.091 l 2
 375.572 694.091 391.837 695.593 406.272 689.856 c 0
 417.636 685.318 427.064 676.767 432.779 665.904 c 0
 437.174 657.552 439.454 648.065 442.182 639.091 c 2
 471.084 545.909 l 1
 556.864 268.636 l 1
 603.091 119.545 l 1
 681.449 488.182 l 1
 706.727 607.273 l 1
 714.882 645.455 l 2
 716.548 653.3 717.738 661.553 720.552 669.09 c 0
 721.853 672.574 723.515 676.05 725.818 678.974 c 0
 729.909 684.085 734.778 688.264 740.818 690.875 c 0
 748.017 693.984 755.818 694.039 763.545 694.084 c 2
 788.091 694.091 l 2
 801.098 694.089 814.599 694.996 825.672 686.915 c 0
 828.261 685 830.818 682.727 832.759 680.2 c 0
 834.816 677.442 836.82 674.546 838.046 671.356 c 0
 839.431 667.684 840.447 663.94 840.654 660 c 0
 841.074 652.01 839 644.091 837.401 636.364 c 2
 815.473 533.182 l 1
 731.727 139.545 l 1
 712.182 47.2728 l 2
 710.204 37.9528 708.823 28.1023 704.374 19.5455 c 0
 702.434 15.8487 699.722 12.8146 696.727 9.85821 c 2
 689.88 4.85957 l 2
 681.872 0.36639 672.946 2.60472e-05 664 2.60472e-05 c 2
 642.636 2.60472e-05 l 1
 574.909 2.60472e-05 l 2
 564 2.60472e-05 552.833 -0.715883 542.182 1.68912 c 0
 534 3.53684 526.599 7.17594 520.038 12.3778 c 0
 516.727 14.9496 513.937 18.1037 511.477 21.3637 c 0
 505.766 29.0909 503.034 38.1818 500.221 47.2728 c 2
 490.93 77.2728 l 1
 456.624 188.182 l 1
 379.137 438.636 l 1
 353.091 522.727 l 1
 336.727 574.545 l 1
EndSplineSet
Fore
SplineSet
100 36 m 0
 100 43 101 49 102 55 c 2
 230 656 l 2
 238 693 258 694 276 694 c 2
 376 694 l 2
 427 694 433 669 442 639 c 2
 603 120 l 1
 715 645 l 2
 721 674 724 694 764 694 c 2
 795 694 l 2
 836 694 841 669 841 658 c 0
 841 651 840 647 837 634 c 2
 712 47 l 2
 706 19 703 0 664 0 c 2
 562 0 l 2
 513 0 506 29 500 47 c 2
 337 575 l 1
 226 52 l 2
 219 22 219 0 176 0 c 2
 144 0 l 2
 136 0 100 0 100 36 c 0
EndSplineSet
EndChar

StartChar: P
Encoding: 80 80 29
Width: 703
Flags: HMW
HStem: -0 21G<144 199> 268 79<305 494.58> 608 86<361 581.5>
VStem: 99 262<36 608> 614 135<486.014 580.488>
LayerCount: 2
Back
SplineSet
291.273 267.727 m 1
 291.273 267.727 l 1
 254.6 95 l 1
 244.262 46.3636 l 2
 242.152 36.3636 240.768 25.5409 235.05 16.8182 c 0
 230.109 9.41773 222.636 3.92364 213.999 1.57727 c 0
 204.572 -0.909091 194.125 2.08616e-07 184.454 2.08616e-07 c 2
 149.909 2.08616e-07 l 2
 141.531 2.08616e-07 133.049 -0.358636 124.909 1.93818 c 0
 121.273 2.95364 118.091 4.79273 115.004 6.77 c 2
 108.83 12.1814 l 1
 103.805 19.0909 l 2
 102.067 22.6036 100.559 26.1186 99.909 30 c 0
 98.3885 39.8286 100.944 49.5191 102.968 59.0909 c 2
 111.369 98.6364 l 1
 160.818 331.364 l 1
 214.66 584.545 l 1
 228.091 647.727 l 2
 230.818 660.569 232.719 673.971 242.602 683.54 c 0
 247.636 688.44 253.923 691.695 260.818 693.087 c 0
 266.273 694.201 272.041 694.068 277.636 694.087 c 2
 294.454 694.091 l 1
 413.545 694.091 l 1
 507.182 694.091 l 2
 539.571 694.091 571.915 694.005 604 688.946 c 0
 641.478 683.036 679.332 670.452 707.569 644.091 c 0
 713.356 638.715 718.627 632.727 723.245 626.364 c 0
 748.545 591.081 751.913 545 746.644 503.182 c 0
 738.357 437.399 708.96 372.079 656.727 329.71 c 0
 625.037 304.004 586.273 287.442 546.727 278.373 c 0
 516.02 271.337 484.531 268.611 453.091 267.845 c 2
 411.727 267.727 l 1
 291.273 267.727 l 1
305.364 347.273 m 1
 305.363 347.273 l 1
 416.727 347.273 l 2
 458.758 347.273 502.57 348.182 540.363 368.987 c 0
 554 376.501 566.128 386.364 575.818 398.636 c 0
 584.118 409.034 590.363 420.898 595.363 433.182 c 0
 599.421 443.182 602.621 453.598 605.271 464.091 c 2
 609.696 484.091 l 1
 612.108 498.182 l 2
 615.947 524.77 616.596 555.602 597.178 576.674 c 0
 592.165 582.113 586.27 586.666 579.909 590.418 c 0
 567.54 597.713 553.532 601.684 539.454 604.054 c 0
 521.191 607.128 502.487 607.691 484 607.725 c 2
 360.818 607.727 l 1
 305.364 347.273 l 1
EndSplineSet
Fore
SplineSet
99 36 m 0
 99 44 102 52 105 67 c 2
 228 648 l 2
 235 678 241 694 275 694 c 2
 507 694 l 2
 600 694 680 686 723 626 c 0
 742 600 749 568 749 536 c 0
 749 463 719 380 657 330 c 0
 575 263 472 268 412 268 c 2
 291 268 l 1
 248 62 l 2
 239 24 238 0 199 -0 c 2
 144 0 l 2
 103 0 99 27 99 36 c 0
305 347 m 1
 417 347 l 2
 469 347 535 348 576 399 c 0
 606 437 614 506 614 525 c 0
 614 595 559 608 484 608 c 2
 361 608 l 1
 305 347 l 1
EndSplineSet
EndChar

StartChar: Q
Encoding: 81 81 30
Width: 794
Flags: HW
HStem: -22 78<310.5 440.012> 638 78<396.9 626.9>
VStem: 118 137<50.2 275.111> 684 136<428.712 645>
LayerCount: 2
Back
SplineSet
469.364 -16.8182 m 1
 469.364 -16.8182 l 1
 407.019 -24.7459 342.382 -25.5436 281.182 -9.4268 c 0
 241.182 1.09047 202.846 19.6982 174.18 50 c 0
 167.519 57.0759 161.456 64.6859 156.037 72.7273 c 0
 120.273 125.747 114.696 192.458 119.645 254.545 c 2
 123.109 286.364 l 2
 126.405 310.455 131.056 334.446 136.524 358.182 c 0
 156.053 442.955 188.685 526.767 246.909 592.727 c 0
 256.182 603.302 266.135 613.353 276.636 622.727 c 0
 289.818 634.631 303.991 645.42 318.909 655 c 0
 343.541 670.909 370.268 683.49 398 692.967 c 0
 420.727 700.74 444.27 706.362 468 710.143 c 0
 486.811 713.141 505.727 714.987 524.818 715.827 c 0
 538.751 716.443 552.698 716.561 566.636 716.031 c 0
 632.715 713.518 703.628 699.214 753.896 653.179 c 0
 760.929 646.739 767.445 639.751 773.362 632.273 c 0
 813.569 581.452 822.898 513.845 819.818 450.909 c 2
 817.545 420.909 l 2
 814.907 395.395 810.627 370.114 805.431 345 c 0
 786.182 252.181 751.47 159.638 685.048 90 c 0
 673.909 78.3491 661.998 67.4663 649.364 57.4741 c 0
 634.95 46.075 619.638 35.9091 603.455 27.2727 c 1
 646.896 -48.6364 l 1
 654.364 -61.8182 l 2
 658 -68.6364 661.419 -75.7146 659.545 -83.6364 c 0
 657.068 -94.0996 647.858 -102.273 637.545 -104.545 c 0
 633.094 -105.455 628.442 -105.455 623.909 -105.455 c 2
 606.636 -105.455 l 1
 550.273 -105.455 l 2
 537.794 -105.455 524.276 -106.544 513.603 -98.8332 c 0
 503.991 -91.8895 499.547 -80.3214 494.567 -70 c 2
 469.364 -16.8182 l 1
556.182 109.545 m 1
 556.182 109.546 l 1
 580.837 130.365 599.8 157.57 614.898 185.909 c 0
 633.903 221.582 646.021 260.436 655.659 299.546 c 0
 662.439 327.056 668.315 354.861 673.44 382.727 c 0
 682.19 430.304 688.455 480.274 678.558 528.182 c 0
 674.591 547.273 668 566.55 656.851 582.727 c 0
 653.2 588.012 649.103 592.979 644.587 597.548 c 0
 611.622 630.903 561.445 640.721 516.182 637.587 c 2
 491.182 634.513 l 2
 480.394 632.588 469.769 629.904 459.364 626.466 c 0
 446.316 622.155 433.67 616.716 421.636 610 c 0
 407.071 602.031 393.41 592.273 381.182 580.985 c 0
 365.165 566.168 351.482 548.781 339.69 530.455 c 0
 323.288 504.966 310.53 477.248 300.622 448.636 c 0
 292.774 425.909 286.409 402.87 280.849 379.546 c 2
 269.573 328.182 l 1
 262.226 289.091 l 1
 257.72 256.818 l 1
 255.616 230.909 l 1
 255.273 211.364 l 2
 255.493 167.89 265.476 120 299.818 90.4223 c 0
 308.09 83.3164 317.311 77.4791 327.091 72.7273 c 0
 341.265 65.8614 356.572 61.3636 372.091 58.8336 c 0
 392.284 55.4546 412.665 55.365 433 57.2727 c 1
 417.231 90.9091 l 1
 395.543 135.909 l 1
 388.349 150.909 l 2
 385.273 157.55 382.383 164.385 384.156 171.816 c 0
 386.611 182.103 395.686 190.455 405.727 193.182 c 0
 413.816 195.431 422.884 194.545 431.182 194.545 c 2
 473.909 194.545 l 1
 488.455 194.521 l 2
 495.026 194.41 501.626 194.091 507.091 190.126 c 0
 511.45 187.055 514.318 182.584 517.03 178.163 c 2
 525.403 163.636 l 1
 556.182 109.545 l 1
EndSplineSet
Fore
SplineSet
118 217 m 0
 118 305 150 483 247 593 c 0
 324 680 432 716 549 716 c 0
 703 716 820 654 820 473 c 0
 820 366 779 121 603 27 c 1
 641 -38 l 2
 656 -64 660 -73 660 -80 c 0
 660 -90 651 -105 627 -105 c 2
 542 -105 l 2
 515 -105 508 -99 493 -67 c 2
 469 -17 l 1
 443 -20 415 -22 388 -22 c 0
 254 -22 118 26 118 217 c 0
255 214 m 0
 255 88 333 56 408 56 c 0
 416 56 425 56 433 57 c 1
 396 135 l 2
 387 154 384 163 384 168 c 0
 384 179 393 195 423 195 c 2
 488 195 l 2
 518 195 512 184 556 110 c 1
 664 201 684 448 684 476 c 0
 684 606 605 638 532 638 c 0
 316 638 278 382 262 289 c 0
 258 267 255 239 255 214 c 0
EndSplineSet
EndChar

StartChar: R
Encoding: 82 82 31
Width: 703
Flags: HMW
HStem: -0 21G<145 194 562 624> 311 73<313 415> 608 86<361 586.8>
VStem: 99 262<36 608> 616 135<523 556 522 564>
LayerCount: 2
Back
SplineSet
297.636 310.909 m 1
 297.636 310.909 l 1
 286.465 257.727 l 1
 265.364 158.636 l 1
 243.951 57.7273 l 1
 239.889 38.6364 l 2
 237.717 28.6364 235.262 18.9614 227.923 11.3637 c 2
 221.653 6.2064 l 2
 218.497 4.34095 215.309 2.62004 211.727 1.70095 c 0
 203.288 -0.454505 194.454 4.05312e-05 185.818 4.05312e-05 c 2
 164.454 4.05312e-05 l 1
 145.818 4.05312e-05 l 2
 137.919 4.05312e-05 130.172 4.05312e-05 122.636 2.71777 c 0
 119 3.99277 115.818 6.09413 112.844 8.39913 c 0
 109.652 10.8528 107.121 14.0282 104.872 17.2728 c 0
 102.845 20.3037 101.446 23.8073 100.535 27.2728 c 0
 98.3049 35.76 99.9081 44.3159 101.628 52.7273 c 2
 106.643 76.3637 l 1
 127.898 176.364 l 1
 205.284 540.455 l 1
 227.994 647.273 l 2
 230.069 657.044 231.421 667.683 236.727 676.323 c 0
 239.408 680.609 242.897 683.983 246.824 687.075 c 2
 254.454 691.247 l 2
 260.979 693.849 267.987 694.013 274.909 694.078 c 2
 295.364 694.091 l 1
 373.545 694.091 l 1
 489.909 694.091 l 2
 526.647 694.091 563.48 694.225 599.909 688.756 c 0
 640.804 682.615 683.4 669.424 713.817 640 c 0
 718.736 635.301 723.205 630.107 727.182 624.544 c 0
 752.306 589.401 754.909 543.059 747.356 501.818 c 0
 745.818 493.636 743.912 485.641 741.503 477.727 c 0
 738.474 467.727 734.698 458.055 730.278 448.636 c 0
 724.758 436.818 718.091 425.593 710.606 415 c 0
 700.979 401.447 689.72 389.032 677.181 378.117 c 0
 660.818 363.938 642.182 352.727 622.636 343.822 c 0
 599.123 333.045 574.368 325.4 549 320.455 c 1
 578.091 244.091 l 1
 633.673 98.6364 l 1
 652.772 48.6364 l 2
 655.087 42.5159 657.374 36.5464 658.049 30 c 1
 657.289 22.7273 l 1
 654.909 16.8182 l 2
 650.709 8.99772 643.091 3.18181 634.453 1.11045 c 0
 630.299 0.117268 625.974 0.0763589 621.727 -4.76837e-06 c 2
 607.182 -4.76837e-06 l 1
 561.727 -4.76837e-06 l 2
 554.164 -4.76837e-06 546.727 -4.76837e-06 539.455 2.25363 c 1
 531.98 6.36363 l 1
 526.711 11.6168 l 2
 523.259 15.9091 521.251 21.2218 519.288 26.3636 c 2
 512.78 44.0909 l 1
 489.822 106.818 l 1
 441.063 240 l 1
 415.364 310.909 l 1
 297.636 310.909 l 1
313.091 383.636 m 1
 313.091 383.636 l 1
 430.364 383.636 l 2
 470.699 383.636 512.632 384.229 549.454 402.862 c 0
 559 407.703 567.965 413.636 575.663 421.173 c 0
 593.888 438.923 604.154 462.954 610.255 487.273 c 0
 612.729 497.133 614.608 507.159 615.663 517.273 c 0
 617.903 538.746 616.359 562.727 600.76 579.26 c 0
 595.933 584.371 590.144 588.485 584 591.818 c 0
 572.484 598.182 559.612 601.72 546.727 603.94 c 0
 527.43 607.265 507.629 607.709 488.091 607.726 c 2
 360.818 607.727 l 1
 313.091 383.636 l 1
EndSplineSet
Fore
SplineSet
99 36 m 0
 99 42 101 49 103 59 c 2
 228 647 l 2
 233 673 237 694 275 694 c 2
 495 694 l 2
 584 694 681 689 727 625 c 0
 744 600 751 571 751 541 c 0
 751 503 739 359 549 320 c 1
 653 49 l 2
 655 43 658 35 658 30 c 0
 658 12 643 -0 624 -0 c 2
 562 -0 l 2
 536 0 528 4 519 26 c 2
 415 311 l 1
 298 311 l 1
 240 39 l 2
 232 2 213 -0 194 -0 c 2
 145 -0 l 2
 107 0 99 22 99 36 c 0
313 384 m 1
 430 384 l 2
 525 384 587 396 610 487 c 0
 612 496 616 514 616 532 c 0
 616 596 564 608 488 608 c 2
 361 608 l 1
 313 384 l 1
EndSplineSet
EndChar

StartChar: S
Encoding: 83 83 32
Width: 611
Flags: HMW
HStem: -22 108<129.524 489.4> 613 103<370.2 571.7>
VStem: 164 132<493.5 497> 465 131<208 224>
LayerCount: 2
Back
SplineSet
436.909 716.134 m 1
 436.909 716.134 l 1
 475.532 717.41 514.739 715.213 552.364 705.909 c 0
 569.636 701.712 586.542 695.821 602.818 688.622 c 0
 614.434 683.485 625.972 677.829 636.89 671.325 c 0
 642.154 668.182 648.136 664.546 650.178 658.464 c 0
 652.364 651.752 648.821 644.364 646.454 638.182 c 2
 631.089 598.636 l 1
 614.465 555.909 l 2
 611.909 549.637 609.456 541.517 602.818 538.356 c 2
 599.969 537.388 l 1
 594.744 537.678 l 1
 590.525 539.76 l 1
 586.796 542.82 583.842 546.311 580.776 550 c 0
 566.376 567.477 550.238 583.143 530.091 593.816 c 0
 515.172 601.72 498.979 606.796 482.364 609.634 c 0
 470.655 611.634 458.727 612.601 446.909 613.002 c 2
 422.364 612.727 l 2
 390.355 611.211 356.848 604.484 331.909 582.879 c 0
 327.147 578.636 322.753 574.081 318.819 569.083 c 0
 313.248 562.005 308.695 554.091 305.053 545.909 c 0
 300.928 536.586 297.809 526.518 296.653 516.364 c 0
 296 510.774 296 505.101 296.988 499.545 c 0
 301.376 473.343 324.154 455.079 347.818 446.168 c 0
 359.548 441.751 372.017 439.309 384.182 436.364 c 2
 431.455 425.111 l 2
 443.273 422.273 455.285 419.654 466.909 415.907 c 0
 495.327 406.744 521.776 391.627 543.237 370.769 c 0
 553.065 361.217 561.779 350.639 569.165 339.091 c 0
 590.385 305.909 598.913 266.351 595.902 227.273 c 0
 594.271 206.089 589.16 185.232 582.818 165 c 0
 567.077 114.545 539.006 67.1535 496.909 34.3985 c 0
 488.254 27.664 479.144 21.5163 469.636 16.0485 c 0
 415.748 -15.0001 352.337 -23.7206 291 -22.1542 c 0
 232.6 -20.6624 174.305 -8.18192 121.455 17.0381 c 0
 109.134 22.9108 97.1409 29.4431 85.5455 36.6444 c 0
 79.5646 40.359 73.0014 44.0549 67.9319 48.9976 c 0
 66.2809 50.6076 64.1819 52.5844 63.4787 54.8235 c 2
 62.2023 59.5453 l 1
 62.3637 66.8181 65.2623 73.3017 67.8182 79.9999 c 2
 95.0782 150 l 1
 102.719 168.518 l 2
 104.636 172.094 107.307 175.573 111.236 177.048 c 0
 119.935 180.315 126.795 171.818 132.063 166.319 c 2
 135.402 162.722 l 2
 152.539 144.545 171.81 129.218 193.727 117.226 c 0
 206.897 110 220.804 104.091 235.091 99.494 c 0
 246.388 95.8531 257.948 92.9581 269.636 90.8917 c 0
 279.636 89.0908 289.888 87.9004 300.091 87.1799 c 0
 340.545 84.3204 385.888 87.8468 419.179 113.461 c 0
 424.395 117.474 429.182 121.972 433.621 126.818 c 0
 439.925 133.867 445.26 141.678 449.636 150 c 0
 455.785 161.546 460.229 174.039 462.931 186.818 c 0
 465.091 197.251 465.775 208.104 463.827 218.636 c 0
 459.049 244.466 439.105 264.729 415.545 274.923 c 0
 406.455 278.839 396.909 281.147 387.364 283.441 c 2
 359.182 290.182 l 1
 322.364 298.979 l 2
 309.797 301.985 297.274 304.995 285.091 309.355 c 0
 259.636 318.452 235.782 332.35 216 350.841 c 0
 191 374.243 173.273 405.345 167.067 439.091 c 0
 161.407 469.705 165.22 500.297 173.695 530 c 0
 187.604 578.755 213.558 624.905 253.273 657.204 c 0
 281.538 680.192 315.35 695.892 350.545 704.871 c 0
 378.808 712.081 407.811 715.173 436.909 716.134 c 1
EndSplineSet
Fore
SplineSet
62 60 m 0
 62 64 65 72 69 84 c 2
 102 167 l 2
 105 174 111 178 115 178 c 0
 135 178 174 86 323 86 c 0
 451 86 465 182 465 206 c 0
 465 242 440 265 416 275 c 0
 395 284 319 297 285 309 c 0
 226 331 164 384 164 469 c 0
 164 525 193 608 253 657 c 0
 314 706 390 716 456 716 c 0
 545 716 599 694 637 671 c 0
 642 668 651 664 651 654 c 0
 651 649 649 645 646 637 c 2
 619 568 l 2
 608 538 606 538 598 538 c 0
 574 538 568 613 436 613 c 0
 318 613 296 541 296 510 c 0
 296 477 320 457 348 446 c 0
 413 422 511 429 569 339 c 0
 588 310 596 276 596 242 c 0
 596 174 554 -22 304 -22 c 0
 170 -22 62 39 62 60 c 0
EndSplineSet
EndChar

StartChar: U
Encoding: 85 85 33
Width: 764
Flags: HMW
HStem: -22 86<306.5 608.7> 674 20G<278 323 724 768>
VStem: 134 140<84.8 201.999> 596 215<278 658>
LayerCount: 2
Back
SplineSet
263.545 693.466 m 1
 263.545 693.466 l 1
 277.636 694.086 l 1
 295.363 694.091 l 1
 322.636 694.091 l 2
 333.349 694.086 344.141 694.545 353.974 689.67 c 0
 357.636 687.807 360.756 685.124 363.695 682.249 c 0
 365.945 680 367.786 677.269 369.277 674.514 c 0
 376.981 660.282 371.818 644.301 368.683 629.545 c 2
 349.551 539.545 l 1
 301.534 313.636 l 1
 286.939 245 l 2
 282.726 225.248 278.324 205.455 275.77 185.455 c 0
 273.532 167.879 272.476 149.844 275.328 132.273 c 0
 277.464 119.091 282.061 106.272 290.714 95.9091 c 0
 294.349 91.6291 298.527 87.7273 303.091 84.4405 c 0
 309.85 79.5341 317.504 75.9091 325.364 73.1818 c 0
 338.249 68.7268 351.803 66.3636 365.364 65.2036 c 0
 378.828 64.0209 392.324 63.8814 405.818 64.5455 c 0
 441.848 66.4586 478.513 74.8068 508.545 95.6514 c 0
 520.179 103.726 530.61 113.614 539.597 124.545 c 0
 575.184 167.834 584.613 225 595.9 278.182 c 2
 646.521 516.364 l 1
 672.036 636.364 l 1
 675.906 654.545 l 2
 677.128 660.197 678.2 666.038 680.539 671.36 c 0
 683.222 677.464 687.397 682.727 692.75 686.756 c 0
 702.16 693.767 713.211 694.055 724.454 694.088 c 2
 750.364 694.091 l 1
 767.636 694.075 l 2
 774.909 694.001 782.182 693.752 788.99 690.757 c 0
 792.454 689.223 795.818 687.153 798.545 684.539 c 0
 801.273 681.955 803.944 679.091 805.792 675.854 c 0
 808.25 671.461 809.909 666.818 810.495 661.818 c 0
 811.235 655.385 810 649.01 808.734 642.727 c 2
 804.697 623.636 l 1
 765.364 438.636 l 1
 732.424 283.636 l 1
 723.091 240 l 2
 718.667 218.935 713.92 198.091 706.809 177.727 c 0
 692.017 135.364 669 95.4546 637.098 63.745 c 0
 621.891 48.6228 604.654 35.5759 586.273 24.5455 c 0
 563.32 10.7928 538.36 0.43548 512.636 -6.87679 c 0
 475.364 -17.4668 436.273 -21.7086 397.636 -22.2727 c 0
 360.818 -22.7272 323.655 -20.9659 287.636 -12.9745 c 0
 264.709 -7.88725 242.182 -0.204065 221.727 11.3637 c 0
 206.853 19.7682 192.956 30.085 181.055 42.3659 c 0
 172.332 51.3637 164.756 61.4455 158.446 72.2728 c 0
 134.846 112.727 130.995 161.572 136.438 207.273 c 0
 138.262 222.592 141.377 237.65 144.578 252.727 c 2
 153.079 292.727 l 1
 164.868 348.182 l 1
 183.904 437.727 l 1
 225.061 631.364 l 1
 230.193 655.455 l 2
 231.644 662.118 232.996 668.989 236.417 674.978 c 0
 240.304 681.781 246.095 687.03 253.091 690.455 c 0
 256.35 692.073 259.909 692.942 263.545 693.466 c 1
EndSplineSet
Fore
SplineSet
134 172 m 0
 134 204 140 229 145 253 c 2
 230 655 l 2
 235 677 241 694 278 694 c 2
 323 694 l 2
 341 694 353 694 363 683 c 0
 368 677 373 670 373 657 c 0
 373 648 371 639 369 630 c 2
 287 245 l 2
 283 225 274 188 274 155 c 0
 274 101 298 64 389 64 c 0
 558 64 576 184 596 278 c 2
 676 655 l 2
 683 688 695 694 724 694 c 2
 768 694 l 2
 807 694 811 666 811 658 c 0
 811 653 810 648 809 643 c 2
 723 240 l 2
 682 47 569 -22 378 -22 c 0
 323 -22 134 -16 134 172 c 0
EndSplineSet
EndChar

StartChar: V
Encoding: 86 86 34
Width: 733
Flags: HW
HStem: -0 21G<319 410> 674 20G<209 270 772 816>
LayerCount: 2
Back
SplineSet
718.455 673.182 m 1
 718.454 673.182 l 1
 727.276 680.336 736.182 686.818 747.091 690.541 c 0
 757.453 694.027 768.103 694.08 778.909 694.091 c 2
 809.818 694.091 l 2
 818 694.088 826.395 694.545 834.296 691.924 c 0
 836.827 691.068 838.858 689.321 840.886 687.673 c 0
 842.961 685.986 844.192 683.539 845.461 681.263 c 1
 847.236 674.541 l 1
 848 666.306 844.086 658.769 840.206 651.818 c 2
 825.935 627.273 l 1
 762.489 518.636 l 1
 542.688 142.273 l 1
 493.587 58.1818 l 2
 487.545 47.9163 482.044 37.0381 474.568 27.7272 c 0
 466.263 17.4363 455.409 9.09086 443 4.42722 c 0
 427.668 -1.36368 410.914 -4.85182e-05 394.818 -4.85182e-05 c 2
 319.364 -4.85182e-05 l 2
 313.596 -4.85182e-05 307.777 -4.85182e-05 302.091 1.13495 c 0
 292.793 2.9145 284.271 7.40722 277.865 14.4336 c 0
 269.742 23.3431 267.425 34.3909 265.564 45.909 c 2
 262.746 63.6363 l 1
 246.279 167.273 l 1
 189.006 527.727 l 1
 173.455 625.455 l 1
 169.818 648.182 l 2
 168.734 655.773 167.61 663.483 170.261 670.906 c 0
 173.821 680.878 182.503 689.016 192.545 692.24 c 0
 197.83 693.936 203.415 694.011 208.909 694.074 c 2
 225.727 694.091 l 1
 258.909 694.091 l 2
 268.826 694.087 278.906 694.483 288.454 691.362 c 0
 292.713 689.97 296.504 687.727 300.181 685.279 c 2
 307.091 678.857 l 2
 314.655 670.198 316.865 659.622 318.668 648.636 c 2
 321.567 630.455 l 1
 337.282 531.364 l 1
 361.984 374.545 l 1
 388.872 199.545 l 1
 395.377 154.545 l 1
 399.364 125.455 l 1
 426.377 175 l 1
 466.303 244.545 l 1
 585.273 449.545 l 1
 668 591.364 l 1
 693 634.091 l 1
 709.055 660.897 l 1
 718.455 673.182 l 1
EndSplineSet
Fore
SplineSet
169 661 m 0
 169 673 176 694 209 694 c 2
 270 694 l 2
 319 694 318 651 322 630 c 2
 389 200 l 2
 394 170 399 125 399 125 c 1
 399 125 416 158 426 175 c 2
 697 641 l 2
 711 664 726 694 772 694 c 2
 816 694 l 2
 838 694 847 687 847 674 c 0
 847 667 847 664 840 652 c 2
 494 58 l 2
 472 21 460 -0 410 -0 c 2
 319 -0 l 2
 293 0 272 5 266 46 c 2
 170 648 l 2
 169 654 169 656 169 661 c 0
EndSplineSet
EndChar

StartChar: W
Encoding: 87 87 35
Width: 1039
Flags: HW
HStem: -0 21G<250 313 713 791> 674 20G<210 245 632 703 1099 1124>
LayerCount: 2
Back
SplineSet
636.818 568.636 m 1
 636.818 568.637 l 1
 618.421 528.637 l 1
 593.124 475.455 l 1
 518.636 320 l 1
 435.387 146.818 l 1
 392.727 58.1821 l 2
 387.954 48.2661 383.637 37.7275 377.396 28.6366 c 0
 370.725 18.953 361.567 10.8111 350.909 5.76251 c 0
 338.879 0.000238627 326.204 0.000238627 313.182 0.000238627 c 2
 277.727 0.000238627 l 1
 253.637 0.000238627 l 2
 241.338 0.000238627 229.273 -0.33567 218.182 5.90933 c 0
 214.922 7.72751 212.189 10.3971 209.546 13.1089 c 0
 207.382 15.3534 205.638 18.1616 204.219 20.9093 c 0
 200.114 28.9471 199.749 38.0111 199.233 46.8184 c 2
 197.412 79.0911 l 1
 190.444 202.728 l 1
 173.044 511.818 l 1
 167.519 610 l 1
 165.779 640.909 l 2
 165.382 647.953 164.584 655.242 165.455 662.273 c 0
 165.991 666.211 167.05 670.108 168.952 673.615 c 0
 170.548 676.56 172.445 679.468 174.825 681.818 c 0
 179.212 686.238 184.091 689.804 190 691.818 c 0
 196.567 694.091 203.592 694.057 210.455 694.087 c 2
 235 694.091 l 2
 245.285 694.09 256.024 694.836 265.908 691.479 c 0
 270 690 273.604 687.834 277.104 685.271 c 2
 283.317 678.951 l 2
 290.129 670.221 291.232 659.758 291.901 649.091 c 2
 293.043 629.091 l 1
 299.091 520.455 l 1
 307.634 361.818 l 2
 310.828 300.172 314.07 238.513 316.173 176.818 c 2
 317.273 125.455 l 1
 322.728 142.005 330.455 157.727 337.719 173.637 c 2
 370.535 244.091 l 1
 468.746 450.455 l 1
 536.818 592.273 l 1
 558.738 637.727 l 2
 563.381 647.367 567.567 657.592 573.78 666.354 c 0
 583.319 679.807 597.727 689.944 614.091 692.952 c 0
 624.476 694.864 635.399 694.091 645.909 694.091 c 2
 687.727 694.091 l 2
 705 694.091 724.783 696.535 738.759 684.091 c 2
 744.546 677.613 l 2
 746.462 674.546 748.182 671.596 749.292 668.181 c 0
 752.273 658.413 752.174 647.858 752.727 637.727 c 2
 758.346 538.182 l 1
 774.497 242.727 l 1
 778.42 163.637 l 1
 780 125.455 l 1
 790.244 149.229 801.639 172.529 812.727 195.909 c 2
 863.498 302.273 l 1
 1017.24 622.273 l 1
 1029.06 646.818 l 2
 1032.45 653.823 1035.78 660.909 1040.4 667.256 c 0
 1048.98 678.98 1061.36 688.094 1075.45 691.918 c 0
 1087.04 695 1099.48 694.091 1111.36 694.091 c 0
 1121.53 694.091 1132.52 695.255 1142.21 691.641 c 0
 1145.1 690.561 1147.25 688.504 1149.53 686.542 c 1
 1152.57 682.543 l 2
 1160.66 669.05 1151.07 653.636 1145.17 641.364 c 2
 1138.84 628.182 l 1
 1071.82 489.091 l 1
 920 173.636 l 1
 872.963 75.9091 l 1
 859.393 47.7273 l 2
 855.261 39.1759 851.208 30.5641 845 23.1818 c 0
 835.623 12.0691 822.651 3.775 808.182 1.12727 c 0
 797.653 -0.799546 786.565 -2.38419e-07 775.909 -2.38419e-07 c 2
 731.364 -2.38419e-07 l 1
 713.182 -2.38419e-07 l 2
 702.727 -2.38419e-07 692.273 0.638636 683.266 6.49 c 2
 676.228 12.2727 l 2
 673.464 15.4545 670.909 18.8186 669.311 22.7273 c 0
 665.415 32.0491 665.44 42.2727 664.87 52.2727 c 2
 659.432 149.091 l 1
 643.808 432.273 l 1
 639.334 518.182 l 1
 636.818 568.636 l 1
EndSplineSet
Fore
SplineSet
165 655 m 0
 165 686 187 694 210 694 c 2
 245 694 l 2
 284 694 290 673 292 649 c 2
 308 362 l 2
 319 149 316 173 317 125 c 1
 329 162 559 638 559 638 c 2
 571 664 583 694 632 694 c 2
 703 694 l 2
 754 694 751 662 753 638 c 2
 774 243 l 2
 778 172 779 137 780 125 c 1
 795 161 822 214 863 302 c 2
 1029 647 l 2
 1048 686 1067 694 1099 694 c 2
 1124 694 l 2
 1152 694 1156 680 1156 671 c 0
 1156 661 1149 650 1145 641 c 2
 859 48 l 2
 840 8 820 -0 791 -0 c 2
 713 -0 l 2
 665 0 666 30 665 52 c 2
 644 432 l 2
 641 482 637 569 637 569 c 1
 393 58 l 2
 368 7 354 -0 313 -0 c 2
 250 -0 l 2
 209 0 201 16 199 47 c 2
 166 641 l 2
 165 645 165 650 165 655 c 0
EndSplineSet
EndChar

StartChar: Y
Encoding: 89 89 36
Width: 733
Flags: HW
HStem: -0 21G<339 390> 674 20G<215 268 776 822>
LayerCount: 2
Back
SplineSet
459.333 403.111 m 5
 459.333 403.111 l 5
 467.312 414.959 476.667 425.689 486 436.445 c 4
 496.831 448.827 507.74 461.101 518.694 473.333 c 4
 552.047 510.582 585.72 547.547 619.461 584.445 c 6
 669.5 639.111 l 6
 683.125 653.973 696.433 669.313 714 679.659 c 4
 724.807 686.024 736.667 690.572 749.111 692.675 c 4
 758.663 694.298 768.344 694.216 778 694.221 c 6
 810 694.222 l 5
 819.333 694.216 l 6
 829.049 694.189 840.586 694.645 847.046 685.953 c 4
 848.036 684.621 848.835 683.111 849.409 681.592 c 4
 853.969 669.231 843.722 657.778 836.136 649.333 c 6
 830.889 643.556 l 5
 823.981 636 l 5
 712.667 514.667 l 5
 563.5 352 l 5
 519.057 303.556 l 5
 506.11 289.333 l 6
 502.134 284.837 498.192 280.171 495.682 274.667 c 4
 492.337 267.329 491.208 258.946 489.538 251.111 c 6
 481.313 212.445 l 5
 455.145 89.3335 l 5
 447.02 51.1112 l 6
 444.9 41.1841 443.002 30.9708 437.425 22.2223 c 4
 431.315 12.7886 421.779 5.30101 410.888 2.13478 c 4
 402.968 -0.168328 394.615 0.000116616 386.444 0.000116616 c 6
 356.222 0.000116616 l 5
 339.333 0.000116616 l 6
 332.667 0.171672 325.947 0.631228 319.889 3.55567 c 4
 317.393 4.82412 315.079 6.41301 313.046 8.30901 c 4
 311.333 9.88634 309.86 11.673 308.609 13.6183 c 4
 301.556 24.5695 304.623 37.4775 307.112 49.3335 c 6
 309.756 61.7779 l 5
 312.869 76.4446 l 5
 341.772 212.445 l 5
 350.273 252.445 l 6
 351.946 260.304 354.622 268.785 353.736 276.889 c 4
 353.111 282.222 350.82 287.205 348.508 292 c 6
 340.624 308 l 5
 311.264 367.556 l 5
 211.866 569.333 l 5
 179.437 635.111 l 6
 176.653 640.712 173.764 646.222 171.234 652 c 4
 168.945 657.177 166.964 662.667 167.333 668.443 c 4
 168.207 678.899 176.477 688.105 186 691.778 c 4
 190.697 693.575 195.705 693.995 200.667 694.134 c 4
 219.013 694.647 237.425 694.222 255.778 694.222 c 4
 266.411 694.222 277.217 694.667 287.778 693.221 c 4
 299.111 691.65 310 687.556 319.272 680.754 c 4
 325.203 676.357 330.349 670.955 334.444 664.86 c 4
 339.259 657.91 342.81 650.181 346.554 642.667 c 6
 368.623 597.778 l 6
 386.889 560.355 405.248 522.959 423.115 485.333 c 4
 435.951 458.301 449.1 431.259 459.333 403.111 c 5
EndSplineSet
Fore
SplineSet
167 667 m 0
 167 694 194 694 215 694 c 2
 268 694 l 2
 315 694 330 677 347 643 c 2
 347 643 441 453 459 403 c 1
 476 428 670 639 670 639 c 2
 714 687 733 694 776 694 c 2
 822 694 l 2
 833 694 851 693 851 675 c 0
 851 665 842 656 836 649 c 2
 506 289 l 2
 492 274 493 266 490 251 c 2
 450 66 l 2
 442 30 439 0 390 -0 c 2
 339 -0 l 2
 308 0 304 17 304 31 c 0
 304 36 307 52 312 75 c 2
 348 240 l 2
 352 257 354 270 354 272 c 0
 354 278 353 284 349 292 c 2
 179 635 l 2
 175 645 167 658 167 667 c 0
EndSplineSet
EndChar

StartChar: X
Encoding: 88 88 37
Width: 733
Flags: HW
HStem: -0 21G<70 146 578 660> 674 20G<233.218 319 689 757>
LayerCount: 2
Back
SplineSet
362.333 367.556 m 1
 362.333 367.556 l 1
 356.485 378.837 350.117 389.778 343.852 400.889 c 2
 318.164 446.222 l 1
 238.333 587.111 l 1
 207.116 642.222 l 2
 202.243 650.852 195.486 660.681 197.285 671.105 c 0
 199.222 682.452 209.565 691.23 220.556 693.304 c 0
 225.086 694.157 229.742 694.173 234.333 694.205 c 2
 250.778 694.222 l 1
 302.778 694.222 l 1
 318.778 694.183 l 2
 326.999 694.074 335.297 693.491 342.728 689.63 c 0
 353.361 684.106 359.189 673.709 364.679 663.556 c 2
 381.833 631.556 l 1
 431.373 539.111 l 2
 441.183 520.796 451.328 502.618 460.556 484 c 1
 479.175 503.111 496.987 523.042 515.064 542.667 c 2
 601.889 636.889 l 1
 628.556 665.766 l 2
 637.405 675.267 646.565 684.889 658.778 689.983 c 0
 668.308 693.932 678.333 694.187 688.556 694.216 c 0
 714.173 694.222 739.83 694.586 765.444 694.179 c 0
 774.333 694.037 784.212 692.983 789.142 684.434 c 0
 789.889 683.017 790.569 681.484 790.956 679.895 c 0
 793.739 668.444 784.975 658.458 777.871 650.667 c 0
 761.259 632.444 743.99 614.791 727.035 596.889 c 2
 587.222 449.333 l 2
 561.707 422.328 536.511 394.877 510.333 368.444 c 1
 526.574 338.222 543.812 308.552 560.556 278.667 c 2
 652.403 115.555 l 1
 687.4 53.3333 l 2
 692.672 43.9395 700.257 33.1248 697.58 21.7777 c 0
 695.011 10.9124 685 2.81237 674.33 0.865264 c 0
 669.654 -6.97374e-05 664.848 -6.97374e-05 660.111 -6.97374e-05 c 2
 643.222 -6.97374e-05 l 1
 589 -6.97374e-05 l 2
 575.983 -6.97374e-05 561.444 -1.3334 550.04 6.01149 c 0
 539.904 12.5604 534.778 23.8079 529.559 34.2222 c 2
 506.444 80.4444 l 1
 453.093 186.667 l 2
 440.099 212.406 426.955 238.074 414.333 264 c 1
 253.992 84 l 1
 210.04 34.6666 l 2
 200.264 23.6955 190.578 11.5155 176.997 5.1084 c 0
 164.192 -0.88893 149.889 -4.14252e-05 136.111 -4.14252e-05 c 2
 74.7778 -4.14252e-05 l 2
 64.5556 -4.14252e-05 52.0667 -0.783597 45.4445 8.64085 c 0
 44.5467 9.99507 43.7987 11.484 43.2222 13.0506 c 0
 39.2222 25.2346 49.212 36.2053 56.772 44.4444 c 0
 75.7671 65.1453 95.3267 85.3333 114.617 105.778 c 2
 272.415 272.889 l 1
 325.704 329.333 l 2
 337.818 342.161 349.787 355.111 362.333 367.556 c 1
EndSplineSet
Fore
SplineSet
42 19 m 0
 42 29 50 38 57 44 c 2
 362 368 l 1
 207 642 l 2
 203 650 197 659 197 667 c 0
 197 678 203 694 233 694 c 2
 319 694 l 2
 342 694 351 689 365 664 c 2
 365 664 452 502 461 484 c 1
 629 666 l 2
 654 693 665 694 689 694 c 2
 757 694 l 2
 774 694 791 693 791 676 c 0
 791 666 784 657 778 651 c 2
 510 368 l 1
 687 53 l 2
 692 45 698 36 698 27 c 0
 698 16 692 -0 660 -0 c 2
 578 -0 l 2
 549 0 543 8 530 34 c 2
 414 264 l 1
 210 35 l 2
 188 10 181 -0 146 -0 c 2
 70 -0 l 2
 55 0 42 4 42 19 c 0
EndSplineSet
EndChar

StartChar: Z
Encoding: 90 90 38
Width: 672
Flags: HW
HStem: 0 102<163.075 599.692> 598 96<238.618 711>
LayerCount: 2
Back
SplineSet
563.444 598.222 m 2
 563.445 598.222 l 1
 548.627 597.736 533.822 597.888 519 597.739 c 2
 452.333 596.889 l 1
 410.111 596.566 l 1
 375.445 596.396 l 2
 346.556 596 317.667 595.556 288.778 595.553 c 2
 256.778 595.111 l 2
 248.674 595.111 240.333 595.212 232.778 598.439 c 0
 229.382 599.891 226.21 601.884 223.394 604.296 c 0
 220.996 606.349 218.851 608.701 217.036 611.284 c 0
 215.445 613.452 214.227 615.785 213.222 618.222 c 0
 208.45 629.925 211.548 642.401 214.098 654.222 c 0
 215.363 660.083 216.618 666.042 219.085 671.538 c 0
 222.93 680.108 229.896 687.206 238.556 690.895 c 0
 245.332 693.77 252.643 694.116 259.889 694.193 c 2
 277.222 694.222 l 1
 347.445 694.222 l 1
 596.333 694.222 l 1
 707.445 694.22 l 2
 718.784 694.204 730.949 694.651 740.173 686.923 c 0
 741.828 685.536 743.323 683.959 744.616 682.222 c 0
 746.111 680.174 747.398 677.904 748.305 675.503 c 0
 751.991 665.745 749.377 655.111 747.313 645.333 c 0
 745.568 637.032 743.977 628.444 740.068 620.889 c 0
 736.302 613.557 730.717 607.363 725.184 601.333 c 2
 706.514 581.333 l 1
 644.486 515.111 l 1
 377.625 230.222 l 2
 337.494 187.408 297.622 144.339 257.222 101.778 c 1
 311.743 101.778 366.26 103.194 420.778 103.535 c 2
 521.667 104.444 l 1
 550.111 104.887 l 1
 582.556 105.292 l 2
 591.077 105.333 599.889 105.333 607.871 102.006 c 0
 611.283 100.554 614.453 98.56 617.222 96.1485 c 0
 619.662 94.0951 621.805 91.7431 623.619 89.1605 c 0
 625.141 86.9929 626.428 84.66 627.429 82.2076 c 0
 632.646 69.4338 628.566 55.524 625.813 42.6667 c 0
 624.333 36.0854 623.143 29.328 620.444 23.1111 c 0
 616.629 14.3605 609.595 7.08314 600.762 3.32759 c 0
 594.002 0.444477 586.69 0.106255 579.444 3.28422e-05 c 2
 561.222 3.28422e-05 l 1
 487.889 3.28422e-05 l 1
 228.333 3.28422e-05 l 1
 111.444 3.28422e-05 l 2
 99.4445 3.28422e-05 86.5556 -0.578189 77.0805 7.97203 c 0
 75.4445 9.41248 74.0467 11.036 72.7778 12.8045 c 0
 71.368 14.8956 70.2116 17.1876 69.3907 19.5556 c 0
 66.7276 27.4116 68.0378 35.6609 69.5938 43.5556 c 0
 70.8529 49.944 72.176 56.3405 73.6667 62.6667 c 0
 75.076 68.2303 76.7778 73.6591 79.668 78.6667 c 0
 83.1805 84.8889 87.8889 90.2991 92.7569 95.5556 c 2
 108.088 112 l 1
 174.698 183.111 l 1
 438.63 464.889 l 2
 480.239 509.326 522.091 553.547 563.444 598.222 c 2
EndSplineSet
Fore
SplineSet
68 30 m 0
 68 64 83 86 93 96 c 2
 563 598 l 1
 548 598 257 595 257 595 c 2
 238 595 211 599 211 632 c 0
 211 642 216 664 219 672 c 0
 228 692 245 694 260 694 c 2
 711 694 l 2
 727 694 750 692 750 665 c 0
 750 623 728 605 725 601 c 2
 257 102 l 1
 323 102 552 105 584 105 c 0
 603 105 630 101 630 68 c 0
 630 59 624 31 620 23 c 0
 611 2 594 0 579 0 c 2
 107 0 l 2
 85 0 68 6 68 30 c 0
EndSplineSet
EndChar

StartChar: asciicircum
Encoding: 94 94 39
Width: 672
Flags: HMW
HStem: 458 20 634 -20
VStem: 271 329<456.4 480.23 471 472>
LayerCount: 2
Back
SplineSet
455.222 552.444 m 1
 455.222 552.444 l 1
 443.469 543.849 432.047 534.815 420.555 525.876 c 2
 372.555 488.543 l 1
 349.889 470.94 l 2
 344.292 466.646 338.505 461.959 331.667 459.839 c 0
 325.813 458.024 319.504 458.222 313.444 458.222 c 0
 305.748 458.222 298.031 458.078 290.333 458.306 c 0
 284.828 458.468 278.639 458.956 274.473 463.019 c 0
 269.444 467.896 270.855 474.667 274.284 480 c 0
 277.2 484.538 281 488.444 284.652 492.444 c 2
 299.183 508 l 1
 380.727 595.111 l 1
 402.778 618.616 l 2
 407.667 623.785 412.932 629.538 419.742 632.201 c 0
 423.819 633.778 428.224 634.063 432.555 634.161 c 2
 445.889 634.222 l 1
 493.889 634.221 l 2
 502.618 634.214 512.869 635.239 519.982 629.166 c 0
 523.975 625.757 526.591 620.996 529 616.426 c 2
 537.889 599.111 l 1
 569.727 536.889 l 1
 593.995 489.333 l 2
 597.223 482.873 602.226 474.543 599.222 467.111 c 0
 597.243 462.106 592.24 459.556 587.158 458.819 c 0
 582.778 458.124 578.296 458.222 573.889 458.222 c 2
 556.111 458.222 l 2
 550.218 458.222 543.985 458.094 538.447 460.409 c 0
 532.87 462.741 528.556 467.269 524.556 471.664 c 0
 519.467 477.295 514.573 483.111 509.612 488.889 c 0
 491.421 510.009 472.909 530.899 455.222 552.444 c 1
EndSplineSet
Fore
SplineSet
271 471 m 0
 271 474 274 481 290 498 c 2
 403 619 l 2
 412 628 418 634 433 634 c 2
 501 634 l 2
 515 634 521 632 529 616 c 2
 589 498 l 2
 595 486 600 479 600 472 c 0
 600 460 589 458 577 458 c 2
 554 458 l 2
 524 458 533 467 455 552 c 1
 332 458 340 458 317 458 c 2
 298 458 l 2
 285 458 271 459 271 471 c 0
EndSplineSet
EndChar

StartChar: grave
Encoding: 96 96 40
Width: 550
Flags: HW
HStem: 528 151<270 435 270 435>
VStem: 249 206<541 665>
LayerCount: 2
Back
SplineSet
249 665 m 4
 249 679 261 679 270 679 c 6
 363 679 l 6
 381 679 382 674 392 657 c 6
 450 555 l 5
 454 545 l 5
 455 541 l 5
 452 527 442 528 431 528 c 6
 408 528 l 6
 391 528 390 529 375 542 c 4
 250 659 249 657 249 665 c 4
EndSplineSet
Fore
SplineSet
249 665 m 0
 249 679 261 679 270 679 c 2
 363 679 l 2
 381 679 382 674 392 657 c 2
 450 555 l 18
 452 551 455 544 455 541 c 0
 455 535 451 528 435 528 c 2
 408 528 l 2
 391 528 390 529 375 542 c 2
 264 645 l 2
 249 660 249 661 249 665 c 0
EndSplineSet
EndChar

StartChar: a
Encoding: 97 97 41
Width: 525
Flags: HMW
HStem: -11 73<176 281.3> 231 57<174.067 376.037> 405 70<270 385.6>
VStem: 351 185<127 354>
LayerCount: 2
Back
SplineSet
389.333 291.556 m 1
 389.333 291.556 l 1
 393.122 310.828 398.425 330.1 399.556 349.778 c 0
 400.235 360.889 399.451 372.997 394.081 383.063 c 0
 392.631 385.778 390.849 388.32 388.78 390.603 c 0
 377.442 403.111 360.351 404.889 344.444 404.836 c 0
 306.04 404.631 267.998 395.965 233.778 378.416 c 0
 220.889 371.838 208.658 364.199 196.889 355.884 c 0
 189.602 350.667 182.667 344.812 175.111 340.151 c 0
 169.144 336.444 161.333 334.546 156.227 340.712 c 0
 155.323 341.778 154.616 343.044 154.101 344.36 c 0
 152.279 349.012 152.838 354.222 153.333 359.111 c 2
 155.756 379.111 l 1
 159.422 408.444 l 2
 160.221 414.667 160.732 421.535 164.123 427.015 c 0
 168.683 434.384 177.703 437.545 185.333 440.667 c 0
 201.199 447.111 217.333 453.015 233.778 457.893 c 0
 275.111 470.178 317.778 475.111 360.889 475.104 c 0
 386.444 475.08 412.352 473.712 437.333 467.984 c 0
 471.981 460 506.464 442.099 523.316 409.333 c 0
 535.107 386.408 537.333 359.52 534.441 334.222 c 0
 532.586 318.202 528.605 302.424 525.265 286.667 c 2
 497.596 156.444 l 1
 488.567 111.556 l 1
 475.537 50.2222 l 2
 473.021 38.416 471.48 25.2613 464 15.3342 c 0
 462.222 12.8889 460.185 10.7564 457.884 8.84533 c 0
 445.333 -1.54223 428.998 -2.95043e-06 413.778 -2.95043e-06 c 2
 388.444 -2.95043e-06 l 2
 375.499 -2.95043e-06 362.497 -0.0382252 351.91 8.56355 c 0
 349.74 10.3271 347.765 12.3333 346.037 14.5324 c 0
 344.179 16.8889 342.612 19.488 341.333 22.2222 c 0
 339.207 27.1111 338.398 32.4444 337.778 37.7778 c 1
 325.682 30.124 313.433 22.8444 300.445 16.7902 c 0
 270.222 2.66666 237.536 -5.95111 204.445 -9.39645 c 0
 183.497 -11.5556 161.914 -12.3658 141.333 -7.168 c 0
 129.899 -4.28 118.87 0.323107 108.889 6.61822 c 0
 101.258 11.4311 94.2223 17.2053 88.0001 23.7427 c 0
 54.9978 58.4702 48.1769 112.73 64.2334 156.889 c 0
 68.1934 167.781 73.6974 178.07 80.344 187.556 c 0
 98.66 213.692 124.841 233.929 153.333 247.926 c 0
 166.763 254.523 180.858 259.642 195.111 264.144 c 0
 235.111 276.778 276.444 284 318.222 287.774 c 0
 341.889 289.913 365.598 290.664 389.333 291.556 c 1
376.444 231.556 m 1
 376.444 231.556 l 1
 363.679 230.551 350.921 229.591 338.222 227.912 c 0
 317.463 225.168 296.823 220.845 276.889 214.394 c 0
 253.077 206.667 230.667 195.556 213.333 177.182 c 0
 206.755 170.208 200.996 162.386 196.725 153.778 c 0
 185.112 130.37 183.957 97.6898 202.339 77.2902 c 0
 204.734 74.6315 207.419 72.2329 210.348 70.1755 c 0
 226.166 59.0653 246.885 60.5324 264.889 64.3475 c 0
 269.237 65.2689 273.539 66.4044 277.778 67.7449 c 0
 308 77.3164 336.612 97.7778 351.028 126.667 c 0
 357.976 140.559 360.444 156 363.689 171.111 c 0
 367.971 191.251 372.387 211.369 376.444 231.556 c 1
EndSplineSet
Fore
SplineSet
56 109 m 0
 56 181 107 269 318 288 c 0
 342 290 366 291 389 292 c 1
 394 317 400 337 400 356 c 0
 400 395 376 405 344 405 c 0
 235 405 183 337 165 337 c 0
 156 337 153 342 153 354 c 0
 153 365 156 383 159 408 c 0
 162 429 165 432 185 441 c 0
 242 464 291 475 361 475 c 0
 406 475 536 474 536 354 c 0
 536 343 535 332 532 318 c 2
 478 58 l 2
 468 11 459 -0 424 -0 c 2
 388 -0 l 2
 363 0 342 2 338 38 c 1
 314 23 257 -11 176 -11 c 0
 96 -11 56 47 56 109 c 0
188 117 m 0
 188 96 199 62 241 62 c 0
 278 62 330 84 351 127 c 0
 357 138 363 166 376 232 c 1
 221 221 188 163 188 117 c 0
EndSplineSet
EndChar

StartChar: b
Encoding: 98 98 42
Width: 561
Flags: HMW
HStem: -11 72<251.5 403.6> 397 72<373 452.3>
VStem: 69 270<36 684> 449 134<276.121 374.3>
LayerCount: 2
Back
SplineSet
203.556 27.5556 m 1
 203.556 27.5557 l 1
 199.474 17.9766 193.862 9.56101 184.402 4.58057 c 0
 173.583 -1.11499 160.72 0.000121951 148.889 0.000121951 c 2
 124.889 0.000121951 l 2
 110.142 0.000121951 94.3224 -1.34032 82.1327 8.56368 c 0
 79.8278 10.4366 77.7438 12.5823 75.9416 14.9432 c 0
 73.778 17.7028 72.1229 20.7606 70.9064 24.0001 c 0
 67.2518 33.7779 69.0047 43.8726 71.0376 53.7779 c 2
 76.4042 79.1112 l 1
 101.911 199.111 l 1
 177.862 556.445 l 1
 199.301 657.333 l 1
 204.702 682.667 l 2
 206.518 690.998 208.445 699.422 213.541 706.456 c 0
 215.279 708.863 217.301 711.065 219.553 713 c 0
 231.502 723.272 247.022 722.221 261.778 722.222 c 2
 288 722.221 l 2
 300.409 722.215 313.186 722.667 323.832 715.275 c 0
 326.13 713.666 328.246 711.798 330.133 709.722 c 0
 332.209 707.44 334.007 704.889 335.449 702.175 c 0
 337.201 698.856 338.402 695.26 338.996 691.556 c 0
 340.704 680.889 337.468 669.908 335.272 659.556 c 2
 324.445 608.889 l 2
 311.899 549.63 299.556 490.222 286.667 431.111 c 1
 320.427 449.204 356.606 461.778 394.667 466.825 c 0
 417.034 469.769 439.846 470.222 462.222 467.111 c 0
 478.44 464.889 494.439 460.697 509.334 453.778 c 0
 519.364 449.196 528.844 443.375 537.308 436.261 c 0
 542.667 431.74 547.672 426.667 552.144 421.313 c 0
 564.697 406.095 572.713 387.478 577.453 368.444 c 0
 585.778 334.921 584.171 299.245 579.111 265.333 c 0
 577.588 255.064 575.738 244.843 573.682 234.667 c 0
 561.922 176.444 542.222 118.465 503.417 72.4444 c 0
 496.573 64.3329 489.194 56.6671 481.323 49.5471 c 0
 472.328 41.4111 462.667 34.0093 452.444 27.4938 c 0
 437.038 17.6831 420.382 9.86978 403.111 3.95867 c 0
 378.604 -4.44444 352.889 -8.93244 327.111 -10.4871 c 0
 314.667 -11.2356 302.179 -11.3956 289.778 -10.1436 c 0
 270.1 -8.15733 250.824 -2.72978 233.333 6.57822 c 0
 222.513 12.3364 212.856 19.5556 203.556 27.5556 c 1
274.222 360.889 m 1
 274.222 360.889 l 1
 265.334 315.88 255.257 271.094 245.737 226.222 c 2
 226.373 135.111 l 1
 221.861 113.778 l 2
 220.645 107.735 219.515 101.504 221.778 95.5557 c 0
 224.098 89.6384 228.659 84.5908 233.238 80.3135 c 0
 245.494 68.8677 261.177 62.8926 277.778 61.7441 c 0
 286.507 61.1406 295.322 61.6424 304 62.6668 c 0
 326.112 65.2917 347.984 72.4446 366.218 85.4512 c 0
 377.334 93.4095 386.836 103.48 394.667 114.667 c 0
 415.014 143.539 424.366 178.445 431.952 212.445 c 0
 436.981 234.984 441.914 257.619 445.466 280.445 c 0
 448.108 297.417 450.072 314.814 448.81 332 c 0
 448.168 340.733 446.813 349.545 443.734 357.777 c 0
 442.219 361.778 440.26 365.706 437.778 369.271 c 0
 421.057 393.604 387.834 398.632 360.445 396.196 c 0
 355.375 395.745 350.329 395.025 345.334 394.05 c 0
 338.863 392.788 332.445 391.098 326.222 389.014 c 0
 307.218 382.667 290.395 372.538 274.222 360.889 c 1
EndSplineSet
Fore
SplineSet
69 36 m 0
 69 42 70 48 71 54 c 2
 205 683 l 2
 212 715 225 722 254 722 c 2
 292 722 l 2
 318 722 339 715 339 684 c 0
 339 680 339 677 334 655 c 2
 287 431 l 1
 338 458 387 469 430 469 c 0
 503 469 583 439 583 317 c 0
 583 265 565 145 503 72 c 0
 454 13 382 -11 310 -11 c 0
 265 -11 233 2 204 28 c 1
 194 4 180 -0 160 -0 c 2
 116 -0 l 2
 76 0 69 22 69 36 c 0
221 104 m 0
 221 86 244 61 286 61 c 0
 403 61 423 173 432 212 c 0
 440 247 449 292 449 321 c 0
 449 362 434 397 373 397 c 0
 328 397 298 378 274 361 c 1
 258.692 276.804 221 112.178 221 104 c 0
EndSplineSet
EndChar

StartChar: c
Encoding: 99 99 43
Width: 489
Flags: HW
HStem: -11 78<227.6 381.9> 397 78<296.1 449.868>
VStem: 76 134<71.5 194.132>
LayerCount: 2
Back
SplineSet
358.222 474.856 m 1
 358.222 474.856 l 1
 371.839 475.348 385.498 475.111 399.111 474.663 c 0
 418.532 473.924 437.966 472.167 456.889 467.556 c 0
 473.333 463.541 489.229 457.304 504.444 449.778 c 0
 513.333 445.333 522.751 440.889 530.815 435.065 c 0
 532.776 433.637 534.646 432 536.175 430.154 c 0
 543.021 421.685 537.922 411.03 534.524 402.222 c 2
 519.664 364 l 2
 517.66 358.87 515.809 353.512 512.889 348.789 c 0
 511.096 345.772 508.639 342.939 505.296 341.577 c 0
 498.966 338.998 492.889 343.111 488.307 347.198 c 0
 484.148 350.873 480.348 354.946 476.341 358.784 c 0
 470.624 364.261 464.635 369.478 458.222 374.13 c 0
 450.142 379.991 441.333 384.829 432 388.278 c 0
 417.511 393.609 402.005 395.651 386.667 396.579 c 0
 377.649 397.125 368.589 397.46 359.556 397.186 c 0
 347.488 396.82 335.51 394.96 324 391.275 c 0
 315.631 388.595 307.544 385.013 300 380.444 c 0
 258.344 355.556 239.959 306.602 228.864 261.778 c 0
 226.965 254.103 225.217 246.391 223.532 238.667 c 0
 221.276 228.319 219.086 217.952 217.065 207.556 c 0
 212.32 183.111 208.097 157.778 210.667 132.889 c 0
 212 120.616 214.847 107.989 221.333 97.3334 c 0
 234.496 75.836 259.545 67.5556 283.556 66.8498 c 0
 293.179 66.5489 302.869 67.1111 312.444 68 c 0
 345.058 71.2907 376.796 81.0351 405.778 96.3 c 0
 415.556 101.455 425.053 107.111 434.222 113.333 c 0
 440.336 117.496 446.17 122.092 452.444 125.972 c 0
 457.589 129.154 464.133 131.896 469.753 128.161 c 0
 470.667 127.543 471.517 126.786 472.233 125.93 c 0
 475.556 121.935 475.822 116.444 475.498 111.55 c 0
 474.954 103.231 473.576 94.9338 472.532 86.6667 c 2
 469.136 60 l 2
 468.33 53.7778 467.734 47.2111 464.401 41.7778 c 0
 459.382 33.6836 449.18 29.7778 440.889 25.9831 c 0
 421.896 17.208 402.304 9.7387 382.222 3.85469 c 0
 344.339 -7.24575 304.758 -11.8337 265.333 -11.0089 c 0
 233.653 -10.3457 201.294 -6.33019 171.556 5.07069 c 0
 158.336 10.1382 145.667 16.6805 134.222 25.0462 c 0
 125.635 31.3249 117.765 38.576 110.884 46.6667 c 0
 106.402 51.9796 102.34 57.6209 98.76 63.5556 c 0
 71.8555 108.154 72.8889 163.652 81.42 213.333 c 0
 83.0329 222.667 84.972 232 87.1111 241.333 c 0
 90.1871 254.667 93.7778 267.884 98.1142 280.889 c 0
 104.096 299.058 111.294 316.792 120.112 333.778 c 0
 130.639 354.055 143.421 373.164 158.658 390.214 c 0
 170.011 402.917 182.663 414.445 196.444 424.444 c 0
 243.339 458.569 300.97 472.789 358.222 474.856 c 1
EndSplineSet
Fore
SplineSet
76 156 m 0
 76 185 81 214 87 241 c 0
 140 470 315 475 378 475 c 0
 430 475 462 471 501 451 c 0
 512 446 539 436 539 422 c 0
 539 417 539 413 535 404 c 2
 519 363 l 2
 514 351 511 341 501 341 c 0
 478 341 474 397 367 397 c 0
 278 397 245 336 224 239 c 0
 218 211 210 180 210 149 c 0
 210 86 242 67 290 67 c 0
 395 67 445 130 464 130 c 0
 471 130 476 125 476 114 c 0
 476 100 468 47 464 42 c 0
 452 23 357 -11 274 -11 c 0
 99 -11 76 91 76 156 c 0
EndSplineSet
EndChar

StartChar: d
Encoding: 100 100 44
Width: 561
Flags: HMW
HStem: -11 73<204.7 308.8> 397 72<278.5 421.7> 722 -20
VStem: 74 134<84.7 183.199> 370 274<32 686>
LayerCount: 2
Back
SplineSet
456.222 432 m 1
 456.222 432 l 1
 460.907 456 466.27 480 471.333 504 c 2
 495.94 619.555 l 1
 507.333 673.333 l 2
 509.656 684 511.153 695.857 517.332 705.19 c 0
 518.965 707.656 520.886 709.928 523.046 711.948 c 0
 525.054 713.778 527.268 715.484 529.644 716.868 c 0
 539.63 722.667 551.282 722.212 562.445 722.221 c 2
 590.445 722.222 l 2
 601.058 722.22 612.48 723.096 622.425 718.667 c 0
 631.681 714.615 639.192 706.511 642.369 696.883 c 0
 645.361 687.815 643.778 678.458 641.988 669.333 c 2
 637.384 647.556 l 1
 615.855 546.222 l 1
 535.266 167.111 l 1
 512.882 61.7778 l 1
 508.142 39.5556 l 2
 506 29.7676 503.531 20.1031 496.6 12.4445 c 0
 494.592 10.2974 492.327 8.32848 489.86 6.65559 c 0
 477.894 -1.45863 462.866 3.26037e-05 449.111 3.26037e-05 c 2
 422 3.26037e-05 l 2
 410.525 3.26037e-05 398.524 -0.528856 388.324 5.61737 c 0
 385.961 7.04048 383.765 8.73559 381.777 10.6467 c 0
 379.655 12.6858 377.77 14.972 376.18 17.4489 c 0
 373.387 21.7778 371.778 26.6094 370.445 31.5556 c 1
 360.143 25.1774 349.772 18.944 338.889 13.5943 c 0
 318.545 3.55559 296.795 -3.82308 274.445 -7.7293 c 0
 252.858 -11.5017 230.881 -11.9173 209.111 -9.56664 c 0
 190.868 -7.5973 172.667 -3.55552 155.778 3.55559 c 0
 144.187 8.41959 133.111 14.6667 123.333 22.568 c 0
 117.2 27.5214 111.525 33.076 106.445 39.1111 c 0
 76.0183 75.8307 71.5014 126.222 75.3334 172 c 0
 76.053 180 77.0103 188 78.197 196 c 0
 79.6592 205.778 81.4085 215.556 83.3334 225.333 c 0
 96.4143 288.882 118.445 352.831 164.42 400.415 c 0
 171.466 407.717 178.889 414.629 186.889 420.889 c 0
 197.111 428.993 208.169 436 219.778 442.061 c 0
 238.171 451.556 257.794 458.417 278 462.883 c 0
 300.637 467.886 324.166 470.024 347.333 469.104 c 0
 374.889 468 402.444 461.871 427.333 449.724 c 0
 437.55 444.734 447.021 438.653 456.222 432 c 1
365.111 396.579 m 1
 365.111 396.579 l 1
 350.445 395.902 335.884 393.436 322 388.742 c 0
 312.5 385.529 303.334 381.256 294.889 375.833 c 0
 290 372.735 285.481 369.261 281.194 365.452 c 0
 249.339 337.148 236.13 294.375 226.716 254.222 c 2
 221.556 231.111 l 2
 218.75 217.778 215.929 204.444 213.514 191.111 c 0
 212.369 184.76 211.326 178.391 210.428 172 c 0
 207.895 153.957 206.34 135.454 208.99 117.333 c 0
 210.997 103.556 215.857 90.5249 226 80.7498 c 0
 229.386 77.5507 233.111 74.7907 237.111 72.4444 c 0
 243.478 68.7947 250.435 66.2222 257.556 64.5249 c 0
 267.334 62.1427 277.659 61.2409 287.778 61.5658 c 0
 314.078 62.4102 338.983 72.5315 360.222 87.7231 c 0
 368.418 93.5853 377.456 100.231 382.755 108.984 c 0
 386.626 115.378 387.778 123.02 389.354 130.222 c 2
 396.072 161.778 l 1
 419.334 271.556 l 1
 433.556 338.222 l 1
 436.901 354.221 l 2
 437.738 358.667 438.421 363.442 436.8 367.847 c 0
 434.159 375.025 426.889 380.147 420.657 384 c 0
 403.993 394.296 384.426 397.472 365.111 396.579 c 1
EndSplineSet
Fore
SplineSet
74 145 m 0
 74 215 102 381 220 442 c 0
 252 459 292 469 337 469 c 0
 409 469 447 439 456 432 c 1
 507 673 l 2
 513 701 515 722 558 722 c 2
 599 722 l 2
 639 722 644 696 644 686 c 0
 644 680 643 675 642 669 c 2
 508 40 l 2
 502 9 489 -0 460 -0 c 2
 416 -0 l 2
 404 0 378 1 370 32 c 1
 334 9 292 -11 236 -11 c 0
 160 -11 74 20 74 145 c 0
208 138 m 0
 208 97 223 62 284 62 c 0
 331 62 373 93 383 109 c 0
 387 116 438 352 438 362 c 0
 438 378 410 397 371 397 c 0
 255 397 233 297 214 191 c 0
 211 175 208 156 208 138 c 0
EndSplineSet
EndChar

StartChar: e
Encoding: 101 101 45
Width: 511
Flags: HW
HStem: -11 72<205.6 379.6> 214 65<221 426> 403 72<289.2 434.8>
VStem: 72 126<72.4 203.311> 432 109<287.37 386.6>
LayerCount: 2
Back
SplineSet
204 213.778 m 1
 204 213.778 l 1
 200.116 188.13 195.693 162.471 198.305 136.444 c 0
 199.643 123.111 202.667 109.535 209.333 97.7777 c 0
 211.364 94.2079 213.74 90.8386 216.439 87.7413 c 0
 229.112 73.1995 247.556 66.2222 266.222 63.3293 c 0
 280 61.1457 294.096 60.9964 308 61.7777 c 0
 335.032 63.3177 361.749 69.1173 387.111 78.5693 c 0
 405.191 85.3071 422.587 93.7297 439.111 103.688 c 0
 448.112 109.113 456.609 115.218 465.333 121.06 c 0
 470.915 124.798 478.303 129.294 484.985 125.46 c 0
 485.944 124.889 486.818 124.215 487.556 123.414 c 0
 488.543 122.399 489.32 121.216 489.903 119.945 c 0
 491.984 115.408 491.524 110.154 491.026 105.332 c 2
 488.417 84 l 1
 485.497 60.8889 l 2
 484.674 54.8497 483.797 48.4444 480.096 43.4266 c 0
 476.527 38.56 471.026 35.5555 465.76 32.8808 c 0
 458.214 29.0311 450.458 25.5586 442.667 22.2222 c 0
 407.936 7.44174 371.221 -2.92315 333.778 -7.85471 c 0
 320.444 -9.60137 307.111 -10.6707 293.778 -10.9858 c 0
 281.921 -11.2654 270.05 -10.8334 258.222 -9.99826 c 0
 207.54 -6.42004 154.955 7.30485 117.998 44.2297 c 0
 111.111 51.0786 104.889 58.6075 99.5555 66.6666 c 0
 68.4444 113.333 67.8217 173.212 77.3333 226.667 c 0
 79.0386 235.911 80.987 245.104 83.2386 254.222 c 0
 86.3884 266.978 90.1213 279.556 94.459 292 c 0
 101.014 310.742 109.072 329.002 118.976 346.222 c 0
 133.307 371.111 151.526 393.887 173.333 412.663 c 0
 192.889 429.513 215.228 442.988 239.111 452.783 c 0
 270.46 465.64 304 472.18 337.778 474.309 c 0
 358.046 475.556 378.462 475.425 398.667 473.27 c 0
 429.768 469.954 461.21 461.333 486.666 442.519 c 0
 494.328 436.854 501.333 430.312 507.556 423.088 c 0
 511.872 418.091 515.747 412.738 519.111 407.111 c 0
 541.921 369.778 543.704 324.444 538.354 282.222 c 0
 537.223 273.291 535.769 264.396 534.073 255.556 c 0
 531.753 243.459 528.814 231.73 519.111 223.273 c 0
 514.804 219.46 509.616 216.709 503.999 215.309 c 0
 496.639 213.474 488.86 213.778 481.333 213.778 c 2
 432 213.778 l 1
 204 213.778 l 1
425.778 278.667 m 1
 425.778 278.667 l 1
 429.613 299.435 432.444 320.611 431.232 341.778 c 0
 430.435 355.275 427.813 370.066 419.555 381.16 c 0
 411.284 392.344 398.217 397.96 384.889 400.444 c 0
 361.636 404.889 336.726 402.06 314.667 393.718 c 0
 303.737 389.585 293.333 383.995 284 377.008 c 0
 272.188 368.198 262.165 357.229 253.519 345.333 c 0
 238.914 325.234 228.252 302.339 220.889 278.667 c 1
 425.778 278.667 l 1
EndSplineSet
Fore
SplineSet
72 169 m 0
 72 249 110 475 363 475 c 0
 501 475 541 400 541 320 c 0
 541 298 538 276 534 256 c 0
 526 215 506 214 486 214 c 2
 204 214 l 1
 201 193 198 173 198 153 c 0
 198 91 226 61 294 61 c 0
 405 61 461 127 480 127 c 0
 488 127 491 120 491 110 c 0
 491 95 486 68 485 56 c 0
 483 40 469 34 466 33 c 0
 422 11 358 -11 286 -11 c 0
 186 -11 72 25 72 169 c 0
221 279 m 1
 426 279 l 1
 429 296 432 314 432 332 c 0
 432 374 418 403 362 403 c 0
 306 403 249 369 221 279 c 1
EndSplineSet
EndChar

StartChar: f
Encoding: 102 102 46
Width: 336
Flags: HMW
HStem: -0 21G<140 179> 386 72<115 167 314 397> 661 72<322.3 495.299>
VStem: 94 245<38 574>
LayerCount: 2
Back
SplineSet
182.778 458.222 m 1
 182.778 458.223 l 1
 186.778 480.396 191.901 502.4 196.555 524.445 c 0
 201.341 546.847 205.586 569.334 213 591.111 c 0
 226.559 630.453 249.863 666.436 283.667 691.253 c 0
 296.665 700.796 310.963 708.624 325.889 714.667 c 0
 355.216 726.667 386.778 731.679 418.333 732.992 c 0
 439.368 733.868 460.555 733.273 481.444 730.451 c 0
 488.904 729.442 496.315 728.123 503.667 726.506 c 0
 508.269 725.493 512.928 724.445 517.373 722.887 c 0
 524.513 720.338 530.115 715.483 530.52 707.497 c 0
 530.716 703.639 529.964 699.768 529.225 696 c 2
 526.249 681.778 l 2
 523.32 668 520.744 654.116 517.359 640.445 c 0
 515.595 633.333 512.028 623.854 503.19 623.901 c 0
 496.904 623.934 492.111 629.244 488.201 633.479 c 0
 482.333 639.751 476.369 645.755 468.992 650.222 c 0
 458.766 656.445 447.056 659.3 435.222 660.292 c 0
 413.318 662.128 389.745 658.592 372.204 644.444 c 0
 368.682 641.622 365.443 638.437 362.52 634.987 c 0
 347.534 617.293 343.222 594.46 338.563 572.445 c 2
 314.333 458.222 l 1
 354.778 458.219 l 2
 365 458.202 375.653 458.423 384.94 453.333 c 0
 388.89 451.231 392.422 448.333 395.344 444.889 c 0
 398.059 441.749 400.239 438.122 401.705 434.211 c 0
 407.936 417.596 400.026 398.656 384.497 390.436 c 0
 374.544 385.168 363.031 385.778 352.111 385.778 c 2
 301.889 385.778 l 1
 296.278 356.19 289.541 326.789 283.222 297.333 c 2
 250.41 142.667 l 1
 233.781 64.4445 l 1
 228.764 40.8889 l 2
 227.368 34.4236 226.041 27.8094 223.175 21.7778 c 0
 221.711 18.6667 219.853 15.8654 217.634 13.2911 c 0
 215.796 11.1111 213.721 9.22892 211.459 7.55247 c 0
 200.298 -0.715528 186.636 2.70605e-05 173.444 2.70605e-05 c 2
 145 2.70605e-05 l 2
 133.702 2.70605e-05 121.864 -0.537751 111.755 5.33336 c 0
 109.38 6.74758 107.166 8.40714 105.158 10.2222 c 0
 102.878 12.4174 100.859 14.8316 99.18 17.464 c 0
 97.7804 19.6578 96.5555 22.0049 95.744 24.4445 c 0
 91.52 36.2351 94.9391 48.6805 97.4355 60.4445 c 2
 107.667 108.889 l 1
 145.994 288.889 l 2
 152.867 321.184 159.222 353.634 166.778 385.778 c 1
 156.071 385.778 145.437 386.168 136.248 392.393 c 0
 121.42 402.438 115.811 422.161 124.248 438.175 c 0
 126.26 441.995 128.97 445.44 132.111 448.34 c 0
 136.923 452.654 142.724 455.638 149 456.987 c 0
 154.677 458.207 160.548 458.186 166.327 458.211 c 2
 182.778 458.222 l 1
EndSplineSet
Fore
SplineSet
94 38 m 0
 94 41 97 61 103 88 c 2
 167 386 l 1
 127 386 120 408 120 422 c 0
 120 434 126 458 166 458 c 2
 183 458 l 1
 185 472 204 565 213 591 c 0
 240 669 302 733 435 733 c 0
 468 733 502 728 517 723 c 0
 528 719 531 713 531 706 c 0
 531 700 520 653 517 640 c 0
 514 629 510 624 504 624 c 0
 486 624 484 661 425 661 c 0
 371 661 354 637 339 574 c 2
 314 458 l 1
 355 458 l 2
 397 458 404 436 404 422 c 0
 404 409 397 386 358 386 c 2
 302 386 l 1
 229 41 l 2
 221 2 200 -0 179 -0 c 2
 140 -0 l 2
 115 0 94 8 94 38 c 0
EndSplineSet
EndChar

StartChar: g
Encoding: 103 103 47
Width: 550
Flags: HMW
HStem: -206 72<167.9 427.9> -17 109<170.245 369> 138 72<238.9 379.3> 397 72<237.7 375.5 509 606.773>
VStem: 8 104<-141.7 -49.3> 408 106<-88.2 -15.4>
LayerCount: 2
Back
SplineSet
122.222 192.444 m 1
 122.222 192.444 l 1
 115.522 204 109.767 215.812 106.491 228.889 c 0
 100.717 251.935 101.505 276.322 105.75 299.555 c 0
 114.368 346.667 137.217 392 175.111 422.222 c 0
 210.344 450.414 254.822 463.351 299.111 467.533 c 0
 314.768 469.012 330.502 469.427 346.222 469.305 c 0
 368.225 469.136 390.468 467.556 412 462.864 c 0
 423.092 460.436 434 457.136 444.444 452.665 c 0
 451.556 449.597 459.076 444.608 467.111 444.62 c 0
 472.75 444.628 478.222 446.841 483.556 448.561 c 0
 491.057 451 498.606 453.274 506.222 455.329 c 0
 528.889 461.456 552.135 465.635 575.556 467.766 c 0
 583.376 468.444 591.253 469.053 599.109 469.123 c 0
 604.123 469.167 609.556 469.007 613.974 466.341 c 0
 619.545 462.979 621.132 456.762 621.327 450.653 c 0
 621.557 443.416 621.014 436.12 620.755 428.889 c 0
 620.444 422.222 620.58 415.509 619.705 408.889 c 0
 618.962 403.322 616.783 397.778 611.443 395.111 c 0
 606.826 392.836 601.41 393.3 596.443 393.773 c 2
 576.444 395.717 l 2
 552.318 397.68 528.178 397.493 504 396.889 c 1
 507.068 388.296 509.778 379.656 511.48 370.667 c 0
 514.434 354.653 514.409 337.923 512.557 321.778 c 0
 506.745 271.102 483.556 220.561 443.995 187.556 c 0
 437.28 181.994 430.128 176.889 422.667 172.399 c 0
 376.266 144.136 321.333 137.613 268 138.222 c 0
 240.993 138.606 213.447 140.984 187.556 149.073 c 0
 178.976 151.753 170.766 155.234 162.667 159.111 c 1
 159.321 152.242 156 145.308 154.485 137.777 c 0
 153.492 132.966 153.166 127.997 153.744 123.111 c 0
 154.196 119.291 155.204 115.531 156.833 112 c 0
 158.108 109.309 159.753 106.754 161.709 104.444 c 0
 163.389 102.489 165.295 100.709 167.38 99.1111 c 0
 178.004 91.3351 191.456 92 204 92 c 2
 223.556 92 l 1
 242.222 92 l 1
 292 92 l 2
 320.759 92 349.578 91.9973 378.222 89.0871 c 0
 399.111 86.96 420.111 83.3218 440 76.2804 c 0
 458.222 69.7778 476.33 60.4244 489.553 46.0244 c 0
 497.295 37.5933 503.111 27.5556 507.084 16.8889 c 0
 510.667 7.06 512.81 -3.35245 513.679 -13.7778 c 0
 515.111 -31.5618 513.681 -49.6916 509.915 -67.1111 c 0
 507.111 -79.8298 502.8 -92.0747 496.653 -103.556 c 0
 492.282 -111.721 487.104 -119.444 481.306 -126.667 c 0
 468.84 -142.222 453.528 -155.384 436.444 -165.595 c 0
 424.242 -172.889 411.111 -178.667 397.778 -183.556 c 0
 362.667 -196.336 325.624 -202.222 288.444 -204.444 c 0
 275.283 -205.199 262.073 -205.636 248.889 -205.778 c 0
 230.959 -205.899 213.032 -205.778 195.111 -205.198 c 0
 162.053 -204.087 128.531 -200.783 96.8889 -190.676 c 0
 80.86 -185.556 64.9933 -178.753 51.1111 -169.145 c 0
 41.8733 -162.75 33.628 -154.831 26.968 -145.778 c 0
 23.2929 -140.774 20.148 -135.4 17.5284 -129.778 c 0
 -2.01601 -87.832 11.324 -35.9151 41.1733 -2.26844 c 0
 53.9533 12.1373 69.5773 22.5178 87.1111 30.2222 c 1
 81.9831 42.3178 77.7395 54.4484 76.1315 67.5556 c 0
 70.484 113.588 91.1862 159.417 122.222 192.444 c 1
322.222 397.014 m 1
 322.222 397.014 l 1
 311.839 396.444 301.415 394.978 291.556 391.556 c 0
 286.108 389.709 280.861 387.24 276 384.109 c 0
 250.598 367.67 242.384 337.155 236.241 309.333 c 2
 232.405 291.111 l 2
 229.772 277.868 227.258 264.226 227.842 250.667 c 0
 228.21 242.126 230.108 233.519 235.485 226.665 c 0
 246.212 212.995 265.591 210.772 281.778 210.377 c 0
 285.333 210.222 288.889 210.323 292.444 210.473 c 0
 303.109 210.922 313.778 212.355 324 215.737 c 0
 329.6 217.602 334.999 220.075 339.97 223.267 c 0
 365.7 239.786 373.952 270.576 380.103 298.667 c 2
 383.745 316 l 2
 386.419 329.333 389.055 343.203 388.43 356.889 c 0
 388 365.459 386.116 374.091 380.68 380.889 c 0
 369.749 394.667 350.158 396.84 333.778 397.189 c 0
 329.926 397.271 326.07 397.212 322.222 397.014 c 1
165.333 -17.3333 m 1
 165.333 -17.3333 l 1
 153.553 -18.284 142.193 -21.9147 133.205 -29.8373 c 0
 122.948 -38.88 116.889 -51.7302 113.911 -64.8889 c 0
 111.941 -73.52 111.489 -82.6667 114.222 -91.1111 c 0
 117.333 -100.495 123.989 -108.222 132.091 -113.778 c 0
 138.072 -117.778 144.768 -120.715 151.556 -123.126 c 0
 163.446 -127.348 175.94 -129.778 188.445 -131.276 c 0
 206.415 -133.443 224.586 -133.778 242.667 -133.778 c 0
 261.503 -133.78 280.377 -133.376 299.111 -131.261 c 0
 315.706 -129.388 332.246 -126.001 348 -120.444 c 0
 365.925 -114.024 382.571 -104.444 394.529 -89.3334 c 0
 404.396 -76.8111 412.648 -58.0867 403.959 -42.8431 c 0
 402.667 -40.6765 401.199 -38.6813 399.46 -36.896 c 0
 396.881 -34.2498 393.778 -32.0907 390.592 -30.3547 c 0
 382.157 -25.8542 372.444 -23.6711 363.111 -21.9431 c 0
 346.115 -18.7969 328.803 -17.824 311.556 -17.3333 c 0
 282.222 -16.4445 252.877 -16.8889 223.556 -16.8889 c 2
 188.889 -16.8889 l 2
 181.048 -16.8898 173.156 -16.692 165.333 -17.3333 c 1
EndSplineSet
Fore
SplineSet
8 -87 m 0
 8 -58 22 1 87 30 c 1
 80 47 75 61 75 83 c 0
 75 124 95 163 122 192 c 1
 108 217 102 235 102 264 c 0
 102 339 143 469 341 469 c 0
 436 469 450 445 467 445 c 0
 484 445 530 469 600 469 c 0
 621 469 621 457 621 448 c 2
 621 425 l 2
 621 403 617 393 603 393 c 0
 589 393 582 397 533 397 c 2
 504 397 l 1
 511 376 514 364 514 344 c 0
 514 264 470 138 274 138 c 0
 223 138 193 145 163 159 c 1
 158 150 154 141 154 128 c 0
 154 98 177 92 198 92 c 2
 296 92 l 2
 405 92 514 85 514 -27 c 0
 514 -99 478 -206 240 -206 c 0
 139 -206 8 -196 8 -87 c 0
112 -78 m 0
 112 -127 185 -134 242 -134 c 0
 385 -134 408 -81 408 -57 c 0
 408 -25 369 -17 267 -17 c 2
 180 -17 l 2
 126 -17 112 -49 112 -78 c 0
228 254 m 0
 228 219 250 210 287 210 c 0
 358 210 371 256 380 299 c 0
 383 316 389 334 389 353 c 0
 389 388 365 397 330 397 c 0
 259 397 246 355 236 309 c 0
 233 292 228 273 228 254 c 0
EndSplineSet
EndChar

StartChar: h
Encoding: 104 104 48
Width: 561
Flags: HMW
HStem: -0 21G<112 159 419 465> 397 72<361.6 450> 722 -20
VStem: 68 270<37 684> 373 203<37 375>
LayerCount: 2
Back
SplineSet
280.333 406.222 m 1
 280.333 406.222 l 1
 291.889 415.688 303.889 424.557 316.778 432.286 c 0
 344.259 448.824 374.901 460.578 406.555 465.93 c 0
 430.279 469.941 454.555 470.147 478.555 468.197 c 0
 505.398 466.012 533.31 459.555 552.778 439.687 c 0
 556.326 436.109 559.444 432.197 562.227 427.994 c 0
 565.666 422.602 568.522 416.75 570.555 410.667 c 0
 580.624 381.331 574.555 349.595 569.222 320 c 0
 565.578 299.908 561.142 279.973 556.899 260 c 2
 538.952 175.555 l 1
 512.126 49.3332 l 2
 509.222 35.999 507.429 21.4772 497.393 11.347 c 0
 495.428 9.3332 493.222 7.55542 490.894 6.09275 c 0
 488.296 4.43498 485.487 3.11098 482.551 2.17764 c 0
 476.951 0.389642 471 0.120308 465.222 -0.000136107 c 2
 449.222 -0.000136107 l 1
 423.444 -0.000136107 l 2
 412.28 -0.000136107 400.627 -0.444581 390.644 5.3332 c 0
 388.269 6.74742 386.055 8.40697 384.046 10.2221 c 0
 381.89 12.3016 379.967 14.5705 378.345 17.0376 c 0
 376.564 19.7443 375.155 22.6665 374.187 25.7776 c 0
 370.789 36.6332 373.666 47.9008 375.889 58.6665 c 2
 386.339 107.555 l 1
 426.959 298.667 l 1
 432.015 322.222 l 2
 433.831 330.335 435.755 338.411 436.778 346.667 c 0
 438.02 356 438.634 366.003 435.611 375.074 c 0
 434.814 377.467 433.742 379.77 432.333 381.887 c 0
 423.105 396.122 403.23 397.287 387.889 396.59 c 0
 384.768 396.444 381.653 396.169 378.555 395.765 c 0
 374.521 395.239 370.513 394.502 366.555 393.555 c 0
 361.667 392.4 356.982 390.925 352.333 389.189 c 0
 309.939 373.333 275.885 335.896 260.434 293.778 c 0
 256.333 282.644 254.282 271.111 251.889 259.555 c 2
 243.322 219.111 l 1
 218.758 103.555 l 1
 207 48.4444 l 2
 204.677 37.3319 203.097 25.1711 196.251 15.7524 c 0
 194.493 13.3333 192.448 11.1111 190.111 9.18483 c 0
 185.917 5.54705 180.875 2.91372 175.443 1.54572 c 0
 167.807 -0.377394 159.7 -6.02603e-05 151.889 -6.02603e-05 c 2
 123 -6.02603e-05 l 2
 112.611 -6.02603e-05 101.386 -0.888949 91.4444 2.66661 c 0
 76.3333 8.19816 66.8635 23.2026 67.759 39.111 c 0
 68.1137 45.3333 69.575 51.5555 70.871 57.7777 c 2
 76.1581 82.6666 l 1
 92.7777 160.889 l 1
 183.189 586.222 l 1
 203.413 681.333 l 2
 204.778 687.792 206.111 694.41 208.977 700.416 c 0
 213.748 710.474 222.814 718.118 233.667 720.739 c 0
 243.889 723.221 255.176 722.222 265.667 722.222 c 2
 289.222 722.219 l 2
 301.667 722.202 314.111 722.154 324.5 714.037 c 0
 326.712 712.296 328.732 710.309 330.507 708.124 c 0
 332.42 705.768 334.048 703.111 335.313 700.42 c 0
 340.58 688.889 337.883 676.704 335.399 664.889 c 2
 325.015 616 l 1
 296.2 480.444 l 2
 290.94 455.7 285.844 430.913 280.333 406.222 c 1
EndSplineSet
Fore
SplineSet
68 37 m 0
 68 41 68 43 71 58 c 2
 203 681 l 2
 208 704 215 722 251 722 c 2
 289 722 l 2
 310 722 338 719 338 684 c 0
 338 680 338 678 328 632 c 2
 280 406 l 1
 327 444 382 469 450 469 c 0
 521 469 576 451 576 375 c 0
 576 346 565 297 557 260 c 2
 512 49 l 2
 502 2 486 0 465 -0 c 2
 419 -0 l 2
 379 0 373 22 373 37 c 0
 373 44 374 51 376 59 c 2
 432 322 l 2
 434 331 438 345 438 359 c 0
 438 389 418 397 394 397 c 0
 321 397 275 334 260 294 c 0
 258 288 258 288 251 258 c 2
 207 48 l 2
 201 21 198 -0 159 -0 c 2
 112 -0 l 2
 72 0 68 27 68 37 c 0
EndSplineSet
EndChar

StartChar: m
Encoding: 109 109 49
Width: 866
Flags: HMW
HStem: -0 21G<112 159 418 465 725 769> 397 72<352.2 427.8 661.1 744.8>
VStem: 68 213<37 427> 373 202<37 396> 678 204<37 375>
LayerCount: 2
Back
SplineSet
277.222 403.556 m 1
 277.222 403.556 l 1
 287.889 412.434 298.834 420.889 310.555 428.381 c 0
 339.154 446.6 371.332 459.705 404.778 465.592 c 0
 427.379 469.57 450.358 469.992 473.222 468.595 c 0
 502.273 466.819 533.117 460.748 554.05 438.84 c 0
 557.608 435.111 560.778 431.04 563.444 426.662 c 0
 569.222 417.333 572.411 407.016 575 396.444 c 1
 584.873 405.544 595.105 414.139 606.111 421.778 c 0
 636.948 443.447 672.539 458.904 709.667 465.513 c 0
 733.125 469.689 757.05 470.074 780.778 468.444 c 0
 808.333 466.565 837.407 460.584 857.771 440.444 c 0
 861.222 437.065 864.333 433.333 867.113 429.32 c 0
 870.684 424.088 873.536 418.388 875.716 412.444 c 0
 886.516 382.988 880.618 350.786 875.18 320.889 c 0
 871.443 300.352 866.919 279.973 862.556 259.556 c 2
 844.636 175.111 l 1
 818.85 53.7778 l 2
 815.519 38.1156 813.788 20.2432 800.778 9.18494 c 0
 798.762 7.40761 796.49 5.85516 794.068 4.58049 c 0
 782.774 -1.33328 769.119 5.01871e-05 756.778 5.01871e-05 c 2
 730.556 5.01871e-05 l 2
 717.667 5.01871e-05 704.333 -0.607061 693.444 7.30138 c 0
 691.182 8.88894 689.106 10.8307 687.262 12.8889 c 0
 685.134 15.3445 683.317 18.0365 681.9 20.8889 c 0
 680.199 24.4054 679.098 28.16 678.556 32 c 0
 677.222 43.072 680.853 54.5947 683.142 65.3334 c 2
 694.556 119.111 l 1
 733.964 304.444 l 1
 737.299 320 l 1
 739.889 331.556 l 1
 741.667 340.889 l 2
 744.333 356.809 746.25 377.333 731.889 388.444 c 0
 729.667 390.18 727.288 391.537 724.737 392.593 c 0
 719.889 394.573 714.79 395.535 709.667 396.101 c 0
 661.486 401.43 616.048 372.605 588.235 335.111 c 0
 583.445 328.752 579.241 322.062 575.445 315.111 c 0
 571 307.026 567.25 298.548 564.422 289.778 c 0
 561.846 281.778 560.228 273.53 558.48 265.333 c 2
 551.768 233.778 l 1
 526.072 112.889 l 1
 510.956 41.7778 l 2
 509.536 35.1111 508.233 28.4063 505.381 22.2223 c 0
 500.764 12.2645 491.889 4.44448 481.22 1.66048 c 0
 475.864 0.242261 470.287 0.0875939 464.778 3.8296e-05 c 2
 448.778 3.8296e-05 l 1
 423 3.8296e-05 l 2
 415.617 3.8296e-05 408.008 -0.263517 400.778 1.48448 c 0
 395.199 2.83337 390.018 5.49026 385.664 9.23382 c 0
 383.545 11.0556 381.628 13.112 379.964 15.3569 c 0
 378.188 17.7525 376.706 20.3654 375.584 23.1111 c 0
 371.107 34.1587 373.667 45.6951 376.018 56.8889 c 2
 385.554 101.778 l 1
 425.611 290.222 l 1
 432.659 323.111 l 2
 435.416 335.375 438.322 347.792 438.192 360.444 c 0
 438.079 371.368 435 382.405 425.766 389.082 c 0
 423.54 390.667 421.087 391.959 418.527 392.889 c 0
 413.436 394.898 407.965 395.788 402.556 396.28 c 0
 394.425 397.021 386.2 396.785 378.111 395.696 c 0
 338.871 390.412 304.333 364.862 281.6 333.333 c 0
 271.64 319.535 263.639 304.225 258.449 288 c 0
 255.704 279.421 254.111 270.587 252.333 261.778 c 2
 245.963 231.556 l 1
 217.437 97.3333 l 1
 206.763 47.1111 l 2
 204.513 36.5689 202.912 25.1791 196.552 16.1729 c 0
 194.83 13.7342 192.778 11.5009 190.556 9.53067 c 0
 186.234 5.71689 181.048 2.95733 175.443 1.54578 c 0
 167.667 -0.412443 159.398 1.78814e-06 151.444 1.78814e-06 c 2
 122.111 1.78814e-06 l 2
 111.69 1.78814e-06 100.457 -0.886665 90.5556 3.02134 c 0
 81.3285 6.66667 73.6667 14.3053 70.0747 23.5556 c 0
 64.7778 37.2813 69.7445 52.4444 72.6649 66.2222 c 2
 89.9498 147.556 l 1
 115.36 267.111 l 1
 140.872 387.111 l 1
 148.054 420.889 l 2
 149.868 429.333 151.444 438.184 156.112 445.655 c 0
 157.746 448.291 159.704 450.667 161.936 452.878 c 0
 166.111 456.889 171.214 459.927 176.778 461.578 c 0
 182.544 463.287 188.59 463.465 194.556 463.527 c 2
 211.889 463.556 l 1
 232.333 463.552 l 2
 238.84 463.539 245.49 463.692 251.888 462.332 c 0
 260.297 460.543 267.799 455.788 273.146 449.066 c 0
 275.232 446.443 276.967 443.538 278.23 440.432 c 0
 279.779 436.62 280.569 432.549 280.722 428.444 c 0
 281.036 420 278.911 411.713 277.222 403.556 c 1
EndSplineSet
Fore
SplineSet
68 37 m 0
 68 47 71 57 73 66 c 2
 148 421 l 2
 153 443 158 464 195 464 c 2
 232 464 l 2
 258 464 281 457 281 427 c 0
 281 419 279 411 277 404 c 1
 321 440 375 469 451 469 c 0
 545 469 565 435 575 396 c 1
 624 441 683 469 756 469 c 0
 827 469 882 451 882 375 c 0
 882 362 880 348 874 316 c 2
 819 54 l 2
 812 20 809 -0 769 -0 c 2
 725 -0 l 2
 697 -0 678 12 678 37 c 0
 678 46 680 51 685 74 c 2
 737 320 l 2
 743 343 744 352 744 360 c 0
 744 382 734 397 698 397 c 0
 636 397 581 343 564 290 c 0
 562 282 563 284 550 226 c 2
 511 42 l 2
 507 21 501 0 465 0 c 2
 418 0 l 2
 378 0 373 25 373 37 c 0
 373 43 375 50 376 57 c 2
 433 323 l 2
 435 335 438 347 438 360 c 0
 438 388 420 397 394 397 c 0
 320 397 272 330 258 288 c 0
 256 281 257 282 246 232 c 2
 207 47 l 2
 201 22 197 -0 159 -0 c 2
 112 -0 l 2
 73 0 68 25 68 37 c 0
EndSplineSet
EndChar

StartChar: dotaccent
Encoding: 729 729 50
Width: 305
Flags: HW
HStem: 580 143<236.7 361>
VStem: 228 155<617 686 617 686>
LayerCount: 2
Back
SplineSet
273.667 721.871 m 1
 273.667 721.871 l 1
 283.98 723.466 294.819 722.667 305.222 722.667 c 2
 332.778 722.665 l 2
 340.594 722.659 348.705 723.022 356.332 721.022 c 0
 361.779 719.556 366.807 716.882 371 713.171 c 0
 373.162 711.309 375.084 709.213 376.747 706.929 c 0
 378.317 704.772 379.651 702.443 380.69 699.985 c 0
 385.492 688.617 382.72 676.445 380.288 664.889 c 2
 372.076 626.222 l 2
 369.996 616.438 368.333 605.975 362.779 597.477 c 0
 357.114 588.889 348.205 583.111 338.111 581.333 c 0
 327.975 579.623 317.222 580.445 307 580.445 c 2
 278.556 580.445 l 2
 270.744 580.445 262.638 580.067 255 581.99 c 0
 249.4 583.401 244.219 586.159 239.884 589.975 c 0
 237.647 591.945 235.639 594.178 233.924 596.617 c 0
 232.333 598.785 231.116 601.118 230.111 603.556 c 0
 225.329 615.282 228.475 627.709 230.975 639.556 c 2
 238.111 673.333 l 2
 241.316 688.217 243.444 704.337 256.23 714.402 c 0
 258.461 716.167 260.896 717.671 263.444 718.864 c 0
 266.711 720.356 270.111 721.327 273.667 721.871 c 1
EndSplineSet
Fore
SplineSet
228 617 m 0
 228 621 229 631 231 641 c 2
 238 673 l 2
 245 706 249 723 290 723 c 2
 339 723 l 2
 378 723 383 698 383 686 c 0
 383 684 381 669 379 659 c 2
 370 618 l 2
 366 602 361 580 325 580 c 2
 272 580 l 2
 233 580 228 606 228 617 c 0
EndSplineSet
EndChar

StartChar: j
Encoding: 106 106 51
Width: 286
Flags: HW
HStem: -205 84<-52.2 98.6> 438 20 580 143<223.7 348>
VStem: 88 226<-13 422> 215 155<617 686 617 686>
LayerCount: 2
Back
SplineSet
260.889 721.871 m 1
 260.889 721.871 l 1
 271.06 723.444 281.74 722.667 292 722.667 c 2
 320 722.666 l 2
 327.816 722.659 335.927 723.021 343.554 721.022 c 0
 349.001 719.556 354.029 716.882 358.222 713.171 c 0
 360.384 711.309 362.306 709.213 363.969 706.928 c 0
 365.54 704.771 366.873 702.443 367.912 699.985 c 0
 372.714 688.617 369.942 676.445 367.51 664.889 c 2
 359.393 626.667 l 2
 357.284 616.746 355.708 606.096 350.001 597.477 c 0
 344.336 588.889 335.428 583.111 325.333 581.333 c 0
 315.197 579.556 304.444 580.445 294.222 580.445 c 2
 265.778 580.445 l 2
 257.967 580.445 249.86 580 242.222 581.99 c 0
 236.622 583.401 231.441 586.159 227.107 589.975 c 0
 224.869 591.945 222.861 594.178 221.147 596.617 c 0
 219.556 598.785 218.338 601.118 217.333 603.556 c 0
 212.552 615.282 215.697 627.708 218.198 639.556 c 2
 225.333 673.333 l 2
 228.539 688.217 230.667 704.337 243.452 714.402 c 0
 245.683 716.167 248.119 717.671 250.667 718.864 c 0
 253.933 720.356 257.333 721.327 260.889 721.871 c 1
212.889 457.333 m 1
 212.889 457.333 l 1
 223.047 459.023 233.747 458.222 244 458.222 c 2
 265.333 458.219 l 2
 272.282 458.208 279.404 458.403 286.221 456.848 c 0
 292.321 455.456 297.959 452.531 302.594 448.324 c 0
 304.664 446.445 306.527 444.335 308.129 442.043 c 0
 310.094 439.232 311.656 436.141 312.729 432.883 c 0
 315.821 423.492 314.084 413.87 312.144 404.445 c 2
 306.397 377.333 l 1
 281.078 258.222 l 1
 257.75 148.445 l 1
 239.986 64.889 l 1
 227.232 4.88899 l 2
 216.654 -44.987 206.08 -96.3621 175.111 -138.222 c 0
 169.93 -145.242 164.228 -151.885 158.054 -158.059 c 0
 151.022 -165.092 143.367 -171.555 135.111 -177.045 c 0
 125.276 -183.658 114.618 -189.081 103.556 -193.333 c 0
 87.4671 -199.555 70.4831 -203.111 53.3334 -204.553 c 0
 38.56 -205.778 23.6338 -205.333 8.88892 -204 c 0
 -16.8889 -201.434 -42.3311 -195.467 -66.2222 -185.444 c 0
 -74.8106 -181.842 -83.5555 -177.921 -91.408 -172.889 c 0
 -95.7022 -170.127 -100.045 -166.587 -101.608 -161.527 c 0
 -103.111 -156.889 -101.624 -152 -99.8653 -147.555 c 0
 -97.3333 -141.049 -94.0422 -134.771 -91.1111 -128.444 c 0
 -88.6546 -123.41 -86.3551 -118.314 -83.7307 -113.398 c 0
 -81.6675 -109.533 -79.26 -105.553 -75.6084 -102.988 c 0
 -69.396 -98.6666 -62.4902 -101.333 -56.4444 -104.501 c 0
 -46.9209 -109.539 -37.6138 -114.227 -27.1111 -116.913 c 0
 -17.2249 -119.441 -7.1111 -120.457 3.11112 -120.343 c 0
 20.8889 -120.142 39.0831 -116.319 53.1502 -104.811 c 0
 56.8573 -101.778 60.212 -98.3199 63.1111 -94.5421 c 0
 70.4489 -85.179 74.8338 -74.091 77.7173 -62.6665 c 0
 81.7778 -46.3772 84.5382 -29.7817 87.8947 -13.3332 c 0
 93.0116 11.7419 98.4973 36.7477 103.829 61.7779 c 2
 161.548 333.333 l 1
 175.058 396.889 l 1
 179.318 416.889 l 2
 180.444 422.418 181.636 428 183.67 433.326 c 0
 188.526 445.962 199.46 455.256 212.889 457.333 c 1
EndSplineSet
Fore
Refer: 50 729 N 1 0 0 1 -13 0 2
Refer: 52 63166 N 1 0 0 1 0 0 2
EndChar

StartChar: dotlessj
Encoding: 63166 63166 52
Width: 286
Flags: HMW
HStem: -205 84<-52.2 98.6> 458 -20
VStem: 88 226<-13 422>
LayerCount: 2
Back
SplineSet
212.889 457.333 m 1
 212.889 457.333 l 1
 223.047 459.023 233.747 458.222 244 458.222 c 2
 265.333 458.219 l 2
 272.282 458.208 279.404 458.403 286.221 456.848 c 0
 292.321 455.456 297.959 452.531 302.594 448.324 c 0
 304.664 446.444 306.527 444.335 308.129 442.043 c 0
 310.094 439.232 311.656 436.141 312.729 432.883 c 0
 315.821 423.492 314.084 413.87 312.144 404.444 c 2
 306.397 377.333 l 1
 281.078 258.222 l 1
 257.75 148.444 l 1
 239.986 64.8889 l 1
 227.232 4.88887 l 2
 216.654 -44.9871 206.08 -96.3622 175.111 -138.222 c 0
 169.93 -145.242 164.228 -151.885 158.054 -158.06 c 0
 151.022 -165.092 143.367 -171.556 135.111 -177.045 c 0
 125.276 -183.658 114.618 -189.081 103.556 -193.333 c 0
 87.4671 -199.556 70.4831 -203.111 53.3333 -204.553 c 0
 38.412 -205.778 23.3342 -205.333 8.44443 -203.904 c 0
 -17.3333 -201.349 -42.7862 -195.335 -66.6667 -185.257 c 0
 -75.3849 -181.579 -84.36 -177.605 -92.2476 -172.333 c 0
 -96.3356 -169.601 -100.444 -166.049 -101.696 -161.112 c 0
 -102.964 -156.297 -101.174 -151.427 -99.1147 -147.111 c 0
 -95.7751 -140.109 -91.7045 -133.423 -87.9027 -126.667 c 0
 -85.2396 -121.935 -82.6667 -117.147 -79.7689 -112.541 c 0
 -77.568 -109.018 -75.1111 -105.419 -71.6316 -103.02 c 0
 -64.6734 -98.2222 -57.2009 -101.853 -50.6667 -105.498 c 0
 -41.9778 -110.345 -33.2311 -114.539 -23.5556 -117.034 c 0
 -13.6791 -119.58 -3.55558 -120.533 6.66664 -120.305 c 0
 19.5155 -120.017 32.6049 -117.684 43.9929 -111.556 c 0
 51.4675 -107.413 57.9995 -101.778 63.2084 -95.0102 c 0
 70.4693 -85.6413 74.788 -74.5236 77.6369 -63.1111 c 0
 81.7418 -46.6667 84.4444 -29.9307 87.8946 -13.3334 c 0
 92.9813 11.5555 98.4351 36.4444 103.734 61.3333 c 2
 161.548 333.333 l 1
 175.058 396.889 l 1
 179.318 416.889 l 2
 180.444 422.418 181.636 428 183.67 433.326 c 0
 188.526 445.962 199.46 455.256 212.889 457.333 c 1
EndSplineSet
Fore
SplineSet
-102 -158 m 0
 -102 -152 -79 -100 -65 -100 c 0
 -51 -100 -39 -121 5 -121 c 0
 77 -121 78 -59 88 -13 c 2
 179 417 l 2
 188 456 206 458 229 458 c 2
 269 458 l 2
 309 458 314 434 314 422 c 0
 314 416 313 410 312 404 c 2
 227 5 l 2
 213 -61 189 -205 35 -205 c 0
 -33 -205 -102 -177 -102 -158 c 0
EndSplineSet
EndChar

StartChar: dotlessi
Encoding: 305 305 53
Width: 255
Flags: HMW
HStem: -0 21G<114 154> 458 -20
VStem: 69 214<37 421>
LayerCount: 2
Back
SplineSet
181.778 457.333 m 1
 181.778 457.333 l 1
 191.936 459.023 202.636 458.222 212.889 458.222 c 2
 235.111 458.217 l 2
 241.622 458.203 248.268 458.331 254.666 456.889 c 0
 261.778 455.4 268.315 451.764 273.333 446.483 c 0
 275.286 444.444 276.98 442.222 278.4 439.909 c 0
 285.778 427.556 283.082 414.132 280.29 400.889 c 2
 270.089 352.889 l 1
 222.222 128 l 1
 208.404 62.6666 l 1
 203.956 41.7778 l 2
 202.768 36.2529 201.655 30.6453 199.67 25.3333 c 0
 194.8 12.3244 183.556 2.81998 169.778 0.75331 c 0
 159.556 -0.77069 148.889 -2.32682e-05 138.667 -2.32682e-05 c 2
 116.889 -2.32682e-05 l 2
 110.379 -2.32682e-05 103.73 -0.111579 97.3333 1.28042 c 0
 90.3755 2.79553 84 6.30887 79.0275 11.3875 c 0
 77.0893 13.3333 75.3649 15.5404 73.9111 17.892 c 0
 72.6315 19.9622 71.5555 22.164 70.744 24.4444 c 0
 66.92 35.1111 69.4373 46.184 71.6844 56.8889 c 2
 81.7778 104.444 l 1
 129.333 328.444 l 1
 143.38 394.222 l 1
 147.92 415.556 l 2
 149.104 421.07 150.195 426.665 152 431.996 c 0
 156.733 445.248 167.792 455.111 181.778 457.333 c 1
EndSplineSet
Fore
SplineSet
69 37 m 0
 69 43 70 50 72 57 c 2
 148 416 l 2
 154 444 162 458 198 458 c 2
 239 458 l 2
 276 458 283 435 283 421 c 0
 283 415 282 408 280 401 c 2
 204 42 l 2
 196 3 178 -0 154 -0 c 2
 114 -0 l 2
 74 0 69 25 69 37 c 0
EndSplineSet
EndChar

StartChar: i
Encoding: 105 105 54
Width: 255
Flags: HW
HStem: 0 21<114 154> 438 20 580 143<196.7 321>
VStem: 69 214<37 421> 188 155<617 686 617 686>
LayerCount: 2
Back
SplineSet
233.778 721.871 m 1
 233.778 721.871 l 1
 244.091 723.466 254.93 722.667 265.333 722.667 c 2
 292.889 722.666 l 2
 300.705 722.659 308.816 723.022 316.443 721.022 c 0
 321.889 719.556 326.918 716.883 331.111 713.171 c 0
 333.273 711.309 335.195 709.213 336.858 706.929 c 0
 338.428 704.772 339.762 702.443 340.8 699.985 c 0
 345.603 688.617 342.831 676.445 340.399 664.889 c 2
 332.187 626.222 l 2
 330.107 616.438 328.444 605.976 322.89 597.477 c 0
 317.225 588.889 308.316 583.111 298.222 581.333 c 0
 288.086 579.556 277.333 580.445 267.111 580.445 c 2
 238.667 580.445 l 2
 230.855 580.445 222.749 580 215.111 581.99 c 0
 209.511 583.401 204.33 586.159 199.995 589.975 c 0
 197.758 591.945 195.75 594.178 194.036 596.617 c 0
 192.444 598.785 191.227 601.118 190.222 603.556 c 0
 185.44 615.282 188.586 627.708 191.086 639.556 c 2
 198.222 673.333 l 2
 201.428 688.217 203.556 704.337 216.341 714.402 c 0
 218.572 716.167 221.008 717.671 223.556 718.864 c 0
 226.822 720.356 230.222 721.327 233.778 721.871 c 1
181.778 457.334 m 1
 181.778 457.333 l 1
 191.936 459.023 202.636 458.222 212.889 458.222 c 2
 235.111 458.217 l 2
 241.622 458.203 248.268 458.331 254.666 456.889 c 0
 261.778 455.4 268.315 451.764 273.333 446.483 c 0
 275.286 444.445 276.98 442.222 278.4 439.909 c 0
 285.778 427.556 283.082 414.132 280.29 400.889 c 2
 270.089 352.889 l 1
 222.222 128 l 1
 208.404 62.6668 l 1
 203.956 41.7779 l 2
 202.768 36.253 201.655 30.6455 199.67 25.3335 c 0
 194.8 12.3246 183.556 2.82016 169.778 0.753493 c 0
 159.556 -0.770507 148.889 0.000159837 138.667 0.000159837 c 2
 116.889 0.000159837 l 2
 110.379 0.000159837 103.73 -0.111396 97.3334 1.2806 c 0
 90.3756 2.79572 84 6.30905 79.0276 11.3877 c 0
 77.0894 13.3335 75.3649 15.5406 73.9111 17.8922 c 0
 72.6316 19.9624 71.5556 22.1642 70.744 24.4446 c 0
 66.92 35.1113 69.4374 46.1842 71.6845 56.8891 c 2
 81.7778 104.445 l 1
 129.333 328.445 l 1
 143.38 394.222 l 1
 147.92 415.556 l 2
 149.104 421.07 150.195 426.665 152 431.996 c 0
 156.733 445.248 167.792 455.111 181.778 457.334 c 1
EndSplineSet
Fore
Refer: 50 729 N 1 0 0 1 -40 0 2
Refer: 53 305 N 1 0 0 1 0 0 2
EndChar

StartChar: afii10042
Encoding: 1064 1064 55
Width: 1207
Flags: HW
HStem: -0 106<239 553 679 1010> 674 20G<273 310 717 752 1157 1180 1174 1210 1204 1230>
LayerCount: 2
Fore
SplineSet
100 37 m 0
 100 46 102 54 104 63 c 2
 230 656 l 2
 233 669 238 694 273 694 c 2
 311 694 l 2
 344 694 356 679 356 656 c 0
 356 652 356 647 354 641 c 2
 240 106 l 1
 562 106 l 1
 677 648 l 2
 684 683 692 694 726 694 c 2
 761 694 l 2
 800 694 805 667 805 657 c 0
 805 651 803 643 802 639 c 2
 688 106 l 1
 1010 106 l 1
 1125 648 l 2
 1132 683 1140 694 1174 694 c 2
 1210 694 l 2
 1250 694 1254 664 1253 654 c 2
 1125 52 l 2
 1118 20 1116 -0 1075 -0 c 2
 146 -0 l 2
 106 0 100 22 100 37 c 0
EndSplineSet
EndChar

StartChar: afii10043
Encoding: 1065 1065 56
Width: 1247
Flags: HW
HStem: -195 21G<1095 1133> 0 106<239 554 680 1011> 674 20G<278 312 717 753 1175 1210>
LayerCount: 2
Fore
SplineSet
100 36 m 0
 100 45 102 53 103 61 c 2
 230 655 l 2
 237 689 251 694 278 694 c 2
 312 694 l 2
 350 694 355 670 355 657 c 0
 355 650 354 643 353 640 c 2
 239 106 l 1
 562 106 l 1
 677 648 l 2
 683 683 692 694 725 694 c 2
 761 694 l 2
 800 694 804 667 804 657 c 0
 804 651 802 643 801 639 c 2
 688 106 l 1
 1011 106 l 1
 1126 648 l 2
 1133 683 1142 694 1175 694 c 2
 1209 694 l 2
 1248 694 1253 667 1253 657 c 0
 1253 651 1251 643 1250 639 c 2
 1137 106 l 1
 1185 106 l 2
 1206 106 1223 101 1223 78 c 0
 1223 69 1180 -128 1173 -162 c 0
 1167 -191 1158 -195 1133 -195 c 2
 1095 -195 l 2
 1066 -195 1063 -176 1063 -169 c 0
 1063 -157 1070 -127 1097 0 c 1
 149 0 l 2
 130 0 122 0 112 9 c 0
 105 15 100 25 100 36 c 0
EndSplineSet
EndChar

StartChar: circumflex.cap
Encoding: 65536 -1 57
Width: 550
Flags: W
HStem: 735 179<520.219 531.375>
LayerCount: 2
Back
SplineSet
261 747 m 0
 261 756 266 760 399 896 c 0
 414 911 415 914 432 914 c 2
 553 914 l 1
 570 913 572 907 575 895 c 0
 575 894 606 756 606 749 c 0
 606 745 606 744 604 739 c 1
 596 736 l 1
 580 735 l 1
 557 735 l 2
 534 735 539 741 454 834 c 1
 324 735 330 735 311 735 c 0
 285 735 282 735 279 735 c 0
 265 736 261 742 261 747 c 0
EndSplineSet
Fore
SplineSet
262 745 m 0
 262 754 274 766 276 768 c 2
 404 899 l 2
 413 908 419 914 435 914 c 2
 503 914 l 2
 519 914 523 908 528 899 c 2
 600 768 l 2
 603 763 606 757 606 751 c 0
 606 741 599 735 579 735 c 2
 559 735 l 2
 546 735 539 735 526 750 c 2
 452 834 l 1
 342 750 l 2
 323 735 316 735 303 735 c 2
 283 735 l 2
 272 735 262 737 262 745 c 0
EndSplineSet
EndChar

StartChar: ring.cap
Encoding: 65537 -1 58
Width: 550
Flags: W
HStem: 662 73<378.499 490.657> 830 72<389.946 501.874>
VStem: 314 63<738.786 816.814> 504 64<747.579 825.714>
LayerCount: 2
Back
SplineSet
315 745 m 0
 315 805 346 902 468 902 c 0
 532 902 568 876 568 820 c 0
 568 770 545 667 426 662 c 1
 409 662 l 1
 364 664 315 679 315 745 c 0
379 765 m 0
 379 735 406 735 429 735 c 0
 456 736 505 732 505 800 c 0
 505 830 478 829 456 830 c 1
 448 830 l 2
 410 830 379 818 379 765 c 0
EndSplineSet
Fore
SplineSet
314 745 m 0
 314 786 332 902 468 902 c 0
 525 902 568 880 568 819 c 0
 568 770 544 662 415 662 c 0
 356 662 314 684 314 745 c 0
377 766 m 0
 377 742 394 735 430 735 c 0
 455 735 504 735 504 799 c 0
 504 823 487 830 452 830 c 0
 427 830 377 830 377 766 c 0
EndSplineSet
EndChar
